<svg width="17" height="17" viewBox="0 0 17 17" fill="none" xmlns="http://www.w3.org/2000/svg">
<path d="M12.1923 8.5V12.1923M12.1923 6.02985V6.03846M4.19231 12.1923L5.23108 9.42308M5.23108 9.42308L6.96154 4.80769L8.692 9.42308M5.23108 9.42308H8.692M9.73077 12.1923L8.692 9.42308M16.5 4.05569V12.9443C16.4997 13.8872 16.125 14.7915 15.4582 15.4582C14.7915 16.125 13.8872 16.4997 12.9443 16.5H4.05692C3.11378 16.5 2.20925 16.1254 1.54223 15.4586C0.875217 14.7919 0.500326 13.8874 0.5 12.9443V4.05692C0.5 3.11378 0.874577 2.20925 1.54136 1.54223C2.20815 0.875217 3.11255 0.500326 4.05569 0.5H12.9443C13.8872 0.500326 14.7915 0.875048 15.4582 1.5418C16.125 2.20855 16.4997 3.11276 16.5 4.05569Z" stroke="#292929" stroke-linecap="round" stroke-linejoin="round"/>
</svg>
