<svg width="16" height="16" viewBox="0 0 16 16" fill="none" xmlns="http://www.w3.org/2000/svg">
<path d="M10.4336 9.98754C10.4336 11.5093 9.00861 11.4835 8.8793 11.4835H5.95433V8.568H8.85344C10.4069 8.51644 10.4336 9.67732 10.4336 9.98754ZM8.64566 7.35467C8.67242 7.35467 10.0181 7.38134 10.0181 6.03913C10.0181 5.49691 9.91464 4.77425 8.64566 4.77425H5.95255V7.35467H8.64566ZM15.9982 2.6836V13.3413C15.9982 14.7875 14.8077 15.9999 13.3051 15.9999H2.69317C2.33885 16.0023 1.98758 15.9345 1.65977 15.8004C1.33195 15.6663 1.03412 15.4687 0.78357 15.219C0.533018 14.9692 0.334735 14.6723 0.200233 14.3456C0.065731 14.0188 -0.0023103 13.6687 5.98561e-05 13.3155V2.68448C-0.0023103 2.3313 0.065731 1.98117 0.200233 1.65441C0.334735 1.32765 0.533018 1.03079 0.78357 0.781043C1.03412 0.531299 1.33195 0.333655 1.65977 0.199587C1.98758 0.0655189 2.33885 -0.00230285 2.69317 5.9663e-05H13.3854C14.8095 5.9663e-05 16 1.18672 16 2.68448M12.0647 10.1689C12.0647 9.39466 11.8578 8.104 10.3302 7.76889V7.74222C11.1595 7.38134 11.65 6.73601 11.65 5.78135C11.65 5.52357 11.7285 3.4587 8.8802 3.4587H4.35006V12.7493C8.93192 12.7493 9.37245 12.7751 10.2009 12.5689C10.6931 12.4142 12.0647 11.9493 12.0647 10.1689Z" fill="#292929"/>
</svg>
