<svg width="16" height="16" viewBox="0 0 16 16" fill="none" xmlns="http://www.w3.org/2000/svg">
<path d="M0 2.9935C0 1.34025 1.9278 0 4.30586 0H11.6941C14.0722 0 16 1.34025 16 2.9935C16 4.04037 15.227 4.96175 14.0562 5.49678C15.227 6.03184 16 6.95319 16 8.00006C16 9.65334 14.0722 10.9936 11.6941 10.9936H11.6006C10.4858 10.9936 9.4699 10.699 8.70521 10.2157V12.974C8.70521 14.6493 6.72703 16 4.32905 16C1.95693 16 0 14.6638 0 13.0065C0 11.9597 0.772909 11.0383 1.94362 10.5033C0.772864 9.96822 0 9.04688 0 8.00006C0 6.95319 0.772954 6.03184 1.94376 5.49678C0.772954 4.96175 0 4.04037 0 2.9935ZM7.29479 5.98709H4.30586C2.70673 5.98709 1.41043 6.88834 1.41043 8.00006C1.41043 9.1075 2.69675 10.0061 4.28734 10.013L4.30586 10.013H7.29479V5.98709ZM8.70521 8.00006C8.70521 9.11178 10.0015 10.013 11.6006 10.013H11.6941C13.2933 10.013 14.5896 9.11178 14.5896 8.00006C14.5896 6.88834 13.2933 5.98709 11.6941 5.98709H11.6006C10.0015 5.98709 8.70521 6.88834 8.70521 8.00006ZM4.30586 10.9936L4.28734 10.9936C2.69675 11.0005 1.41043 11.899 1.41043 13.0065C1.41043 14.1141 2.72408 15.0194 4.32905 15.0194C5.95992 15.0194 7.29479 14.0996 7.29479 12.974V10.9936H4.30586ZM4.30586 0.980563C2.70673 0.980563 1.41043 1.88181 1.41043 2.9935C1.41043 4.10525 2.70678 5.00647 4.30586 5.00647H7.29479V0.980531L4.30586 0.980563ZM8.70521 5.00647H11.6941C13.2933 5.00647 14.5896 4.10525 14.5896 2.9935C14.5896 1.88178 13.2933 0.980563 11.6941 0.980563H8.70521V5.00647Z" fill="#292929"/>
</svg>
