<svg width="16" height="16" viewBox="0 0 16 16" fill="none" xmlns="http://www.w3.org/2000/svg">
<path d="M9.25714 1.2L10.0571 2.08L10.8571 1.2V2.4H12V0H10.8571L10.0571 0.88L9.37143 0H8.11429V2.4H9.25714V1.2ZM15.3143 2.4V1.6H13.7143V0H12.5714V2.4H15.3143ZM5.48571 2.4H6.62857V0.8H7.65714V0H4.45714V0.8H5.48571V2.4ZM1.82857 1.6H2.85714V2.4H4V0H2.85714V0.8H1.82857V0H0.685714V2.4H1.82857V1.6ZM0 3.2L1.37143 14.72L8 16L14.6286 14.72L16 3.2H0ZM12.9143 6.88H5.14286L5.37143 8.32H12.6857L12.1143 12.72L8 13.52L3.88571 12.72L3.54286 10.4H5.6L5.71429 11.6L8 12L10.2857 11.6L10.5143 9.76H3.42857L2.85714 5.52H13.1429L12.9143 6.88Z" fill="#292929"/>
</svg>
