<svg width="14" height="14" viewBox="0 0 14 14" fill="none" xmlns="http://www.w3.org/2000/svg">
<path d="M14 2C14 0.896875 13.1031 0 12 0H2C0.896875 0 0 0.896875 0 2V12C0 13.1031 0.896875 14 2 14H12C13.1031 14 14 13.1031 14 12V2ZM5.65312 12.9031C4.6 12.9031 3.99062 12.3594 3.67812 11.7L4.75 11.0531C4.95625 11.4188 5.14375 11.7281 5.59688 11.7281C6.02813 11.7281 6.30312 11.5594 6.30312 10.9V6.42812H7.61875V10.9187C7.61875 12.2812 6.81875 12.9031 5.65312 12.9031ZM8.33438 11.5594L9.40625 10.9406C9.6875 11.4 10.0562 11.7406 10.7031 11.7406C11.2469 11.7406 11.5969 11.4688 11.5969 11.0906C11.5969 10.6406 11.2406 10.4812 10.6375 10.2156L10.3094 10.075C9.35938 9.67188 8.73125 9.1625 8.73125 8.09062C8.73125 7.10312 9.48438 6.35313 10.6562 6.35313C11.4937 6.35313 12.0938 6.64375 12.525 7.40625L11.5 8.0625C11.275 7.65938 11.0312 7.5 10.6531 7.5C10.2688 7.5 10.025 7.74375 10.025 8.0625C10.025 8.45625 10.2688 8.61563 10.8344 8.8625L11.1625 9.00313C12.2812 9.48125 12.9094 9.97187 12.9094 11.0719C12.9094 12.2531 11.9781 12.9031 10.7312 12.9031C9.50937 12.9031 8.71875 12.3219 8.33438 11.5594Z" fill="#292929"/>
</svg>
