<svg width="8" height="16" viewBox="0 0 8 16" fill="none" xmlns="http://www.w3.org/2000/svg">
<path d="M7.05571 6.37C6.21304 2.65 4.22104 1.42733 4.00704 0.96C3.82038 0.697333 3.65371 0.324 3.51704 0C3.49304 0.33 3.48038 0.456667 3.16838 0.789333C2.68638 1.16667 0.20971 3.244 0.00837663 7.46933C-0.179623 11.4107 2.85504 13.7593 3.26704 14.0587L3.31371 14.092C3.39942 14.7265 3.47276 15.3626 3.53371 16H3.85438C3.931 15.3122 4.04449 14.629 4.19438 13.9533C4.47238 13.756 4.59704 13.6447 4.76104 13.4913C5.53775 12.7729 6.15501 11.8995 6.57291 10.9275C6.9908 9.95549 7.20002 8.9066 7.18704 7.84867C7.19371 7.306 7.11838 6.74067 7.05571 6.37ZM3.49838 11.8333C3.49838 11.8333 3.49838 6.306 3.68171 6.30667C3.82371 6.30667 4.00838 13.4367 4.00838 13.4367C3.75438 13.4067 3.49838 12.2633 3.49838 11.8333Z" fill="#292929"/>
</svg>
