<svg width="16" height="16" viewBox="0 0 16 16" fill="none" xmlns="http://www.w3.org/2000/svg">
<path d="M15.8094 15.6106L15.4766 15.2878C15.3178 15.074 15.1404 14.8752 14.9466 14.6937L14.9434 14.691C14.7477 14.5101 14.5444 14.3381 14.3335 14.1749C14.1645 14.0567 13.9321 13.9142 13.6365 13.7475C13.3966 13.6391 13.2054 13.443 13.1006 13.198L13.098 13.1913L13.0666 13.1753C13.2054 13.1613 13.3325 13.1353 13.4544 13.0986L13.4393 13.1027L13.8127 12.998C13.9673 12.9486 14.1461 12.9166 14.3315 12.9093H14.3355C14.5302 12.9004 14.7152 12.8695 14.8903 12.8166L14.8739 12.8206C14.9586 12.7992 15.0458 12.775 15.1353 12.7479C15.2248 12.7208 15.3015 12.6966 15.3652 12.6752V12.5625C15.3019 12.4661 15.2253 12.3558 15.1353 12.2318C15.0517 12.1159 14.9542 12.0111 14.8451 11.9197L14.8418 11.917C14.5671 11.6699 14.2826 11.4307 13.9883 11.1995C13.7122 10.9815 13.4255 10.7776 13.1295 10.5887L13.0849 10.5621C12.914 10.4484 12.7331 10.3513 12.5445 10.272L12.5222 10.264C12.3266 10.1831 12.1337 10.0944 11.9438 9.99792C11.8754 9.96362 11.8036 9.93701 11.7296 9.91857L11.7224 9.91723C11.6482 9.90307 11.5811 9.86327 11.5324 9.80454L11.5317 9.80387C11.4388 9.67828 11.3607 9.54198 11.2992 9.39778L11.2939 9.38444C11.2306 9.23374 11.162 9.08904 11.0882 8.95034C10.9297 8.63827 10.7764 8.32108 10.6284 7.99878C10.4803 7.67648 10.3382 7.35374 10.2019 7.03055C10.1072 6.81539 10.02 6.60045 9.94055 6.38574C9.86014 6.16688 9.759 5.9565 9.63856 5.75759L9.64707 5.77293C9.38668 5.31693 9.09533 4.87999 8.77517 4.46528L8.79351 4.49062C8.50105 4.11369 8.1816 3.75931 7.83775 3.43037L7.83251 3.42571C7.49393 3.10316 7.13695 2.80124 6.76343 2.52149L6.73133 2.49815C6.34003 2.20875 5.91205 1.9238 5.44738 1.64329C5.24986 1.52602 5.03704 1.43779 4.81523 1.38122L4.7982 1.37722L4.0691 1.19185L3.65706 1.15984C3.51993 1.14917 3.38258 1.14384 3.24501 1.14384C3.15234 1.09426 3.06699 1.03163 2.9915 0.957792C2.91819 0.887759 2.84098 0.82208 2.76026 0.761079L2.75371 0.756411C2.32816 0.506511 1.87999 0.29884 1.41539 0.136265L1.35971 0.118928C1.24407 0.051861 1.11515 0.0120175 0.982402 0.00232442C0.849657 -0.00736862 0.716465 0.0133351 0.592611 0.0629145L0.598507 0.060914C0.476595 0.10958 0.366721 0.185005 0.276707 0.28182C0.186693 0.378635 0.118752 0.494458 0.0777217 0.621046L0.0757565 0.627714C0.00660164 0.797711 -0.0157896 0.983663 0.010984 1.16563C0.0377577 1.3476 0.112686 1.51871 0.227734 1.66062L0.226424 1.65862C0.463998 1.98092 0.646109 2.23431 0.772757 2.4188C0.867525 2.54817 0.96535 2.68264 1.06623 2.82223C1.1586 2.94759 1.24048 3.09096 1.30664 3.24233L1.31188 3.25633C1.34857 3.33569 1.38067 3.43037 1.40425 3.52773L1.40622 3.5384C1.42718 3.62998 1.4536 3.72956 1.48548 3.83714C1.58025 4.08431 1.66999 4.3377 1.75472 4.59732C1.84708 4.88072 1.94927 5.12077 2.06784 5.34949L2.0554 5.32282C2.11872 5.44107 2.18226 5.55665 2.24602 5.66957C2.30978 5.78248 2.37835 5.89273 2.45172 6.00031C2.49374 6.06387 2.54733 6.11864 2.60959 6.16168L2.61156 6.16302C2.64457 6.18676 2.67175 6.21795 2.69096 6.25416C2.71016 6.29037 2.72088 6.33061 2.72226 6.37173C2.64437 6.48828 2.59558 6.62308 2.58011 6.76316L2.57946 6.76716C2.55964 6.92436 2.5261 7.07946 2.47923 7.2306L2.48447 7.2106C2.33034 7.69083 2.25272 8.19307 2.25454 8.69828C2.25454 8.87032 2.26327 9.03992 2.28074 9.20707L2.27878 9.18639C2.31808 9.82521 2.5074 10.412 2.8107 10.9201L2.80153 10.9035C2.93058 11.1002 3.0688 11.2716 3.22143 11.4283C3.3101 11.5298 3.42955 11.5983 3.56082 11.6228C3.69208 11.6473 3.82763 11.6265 3.94595 11.5636L3.94267 11.565C4.056 11.5239 4.15485 11.4497 4.22678 11.3515C4.29871 11.2534 4.34049 11.1358 4.34685 11.0135V11.0122C4.3783 10.6961 4.42546 10.4134 4.49031 10.1373L4.4818 10.182C4.49833 10.137 4.50676 10.0893 4.50669 10.0413L4.50538 10.0113V10.0126C4.50014 9.96413 4.52918 9.91835 4.59251 9.87522V9.90723C4.65583 10.0579 4.72177 10.2084 4.79034 10.3587C4.8589 10.5089 4.93009 10.6594 5.00389 10.8101C5.19714 11.1095 5.40218 11.3709 5.62753 11.6116L5.62556 11.6096C5.84961 11.8562 6.09689 12.0797 6.36383 12.2771L6.37824 12.2871C6.51625 12.3947 6.63984 12.5121 6.74902 12.6392L6.75164 12.6419C6.85601 12.7663 6.97829 12.8673 7.11848 12.9446L7.12503 12.9479V12.9319H7.15647C7.13165 12.8753 7.09054 12.8276 7.03856 12.7952L7.03725 12.7946C6.98936 12.7673 6.94319 12.737 6.89903 12.7039L6.9023 12.7059C6.80754 12.6094 6.70971 12.5018 6.60883 12.3831C6.50795 12.2645 6.41558 12.1515 6.33173 12.0444C6.10988 11.7323 5.89829 11.4063 5.69696 11.0662C5.49564 10.7261 5.30545 10.3805 5.12639 10.0293C5.04167 9.85722 4.95979 9.67984 4.88074 9.49714C4.80169 9.31443 4.72505 9.13705 4.65081 8.96501C4.61724 8.89507 4.59595 8.8197 4.58792 8.74229V8.73896C4.58603 8.70236 4.57491 8.66688 4.55563 8.63593C4.53636 8.60498 4.50957 8.5796 4.47787 8.56225L4.47656 8.56158C4.4013 8.69265 4.31164 8.81458 4.20929 8.925L4.20994 8.92433C4.10501 9.03741 4.02032 9.1683 3.9597 9.31109L3.95643 9.31976C3.8586 9.5661 3.79489 9.82508 3.76711 10.0893L3.7658 10.1019C3.73436 10.3869 3.70269 10.6799 3.67081 10.9808L3.63937 10.9968L3.62365 11.0128C3.54173 10.9959 3.46455 10.9606 3.3977 10.9095C3.33085 10.8584 3.27601 10.7928 3.23715 10.7174L3.23584 10.7141C3.15636 10.5581 3.08518 10.4047 3.02229 10.254C2.85132 9.79676 2.75763 9.31337 2.74519 8.82431V8.81831C2.71088 8.29565 2.77446 7.77111 2.93254 7.27261L2.92468 7.30195C2.95613 7.1837 3.02469 6.98454 3.13038 6.70448C3.23606 6.42441 3.25724 6.23081 3.19392 6.12367C3.1619 6.018 3.10183 5.92339 3.02032 5.85028L3.01967 5.84961C2.94085 5.78115 2.86747 5.70646 2.80022 5.62622L2.79825 5.62356C2.72445 5.51509 2.65326 5.3995 2.5847 5.27681C2.51613 5.15411 2.45543 5.0332 2.40259 4.91406C2.27992 4.62051 2.1762 4.31913 2.09208 4.01184L2.07767 3.9525C1.98492 3.60923 1.86531 3.27408 1.72 2.95026L1.73703 2.99294C1.66936 2.83454 1.58361 2.68481 1.48155 2.54683L1.48548 2.55217C1.37892 2.40724 1.28372 2.2701 1.19987 2.14074C1.09331 2.00115 0.987622 1.86667 0.88281 1.73731C0.773525 1.6027 0.679883 1.45569 0.603748 1.29921L0.597852 1.28587C0.564157 1.21629 0.538018 1.14317 0.519898 1.06782L0.518588 1.06048C0.507059 1.02264 0.503959 0.982654 0.509511 0.943437C0.515063 0.904219 0.529129 0.866754 0.550687 0.833763L0.550032 0.835096C0.556939 0.799005 0.573485 0.76555 0.597852 0.738407C0.624228 0.71406 0.656607 0.697466 0.691528 0.690395H0.692838C0.744522 0.656274 0.803938 0.636213 0.865409 0.632127C0.926881 0.628041 0.988355 0.640067 1.04396 0.667057L1.04199 0.66639C1.18546 0.707733 1.3014 0.749076 1.41473 0.79642L1.39115 0.787752C1.5916 0.873994 1.77655 0.957347 1.946 1.03781C2.14121 1.1325 2.3076 1.23252 2.46482 1.34388L2.45303 1.33588C2.53775 1.38967 2.62226 1.4488 2.70654 1.51326C2.79083 1.57772 2.88057 1.6424 2.97578 1.7073H3.19785C3.36686 1.7073 3.54635 1.71553 3.73632 1.73197C3.92826 1.74731 4.10578 1.78399 4.27479 1.84133L4.25907 1.83667C4.57416 1.93202 4.84471 2.04471 5.1015 2.18008L5.07464 2.16741C5.33362 2.30166 5.57927 2.44414 5.8116 2.59484C6.19744 2.83957 6.53088 3.09029 6.84466 3.36436L6.83352 3.35502C7.16106 3.64042 7.45846 3.93316 7.73753 4.24257L7.74408 4.25057C8.01659 4.5533 8.27665 4.88205 8.51445 5.2268L8.53475 5.25814C8.75355 5.57288 8.97431 5.93696 9.1728 6.31439L9.20031 6.37107C9.25821 6.48706 9.3094 6.6064 9.3536 6.72848L9.3608 6.75049C9.40317 6.87407 9.45055 7.00077 9.50296 7.13058C9.61912 7.39953 9.74359 7.67093 9.87635 7.94477C10.0091 8.21861 10.1336 8.4849 10.2497 8.74362L10.5982 9.51781C10.7207 9.78854 10.8577 10.0219 11.0168 10.2373L11.0096 10.2273C11.1426 10.372 11.3201 10.4734 11.5193 10.5087L11.5245 10.5094C11.7656 10.5707 11.9687 10.6401 12.1652 10.7221L12.1344 10.7108C12.2281 10.7541 12.3486 10.8001 12.4724 10.8408L12.4986 10.8481C12.6375 10.8915 12.758 10.9488 12.8687 11.0208L12.8628 11.0175C13.0771 11.1395 13.2585 11.2596 13.4314 11.3902L13.4177 11.3802C13.5972 11.5145 13.7767 11.6412 13.9562 11.7603C14.0409 11.8248 14.183 11.9188 14.3826 12.0424C14.5822 12.166 14.6879 12.2816 14.6997 12.3891C14.2983 12.3744 13.8964 12.3938 13.4983 12.4472L13.5349 12.4432C13.2024 12.4874 12.8768 12.5748 12.5661 12.7032L12.5923 12.6939C12.5099 12.7293 12.4249 12.7581 12.3381 12.7799L12.3257 12.7826C12.2805 12.789 12.2387 12.8106 12.2071 12.8442C12.1755 12.8777 12.1559 12.921 12.1514 12.9673C12.192 13.0184 12.2233 13.0769 12.2451 13.1413L12.2464 13.1453C12.2683 13.2125 12.2955 13.2729 12.3283 13.3267L12.3263 13.3227C12.4043 13.4634 12.4881 13.5848 12.5825 13.6968L12.5798 13.6935C12.6724 13.809 12.7764 13.91 12.8917 13.9962L12.8962 13.9995C13.0028 14.0858 13.1137 14.1745 13.229 14.2656C13.3345 14.3496 13.4537 14.4323 13.5775 14.507L13.5933 14.5157C13.7793 14.6317 13.9955 14.7424 14.2208 14.8351L14.2509 14.8457C14.4959 14.9458 14.7062 15.0618 14.9014 15.1998L14.891 15.1925C15.018 15.2676 15.1447 15.351 15.2709 15.4425C15.3971 15.5341 15.5185 15.6228 15.6351 15.7086C15.6832 15.7566 15.7249 15.8097 15.7602 15.868L15.7622 15.8713C15.8225 15.9424 15.9065 15.9882 15.998 16H16V15.968C15.9415 15.9239 15.8991 15.8613 15.8795 15.79L15.8788 15.7873C15.8633 15.7232 15.8386 15.6619 15.8054 15.6052L15.8068 15.6079L15.8094 15.6106ZM3.64068 2.80423C3.55596 2.80423 3.47669 2.80689 3.40289 2.81223C3.33089 2.81705 3.2598 2.83117 3.1913 2.85424L3.19719 2.85224V2.86824H3.22864C3.271 2.9327 3.32428 3.00516 3.38848 3.08563C3.45267 3.16609 3.51076 3.24411 3.56273 3.31968L3.81624 3.85181L3.84768 3.8358C3.92133 3.78161 3.97853 3.70744 4.01276 3.62175L4.01407 3.61842C4.04814 3.52573 4.06779 3.4177 4.06779 3.30568L4.06713 3.26967V3.27167C4.03738 3.2423 4.01338 3.20746 3.99639 3.16898L3.99573 3.16698L3.94267 3.04562C3.90926 2.98989 3.86052 2.94537 3.80248 2.91759L3.80052 2.91692C3.74203 2.88766 3.68816 2.84968 3.64068 2.80423Z" fill="#292929"/>
</svg>
