<svg width="16" height="16" viewBox="0 0 16 16" fill="none" xmlns="http://www.w3.org/2000/svg">
<path d="M7.99642 16C7.75649 16 7.51298 15.9429 7.3017 15.8349L5.09221 14.6761C4.76276 14.511 4.9239 14.4538 5.03133 14.4221C5.4718 14.2855 5.56133 14.257 6.03044 14.0189C6.08057 13.9935 6.14503 14.003 6.19517 14.0316L7.89257 14.9237C7.95345 14.9555 8.03939 14.9555 8.09669 14.9237L14.7108 11.5392C14.7717 11.5075 14.8111 11.444 14.8111 11.3805V4.61157C14.8111 4.5449 14.7717 4.48457 14.7073 4.44965L8.09669 1.06836C8.03581 1.03661 7.95345 1.03661 7.89257 1.06836L1.28559 4.45282C1.22113 4.48457 1.18174 4.54807 1.18174 4.61474V11.3805C1.18174 11.444 1.22113 11.5075 1.28559 11.5361L3.09758 12.4631C4.08236 12.8981 4.68398 12.3869 4.68398 11.8694V5.1894C4.68398 5.09416 4.76992 5.02113 4.87735 5.02113H5.71531C5.81916 5.02113 5.90868 5.09416 5.90868 5.1894V11.8726C5.90868 13.0346 5.19248 13.7014 3.94987 13.7014C3.5667 13.7014 3.26589 13.7014 2.42793 13.3331L0.694718 12.4473C0.264996 12.2282 0 11.8186 0 11.3773V4.61157C0 4.17343 0.264996 3.76069 0.694718 3.54162L7.3017 0.157158C7.72068 -0.0523862 8.27574 -0.0523862 8.69114 0.157158L15.3053 3.5448C15.735 3.76387 16 4.17343 16 4.61474V11.3805C16 11.8186 15.735 12.2282 15.3053 12.4504L8.69114 15.8349C8.47986 15.9429 8.23993 16 7.99642 16ZM13.3357 9.3295C13.3357 8.06271 12.3688 7.72616 10.3384 7.48804C8.2829 7.24675 8.0752 7.12293 8.0752 6.69749C8.0752 6.34507 8.25067 5.87519 9.7726 5.87519C11.1298 5.87519 11.6312 6.13553 11.8389 6.94831C11.8568 7.02451 11.9355 7.08166 12.0251 7.08166H12.8845C12.9382 7.08166 12.9884 7.0626 13.0242 7.02768C13.06 6.99276 13.0779 6.94513 13.0743 6.89751C12.9418 5.49737 11.8926 4.84651 9.7726 4.84651C7.88541 4.84651 6.76097 5.55134 6.76097 6.73559C6.76097 8.01826 7.88183 8.37385 9.69024 8.53259C11.8568 8.71991 12.0251 9.00248 12.0251 9.3803C12.0251 10.0343 11.4306 10.3137 10.0376 10.3137C8.28648 10.3137 7.90331 9.92321 7.7744 9.1517C7.76007 9.06915 7.68129 9.00883 7.5846 9.00883H6.72874C6.62131 9.00883 6.53894 9.08503 6.53894 9.1771C6.53894 10.1645 7.14414 11.3424 10.0412 11.3424C12.1325 11.3392 13.3357 10.6058 13.3357 9.3295Z" fill="#292929"/>
</svg>
