<svg width="16" height="16" viewBox="0 0 16 16" fill="none" xmlns="http://www.w3.org/2000/svg">
<path d="M6.96938 8.70758V8.61964C7.0188 8.49971 7.06822 8.38778 7.12588 8.27585C7.58177 7.34065 7.65822 6.27313 7.34004 5.28569C7.32342 5.14467 7.26225 5.0121 7.16491 4.90617C7.06758 4.80024 6.93885 4.72615 6.79641 4.69406C6.18362 4.65266 5.57582 4.82567 5.08314 5.18176V5.32567C5.13749 5.96781 5.12093 6.61376 5.03372 7.25248C4.98698 7.53917 5.00872 7.83246 5.09726 8.1097C5.18581 8.38694 5.33879 8.64074 5.5444 8.85149C5.69586 9.00789 5.8782 9.13308 6.08056 9.21962C6.28292 9.30615 6.50116 9.35226 6.72227 9.35518C6.79257 9.13516 6.87506 8.91897 6.96938 8.70758ZM6.35985 5.26171C6.31357 5.21082 6.28732 5.14569 6.28572 5.07782C6.29667 5.03772 6.32325 5.00332 6.35985 4.98188C6.48142 4.92064 6.6207 4.90092 6.75522 4.92592C6.96114 4.92592 7.16707 5.05384 7.15059 5.19775C7.11985 5.27694 7.06447 5.34489 6.99215 5.39217C6.91983 5.43944 6.83415 5.4637 6.74698 5.46159H6.69756C6.56222 5.44085 6.44082 5.369 6.35985 5.26171Z" fill="#292929"/>
<path d="M4.61363 7.19652C4.68785 6.58631 4.70439 5.97079 4.66305 5.35765V5.13379C4.63059 3.81393 5.07989 2.52543 5.93153 1.49603C5.10785 1.24019 3.131 0.696525 1.92018 1.57598C1.17886 2.08767 0.832908 3.04708 0.90704 4.41423C1.0718 5.60854 1.34748 6.78595 1.73073 7.93206C2.29084 9.70697 2.92507 10.8263 3.46871 11.0102C3.55108 11.0102 3.80642 11.1141 4.17708 10.6824C4.70424 10.0747 5.19022 9.55506 5.41261 9.3232L5.25611 9.1713C4.99812 8.91334 4.80571 8.60051 4.69418 8.25768C4.58264 7.91486 4.55506 7.5515 4.61363 7.19652ZM7.49654 9.91484C7.36475 9.86687 7.29885 9.83489 7.15059 10.0028C7.06238 10.0888 6.98243 10.1825 6.91172 10.2826C6.62343 10.6264 6.49988 10.7463 5.66795 10.9142C5.55528 10.9324 5.44487 10.9618 5.33848 11.0022C5.43007 11.0644 5.53376 11.108 5.64324 11.1301C6.01184 11.2511 6.41068 11.2543 6.78128 11.1392C7.15188 11.0241 7.47472 10.7967 7.70246 10.4905C7.72374 10.4467 7.73477 10.399 7.73477 10.3506C7.73477 10.3022 7.72374 10.2544 7.70246 10.2107C7.67559 10.09 7.60183 9.98406 7.49654 9.91484ZM12.6775 5.26171C12.7167 5.0532 12.7387 4.842 12.7434 4.6301C12.1998 4.56614 11.5738 4.57413 11.3267 4.91792C10.8489 5.58151 11.788 7.2205 12.1504 7.91607C12.2307 8.03911 12.3022 8.16733 12.3645 8.29984C12.3983 8.38575 12.4396 8.46867 12.4881 8.54768C12.7035 8.00495 12.7494 7.41261 12.6199 6.84473C12.5804 6.56656 12.5612 6.28604 12.5622 6.00525C12.5806 5.75486 12.6191 5.50625 12.6775 5.26171ZM12.2163 5.13379C12.1449 5.20438 12.0529 5.25185 11.9527 5.2697H11.9033C11.825 5.27 11.7484 5.24723 11.6837 5.20441C11.619 5.16159 11.5692 5.10072 11.5408 5.02985C11.5408 4.91792 11.7056 4.83797 11.9033 4.80599C12.101 4.77401 12.2986 4.80599 12.3151 4.92592C12.3114 5.00507 12.2759 5.07966 12.2163 5.13379Z" fill="#292929"/>
<path d="M12.1257 2.30353C12.6683 2.88922 13.0556 3.5945 13.2541 4.35827C13.2585 4.39813 13.2585 4.43833 13.2541 4.47819C13.2567 4.76231 13.2319 5.04604 13.18 5.32567C13.1407 5.55316 13.1159 5.78279 13.1059 6.01325C13.1042 6.28078 13.1234 6.54805 13.1635 6.81275C13.3299 7.54636 13.2249 8.31341 12.867 8.97941L12.9246 9.04338C14.7532 6.2531 15.3957 3.01509 14.8109 2.30353C14.4363 1.8464 13.9585 1.47889 13.4144 1.22938C12.8702 0.979862 12.2743 0.854999 11.6726 0.864421C11.2216 0.858041 10.7712 0.900952 10.33 0.992343C11.0214 1.29459 11.6348 1.74249 12.1257 2.30353Z" fill="#292929"/>
<path d="M15.9558 9.59503C15.8982 9.43513 15.651 8.91545 14.745 9.09934C14.4739 9.15636 14.1984 9.19113 13.9213 9.20328C14.6653 7.98282 15.236 6.67043 15.6181 5.30168C15.9229 4.1424 16.1617 2.59136 15.5275 1.79984C15.0617 1.22627 14.4652 0.765326 13.7849 0.453204C13.1046 0.141081 12.359 -0.0137209 11.6067 0.000954004C10.9208 -0.00378681 10.2379 0.0905204 9.58047 0.280781C9.18594 0.213539 8.78662 0.176117 8.38612 0.16885C7.67712 0.154707 6.97725 0.325918 6.35985 0.664545C5.88377 0.511554 5.39639 0.393954 4.90192 0.312762C4.31459 0.167409 3.70298 0.139229 3.1041 0.229928C2.50522 0.320627 1.93152 0.528319 1.41773 0.840436C0.396354 1.53601 -0.0731484 2.75126 0.00922038 4.45421C0.166555 5.72044 0.442253 6.97016 0.832908 8.1879C1.06641 8.94941 1.3725 9.68815 1.7472 10.3945C2.01569 11.0442 2.53202 11.5683 3.18865 11.8576C3.42682 11.9329 3.68137 11.9452 3.92605 11.8932C4.17074 11.8412 4.39671 11.7268 4.58069 11.5618C4.80115 11.7947 5.0878 11.9588 5.40437 12.0335C6.04462 12.2048 6.72526 12.1654 7.34004 11.9216V12.5692C7.33356 13.2067 7.41951 13.8418 7.59538 14.456C7.5977 14.4906 7.5977 14.5254 7.59538 14.56C7.70521 14.9313 7.90584 15.2714 8.1802 15.5514C8.51196 15.8527 8.95342 16.0137 9.40749 15.9991C9.60161 15.9998 9.79514 15.9784 9.98408 15.9351C10.3421 15.8928 10.6877 15.7811 11.0004 15.6067C11.3131 15.4323 11.5865 15.1987 11.8044 14.9198C12.3623 13.9446 12.6223 12.8352 12.554 11.7217V11.5139H12.694C13.3697 11.5593 14.0469 11.4497 14.6709 11.194C15.0415 11.0102 16.2441 10.3945 15.9558 9.59503ZM14.4649 10.7703C13.9939 10.9544 13.4901 11.0468 12.9823 11.0421C12.7625 11.0481 12.543 11.0211 12.3316 10.9622C12.2492 11.7137 12.068 13.1129 11.9609 13.6965C11.9293 14.1674 11.725 14.6117 11.3851 14.949C11.0451 15.2863 10.5919 15.4943 10.1076 15.5354C9.92891 15.5723 9.74672 15.591 9.564 15.5913C9.20537 15.5832 8.85928 15.4617 8.5783 15.2452C8.29732 15.0288 8.09681 14.7292 8.00723 14.3921C7.79512 13.3231 7.71767 12.2332 7.77659 11.1461C7.37561 11.4979 6.85076 11.6868 6.31043 11.6738C6.04901 11.6691 5.78909 11.6342 5.53616 11.5698C5.46203 11.5698 4.81956 11.3859 4.82779 10.9862C4.83603 10.5864 5.37143 10.5145 5.56911 10.4745C6.27748 10.3306 6.3269 10.2746 6.5493 10.0028C6.59807 9.93628 6.6503 9.87224 6.7058 9.8109C6.38624 9.79928 6.07359 9.71726 5.79151 9.57105C5.60206 9.77093 5.08314 10.3146 4.52303 10.9622C4.42123 11.1091 4.28565 11.2311 4.12699 11.3185C3.96832 11.4059 3.79091 11.4564 3.60873 11.4659C3.51315 11.4796 3.41602 11.4796 3.32044 11.4659C2.5956 11.194 1.91194 10.0348 1.28594 7.99602C0.896319 6.81616 0.62057 5.60368 0.462249 4.37426C0.37988 2.8392 0.791723 1.75187 1.67307 1.17623C3.25455 0.0888998 5.79151 0.928382 6.36809 1.12826C6.95475 0.751125 7.6504 0.566207 8.35318 0.600584C8.74228 0.601152 9.12974 0.649507 9.50634 0.744495C10.1691 0.525397 10.8654 0.417256 11.5656 0.424693C12.2456 0.406544 12.9207 0.54146 13.538 0.818874C14.1554 1.09629 14.6982 1.50867 15.1239 2.02371C15.6922 2.72727 15.3133 4.42223 15.1239 5.13379C14.7018 6.66831 14.0318 8.1282 13.1388 9.45912C13.2706 9.54706 13.6742 9.70697 14.7862 9.45912C15.1651 9.37917 15.3875 9.45912 15.4616 9.65899C15.6428 10.0987 14.885 10.5624 14.4649 10.7543V10.7703Z" fill="#292929"/>
<path d="M12.4799 9.26724C12.27 9.02663 12.0979 8.75721 11.9692 8.46773C11.9692 8.41177 11.8703 8.27585 11.7797 8.12394C11.302 7.32444 10.3053 5.54953 10.956 4.65408C11.1751 4.42798 11.4529 4.26336 11.7602 4.17754C12.0674 4.09172 12.3929 4.08786 12.7022 4.16639C12.4902 3.59945 12.1749 3.07409 11.7715 2.61534C11.3598 2.12311 10.8417 1.72472 10.2539 1.4484C9.66602 1.17208 9.02276 1.02457 8.36965 1.01633C7.98424 0.992747 7.59803 1.04819 7.23614 1.17905C6.87426 1.30991 6.54482 1.51326 6.26925 1.77586C5.56793 2.5778 5.16725 3.58673 5.13256 4.63809L5.25611 4.57413C5.59857 4.39484 5.97323 4.28086 6.35985 4.23834C6.51985 4.20237 6.68577 4.19881 6.84724 4.2279C7.00872 4.25698 7.16228 4.31807 7.29833 4.40736C7.43438 4.49665 7.55 4.61221 7.63796 4.74683C7.72592 4.88145 7.78433 5.03223 7.80954 5.18975C8.14818 6.27103 8.06311 7.43565 7.57067 8.45974C7.51645 8.56033 7.46966 8.66452 7.43065 8.77155V8.85949C7.34828 9.07536 7.27415 9.27523 7.22472 9.44313C7.38341 9.41379 7.54757 9.43336 7.69423 9.4991C7.81812 9.55634 7.92787 9.63881 8.01599 9.7409C8.10411 9.84299 8.16855 9.96231 8.20491 10.0907V10.2187C8.20864 10.2425 8.20864 10.2668 8.20491 10.2906C8.11605 11.599 8.17682 12.9128 8.38612 14.2082C8.42321 14.3774 8.49758 14.5368 8.60412 14.6755C8.71066 14.8142 8.84685 14.9289 9.00335 15.0116C9.15984 15.0944 9.33293 15.1434 9.51075 15.1551C9.68857 15.1668 9.86689 15.1411 10.0335 15.0797C10.4257 15.054 10.794 14.8874 11.0666 14.6125C11.3392 14.3376 11.4965 13.974 11.5079 13.5926C11.6315 12.889 11.8786 10.9142 11.9115 10.4905C11.9115 9.64301 12.3398 9.47511 12.6034 9.40316L12.4799 9.26724Z" fill="#292929"/>
<path d="M12.9494 9.85887L12.8835 9.8109H12.7846C12.5705 9.86687 12.3728 9.92283 12.3975 10.4505C12.6406 10.5441 12.9039 10.5771 13.1635 10.5464C13.553 10.5304 13.937 10.4521 14.3002 10.3146C14.5384 10.2103 14.758 10.07 14.9509 9.89885C14.3006 10.1202 13.5898 10.106 12.9494 9.85887Z" fill="#292929"/>
</svg>
