<svg width="16" height="16" viewBox="0 0 16 16" fill="none" xmlns="http://www.w3.org/2000/svg">
<path fill-rule="evenodd" clip-rule="evenodd" d="M5.53851 10.9609H4.40139V4.77315C4.8115 4.69871 5.38005 4.64288 6.15367 4.64288C6.99252 4.64288 7.60769 4.81967 8.00932 5.15465C8.38215 5.46171 8.62364 5.95487 8.62364 6.54108C8.62364 7.1366 8.43722 7.62976 8.08304 7.96473C7.62633 8.42067 6.90864 8.63469 6.09774 8.63469C5.88337 8.63469 5.68764 8.62538 5.53851 8.59747V10.9609ZM6.20027 5.51754C5.88337 5.51754 5.65967 5.54546 5.53935 5.57337V7.69489C5.67832 7.73211 5.86473 7.74142 6.09859 7.74142C6.95524 7.74142 7.4772 7.32269 7.4772 6.58761C7.4772 5.88974 6.99253 5.51754 6.20027 5.51754Z" fill="#292929"/>
<path d="M10.0887 11.0633C9.5379 11.0633 9.04476 10.9237 8.70922 10.7376L8.93291 9.90946C9.19389 10.0676 9.68703 10.2351 10.098 10.2351C10.6013 10.2351 10.825 10.0304 10.825 9.73267C10.825 9.4256 10.6386 9.26742 10.0793 9.07202C9.19389 8.76495 8.82106 8.2811 8.83038 7.75072C8.83038 6.9505 9.4913 6.32707 10.5454 6.32707C11.0487 6.32707 11.4859 6.45734 11.7477 6.59691L11.524 7.40644C11.2306 7.24158 10.9007 7.15206 10.564 7.1459C10.1539 7.1459 9.93022 7.3413 9.93022 7.62045C9.93022 7.9089 10.1446 8.04848 10.7225 8.25318C11.5427 8.55094 11.9248 8.96966 11.9342 9.63962C11.9342 10.4584 11.2902 11.0633 10.0887 11.0633Z" fill="#292929"/>
<path fill-rule="evenodd" clip-rule="evenodd" d="M12.4553 0.245888C9.49416 -0.0819627 6.50584 -0.0819627 3.54474 0.245888C1.83991 0.436216 0.462998 1.77697 0.263028 3.48738C-0.0876759 6.48578 -0.0876759 9.51474 0.263028 12.5131C0.462998 14.2235 1.83906 15.5643 3.54474 15.7546C6.50587 16.0818 9.49413 16.0818 12.4553 15.7546C14.1601 15.5643 15.537 14.2235 15.737 12.5131C16.0877 9.51474 16.0877 6.48578 15.737 3.48738C15.537 1.77697 14.1609 0.436216 12.4553 0.245888ZM3.68539 1.50628C6.55301 1.18882 9.44699 1.18882 12.3146 1.50628C13.4416 1.63317 14.344 2.52052 14.4753 3.63541C14.8152 6.53542 14.8152 9.4651 14.4753 12.3651C14.4074 12.9107 14.1572 13.4176 13.7651 13.8038C13.373 14.1899 12.862 14.4329 12.3146 14.4934C9.44699 14.8109 6.55301 14.8109 3.68539 14.4934C3.13797 14.4329 2.62695 14.1899 2.2349 13.8038C1.84284 13.4176 1.59264 12.9107 1.5247 12.3651C1.1848 9.4651 1.1848 6.53542 1.5247 3.63541C1.59264 3.08977 1.84284 2.58292 2.2349 2.19675C2.62695 1.81057 3.13797 1.56677 3.68539 1.50628Z" fill="#292929"/>
</svg>
