<svg width="17" height="17" viewBox="0 0 17 17" fill="none" xmlns="http://www.w3.org/2000/svg">
<path d="M5.48105 6.81579C5.40387 6.59748 5.26817 6.40459 5.08877 6.25819C4.90937 6.1118 4.69319 6.01753 4.46384 5.98569C4.23449 5.95384 4.0008 5.98566 3.78831 6.07765C3.57582 6.16964 3.3927 6.31826 3.25896 6.50729C3.12523 6.69631 3.04602 6.91846 3.03 7.14945C3.01399 7.38045 3.06177 7.6114 3.16813 7.81708C3.27449 8.02275 3.43534 8.19523 3.6331 8.31567C3.83086 8.43611 4.05792 8.49988 4.28947 8.5C4.52102 8.50012 4.74808 8.56389 4.94584 8.68433C5.1436 8.80477 5.30445 8.97725 5.41082 9.18292C5.51718 9.3886 5.56496 9.61955 5.54894 9.85055C5.53292 10.0815 5.45372 10.3037 5.31998 10.4927C5.18625 10.6817 5.00313 10.8304 4.79064 10.9224C4.57815 11.0143 4.34446 11.0462 4.11511 11.0143C3.88576 10.9825 3.66957 10.8882 3.49018 10.7418C3.31078 10.5954 3.17508 10.4025 3.09789 10.1842M8.92105 11.0263C8.58604 11.0263 8.26475 10.8932 8.02786 10.6563C7.79098 10.4195 7.65789 10.0982 7.65789 9.76316V7.23684C7.65789 6.90183 7.79098 6.58054 8.02786 6.34365C8.26475 6.10677 8.58604 5.97368 8.92105 5.97368C9.25606 5.97368 9.57735 6.10677 9.81424 6.34365C10.0511 6.58054 10.1842 6.90183 10.1842 7.23684V9.76316C10.1842 10.0982 10.0511 10.4195 9.81424 10.6563C9.57735 10.8932 9.25606 11.0263 8.92105 11.0263ZM8.92105 11.0263L10.1842 12.2895M12.2895 5.97368V9.34211C12.2895 10.1362 12.2895 10.5328 12.5362 10.7796C12.7829 11.0263 13.1796 11.0263 13.9737 11.0263M0.5 8.5C0.5 4.72905 0.5 2.84274 1.67137 1.67137C2.84274 0.5 4.72821 0.5 8.5 0.5C12.2709 0.5 14.1573 0.5 15.3286 1.67137C16.5 2.84274 16.5 4.72821 16.5 8.5C16.5 12.2709 16.5 14.1573 15.3286 15.3286C14.1573 16.5 12.2718 16.5 8.5 16.5C4.72905 16.5 2.84274 16.5 1.67137 15.3286C0.5 14.1573 0.5 12.2718 0.5 8.5Z" stroke="#292929" stroke-linecap="round"/>
</svg>
