<svg width="16" height="10" viewBox="0 0 16 10" fill="none" xmlns="http://www.w3.org/2000/svg">
<path d="M4 3.20834C4.53319 1.06959 5.86681 0 8 0C11.2 0 11.6 2.40625 13.2 2.80728C14.2668 3.07478 15.2 2.67375 16 1.60416C15.4668 3.74291 14.1332 4.8125 12 4.8125C8.8 4.8125 8.4 2.40625 6.8 2.00522C5.73319 1.73772 4.8 2.13875 4 3.20834ZM0 8.02084C0.533188 5.88209 1.86681 4.8125 4 4.8125C7.2 4.8125 7.6 7.21875 9.2 7.61978C10.2668 7.88728 11.2 7.48625 12 6.41666C11.4668 8.55541 10.1332 9.625 8 9.625C4.8 9.625 4.4 7.21875 2.8 6.81772C1.73319 6.55022 0.8 6.95125 0 8.02084Z" fill="#292929"/>
</svg>
