<svg width="18" height="18" viewBox="0 0 18 18" fill="none" xmlns="http://www.w3.org/2000/svg">
<path d="M17.6 8.8C17.6 3.93992 13.6601 0 8.8 0C3.93992 0 0 3.93992 0 8.8C0 13.1923 3.21805 16.833 7.425 17.4931V11.3438H5.19063V8.8H7.425V6.86125C7.425 4.65575 8.73881 3.4375 10.7489 3.4375C11.7117 3.4375 12.7188 3.60938 12.7188 3.60938V5.775H11.6091C10.5159 5.775 10.175 6.45336 10.175 7.14931V8.8H12.6156L12.2255 11.3438H10.175V17.4931C14.382 16.833 17.6 13.1924 17.6 8.8Z" fill="#252EDD"/>
<path d="M12.2255 11.3438L12.6156 8.8H10.175V7.14931C10.175 6.45336 10.5159 5.775 11.6091 5.775H12.7188V3.60938C12.7188 3.60938 11.7117 3.4375 10.7489 3.4375C8.73881 3.4375 7.425 4.65575 7.425 6.86125V8.8H5.19063V11.3438H7.425V17.4931C7.87986 17.5644 8.33959 17.6001 8.8 17.6C9.26041 17.6001 9.72014 17.5644 10.175 17.4931V11.3438H12.2255Z" fill="white"/>
</svg>
