<svg width="18" height="18" viewBox="0 0 18 18" fill="none" xmlns="http://www.w3.org/2000/svg">
<path d="M13.475 0H4.125C1.84683 0 0 1.84683 0 4.125V13.475C0 15.7532 1.84683 17.6 4.125 17.6H13.475C15.7532 17.6 17.6 15.7532 17.6 13.475V4.125C17.6 1.84683 15.7532 0 13.475 0Z" fill="#252EDD"/>
<path d="M13.475 0H4.125C1.84683 0 0 1.84683 0 4.125V13.475C0 15.7532 1.84683 17.6 4.125 17.6H13.475C15.7532 17.6 17.6 15.7532 17.6 13.475V4.125C17.6 1.84683 15.7532 0 13.475 0Z" fill="#252EDD"/>
<path d="M8.80062 2.2C6.93351 2.2 6.69914 2.20818 5.96585 2.24153C5.23394 2.27507 4.73433 2.39092 4.29722 2.56094C3.84498 2.73653 3.46143 2.97144 3.07931 3.35369C2.69686 3.73587 2.46194 4.11943 2.2858 4.57146C2.1153 5.00871 1.99932 5.50852 1.96639 6.24009C1.93359 6.97345 1.925 7.20789 1.925 9.07507C1.925 10.9423 1.93325 11.1759 1.96653 11.9092C2.00021 12.6411 2.11606 13.1407 2.28594 13.5778C2.46166 14.03 2.69658 14.4136 3.07883 14.7957C3.46088 15.1781 3.84443 15.4136 4.29633 15.5892C4.73378 15.7592 5.23346 15.8751 5.96523 15.9086C6.69859 15.942 6.93275 15.9501 8.79979 15.9501C10.6671 15.9501 10.9007 15.942 11.634 15.9086C12.3659 15.8751 12.8661 15.7592 13.3035 15.5892C13.7556 15.4136 14.1386 15.1781 14.5205 14.7957C14.903 14.4136 15.1379 14.03 15.3141 13.578C15.4831 13.1407 15.5991 12.6409 15.6335 11.9093C15.6664 11.176 15.675 10.9423 15.675 9.07507C15.675 7.20789 15.6664 6.97359 15.6335 6.24023C15.5991 5.50832 15.4831 5.00878 15.3141 4.57167C15.1379 4.11943 14.903 3.73587 14.5205 3.35369C14.1382 2.97131 13.7557 2.73639 13.3031 2.56101C12.8648 2.39092 12.365 2.27501 11.633 2.24153C10.8997 2.20818 10.6662 2.2 8.79849 2.2H8.80062ZM8.18386 3.43894C8.36694 3.43867 8.5712 3.43894 8.80062 3.43894C10.6363 3.43894 10.8538 3.44554 11.5787 3.47848C12.2491 3.50914 12.6129 3.62113 12.8552 3.71525C13.1761 3.83983 13.4048 3.98881 13.6453 4.2295C13.8859 4.47013 14.0348 4.69927 14.1598 5.02012C14.2539 5.26213 14.366 5.62595 14.3965 6.29626C14.4295 7.02103 14.4366 7.23869 14.4366 9.07349C14.4366 10.9083 14.4295 11.126 14.3965 11.8507C14.3659 12.521 14.2539 12.8849 14.1598 13.1269C14.0352 13.4478 13.8859 13.6762 13.6453 13.9167C13.4047 14.1573 13.1762 14.3063 12.8552 14.4309C12.6132 14.5254 12.2491 14.6372 11.5787 14.6678C10.854 14.7007 10.6363 14.7079 8.80062 14.7079C6.96486 14.7079 6.74726 14.7007 6.02257 14.6678C5.35226 14.6369 4.98843 14.5249 4.74588 14.4308C4.42509 14.3061 4.19588 14.1572 3.95526 13.9166C3.71463 13.676 3.56572 13.4474 3.4408 13.1264C3.34668 12.8843 3.23455 12.5205 3.20403 11.8502C3.17109 11.1254 3.16449 10.9077 3.16449 9.07177C3.16449 7.2358 3.17109 7.01931 3.20403 6.29454C3.23469 5.62423 3.34668 5.26041 3.4408 5.01806C3.56544 4.69721 3.71463 4.46806 3.95533 4.22744C4.19602 3.98681 4.42509 3.83783 4.74595 3.71298C4.98829 3.61845 5.35226 3.50673 6.02257 3.47593C6.65679 3.44726 6.90257 3.43867 8.18386 3.43722V3.43894ZM12.4705 4.58047C12.015 4.58047 11.6455 4.94966 11.6455 5.40519C11.6455 5.86066 12.015 6.23019 12.4705 6.23019C12.926 6.23019 13.2955 5.86066 13.2955 5.40519C13.2955 4.94973 12.926 4.58047 12.4705 4.58047ZM8.80062 5.54441C6.85087 5.54441 5.27003 7.12525 5.27003 9.07507C5.27003 11.0249 6.85087 12.605 8.80062 12.605C10.7504 12.605 12.3307 11.0249 12.3307 9.07507C12.3307 7.12532 10.7504 5.54441 8.80062 5.54441ZM8.80062 6.78336C10.0662 6.78336 11.0923 7.80931 11.0923 9.07507C11.0923 10.3407 10.0662 11.3668 8.80062 11.3668C7.535 11.3668 6.50898 10.3407 6.50898 9.07507C6.50898 7.80931 7.53493 6.78336 8.80062 6.78336Z" fill="white"/>
</svg>
