<svg width="16" height="16" viewBox="0 0 16 16" fill="none" xmlns="http://www.w3.org/2000/svg">
<path d="M12.25 0H3.75C1.67893 0 0 1.67893 0 3.75V12.25C0 14.3211 1.67893 16 3.75 16H12.25C14.3211 16 16 14.3211 16 12.25V3.75C16 1.67893 14.3211 0 12.25 0Z" fill="white"/>
<path d="M12.25 0H3.75C1.67893 0 0 1.67893 0 3.75V12.25C0 14.3211 1.67893 16 3.75 16H12.25C14.3211 16 16 14.3211 16 12.25V3.75C16 1.67893 14.3211 0 12.25 0Z" fill="#666666"/>
<path d="M12.25 0H3.75C1.67893 0 0 1.67893 0 3.75V12.25C0 14.3211 1.67893 16 3.75 16H12.25C14.3211 16 16 14.3211 16 12.25V3.75C16 1.67893 14.3211 0 12.25 0Z" fill="black" fill-opacity="0.2"/>
<path d="M11.5447 13.2303H13.3741C13.4404 13.2303 13.5039 13.204 13.5508 13.1571C13.5977 13.1102 13.624 13.0467 13.6241 12.9804L13.625 9.11525C13.625 7.09506 13.1897 5.54225 10.8289 5.54225C9.93144 5.50888 9.08512 5.9715 8.62844 6.744C8.6262 6.74775 8.62281 6.75067 8.61876 6.75231C8.61471 6.75395 8.61024 6.75422 8.60603 6.75308C8.60181 6.75194 8.59809 6.74945 8.59542 6.74599C8.59275 6.74254 8.59129 6.7383 8.59125 6.73394V5.97875C8.59125 5.91245 8.56491 5.84886 8.51803 5.80197C8.47114 5.75509 8.40755 5.72875 8.34125 5.72875H6.60519C6.53888 5.72875 6.4753 5.75509 6.42841 5.80197C6.38153 5.84886 6.35519 5.91245 6.35519 5.97875V12.98C6.35519 13.0463 6.38153 13.1099 6.42841 13.1568C6.4753 13.2037 6.53888 13.23 6.60519 13.23H8.43444C8.50074 13.23 8.56433 13.2037 8.61121 13.1568C8.6581 13.1099 8.68444 13.0463 8.68444 12.98V9.51919C8.68444 8.54063 8.87006 7.59294 10.0833 7.59294C11.2792 7.59294 11.2947 8.71269 11.2947 9.58256V12.9803C11.2947 13.0466 11.321 13.1102 11.3679 13.1571C11.4148 13.204 11.4784 13.2303 11.5447 13.2303ZM2.375 3.35175C2.375 4.09325 2.98544 4.70337 3.727 4.70337C4.46838 4.70331 5.07844 4.09281 5.07844 3.35144C5.07831 2.61006 4.46819 2 3.72675 2C2.98512 2 2.375 2.61025 2.375 3.35175ZM2.80994 13.2303H4.64162C4.70793 13.2303 4.77152 13.204 4.8184 13.1571C4.86529 13.1102 4.89162 13.0466 4.89162 12.9803V5.97875C4.89162 5.91245 4.86529 5.84886 4.8184 5.80197C4.77152 5.75509 4.70793 5.72875 4.64162 5.72875H2.80994C2.74363 5.72875 2.68004 5.75509 2.63316 5.80197C2.58628 5.84886 2.55994 5.91245 2.55994 5.97875V12.9803C2.55994 13.0466 2.58628 13.1102 2.63316 13.1571C2.68004 13.204 2.74363 13.2303 2.80994 13.2303Z" fill="white"/>
</svg>
