<svg width="18" height="18" viewBox="0 0 18 18" fill="none" xmlns="http://www.w3.org/2000/svg">
<path d="M13.475 0H4.125C1.84683 0 0 1.84683 0 4.125V13.475C0 15.7532 1.84683 17.6 4.125 17.6H13.475C15.7532 17.6 17.6 15.7532 17.6 13.475V4.125C17.6 1.84683 15.7532 0 13.475 0Z" fill="white"/>
<path d="M13.475 0H4.125C1.84683 0 0 1.84683 0 4.125V13.475C0 15.7532 1.84683 17.6 4.125 17.6H13.475C15.7532 17.6 17.6 15.7532 17.6 13.475V4.125C17.6 1.84683 15.7532 0 13.475 0Z" fill="#252EDD"/>
<path d="M12.6992 14.5533H14.7115C14.7844 14.5533 14.8543 14.5244 14.9059 14.4728C14.9575 14.4213 14.9865 14.3513 14.9865 14.2784L14.9875 10.0268C14.9875 7.80457 14.5087 6.09648 11.9118 6.09648C10.9246 6.05976 9.99364 6.56865 9.49128 7.4184C9.48882 7.42253 9.48509 7.42574 9.48064 7.42754C9.47618 7.42935 9.47126 7.42964 9.46663 7.42839C9.46199 7.42713 9.45789 7.4244 9.45496 7.42059C9.45202 7.41679 9.45041 7.41213 9.45038 7.40733V6.57663C9.45038 6.50369 9.4214 6.43374 9.36983 6.38217C9.31826 6.3306 9.24831 6.30163 9.17538 6.30163H7.26571C7.19277 6.30163 7.12282 6.3306 7.07125 6.38217C7.01968 6.43374 6.99071 6.50369 6.99071 6.57663V14.278C6.99071 14.3509 7.01968 14.4209 7.07125 14.4725C7.12282 14.524 7.19277 14.553 7.26571 14.553H9.27788C9.35082 14.553 9.42076 14.524 9.47234 14.4725C9.52391 14.4209 9.55288 14.3509 9.55288 14.278V10.4711C9.55288 9.39469 9.75707 8.35223 11.0916 8.35223C12.4071 8.35223 12.4242 9.58396 12.4242 10.5408V14.2783C12.4242 14.3513 12.4531 14.4212 12.5047 14.4728C12.5563 14.5244 12.6262 14.5533 12.6992 14.5533ZM2.6125 3.68692C2.6125 4.50257 3.28398 5.17371 4.0997 5.17371C4.91521 5.17364 5.58628 4.50209 5.58628 3.68658C5.58614 2.87107 4.91501 2.2 4.09942 2.2C3.28364 2.2 2.6125 2.87127 2.6125 3.68692ZM3.09093 14.5533H5.10579C5.17872 14.5533 5.24867 14.5244 5.30024 14.4728C5.35181 14.4212 5.38079 14.3513 5.38079 14.2783V6.57663C5.38079 6.50369 5.35181 6.43374 5.30024 6.38217C5.24867 6.3306 5.17872 6.30163 5.10579 6.30163H3.09093C3.018 6.30163 2.94805 6.3306 2.89648 6.38217C2.8449 6.43374 2.81593 6.50369 2.81593 6.57663V14.2783C2.81593 14.3513 2.8449 14.4212 2.89648 14.4728C2.94805 14.5244 3.018 14.5533 3.09093 14.5533Z" fill="white"/>
</svg>
