<svg width="18" height="18" viewBox="0 0 18 18" fill="none" xmlns="http://www.w3.org/2000/svg">
<path d="M13.2 0H4.4C3.23305 0 2.11389 0.46357 1.28873 1.28873C0.46357 2.11389 0 3.23305 0 4.4V13.2C0 14.367 0.46357 15.4861 1.28873 16.3113C2.11389 17.1364 3.23305 17.6 4.4 17.6H13.2C14.367 17.6 15.4861 17.1364 16.3113 16.3113C17.1364 15.4861 17.6 14.367 17.6 13.2V4.4C17.6 3.23305 17.1364 2.11389 16.3113 1.28873C15.4861 0.46357 14.367 0 13.2 0ZM4.8576 11.0264C4.99631 11.4895 5.21037 11.9265 5.4912 12.32C5.89209 12.8738 6.44555 13.2988 7.084 13.5432C7.47736 13.6893 7.8892 13.7843 8.3072 13.8248C8.71787 13.8647 9.12853 13.8647 9.5392 13.8248C10.0175 13.7874 10.4853 13.6652 10.9208 13.464C11.413 13.2237 11.8344 12.8598 12.144 12.408C12.3299 12.1424 12.4527 11.8378 12.503 11.5176C12.5533 11.1973 12.5298 10.8698 12.4344 10.56C12.3182 10.1682 12.0693 9.82911 11.7304 9.6008L11.5544 9.4776C11.5544 9.5568 11.5544 9.6272 11.5104 9.6976C11.4488 10.0936 11.3168 10.4738 11.1232 10.824C10.9518 11.1377 10.71 11.4074 10.4169 11.612C10.1237 11.8166 9.78717 11.9505 9.4336 12.0032C8.96844 12.0943 8.48807 12.0701 8.0344 11.9328C7.65806 11.829 7.3153 11.6288 7.04 11.352C6.73821 11.0449 6.54905 10.6449 6.5032 10.2168C6.45912 9.8545 6.51835 9.48713 6.67405 9.15704C6.82975 8.82695 7.07558 8.5476 7.3832 8.3512C7.70323 8.13907 8.06216 7.99251 8.4392 7.92C8.81232 7.8584 9.18779 7.832 9.5656 7.8408C9.8603 7.84875 10.1542 7.8752 10.4456 7.92H10.4984C10.4594 7.67919 10.379 7.44696 10.2608 7.2336C10.1757 7.0912 10.0622 6.96776 9.92752 6.8709C9.79282 6.77403 9.6397 6.7058 9.4776 6.6704C9.09052 6.55157 8.67669 6.55157 8.2896 6.6704C8.01063 6.76906 7.7682 6.95012 7.5944 7.1896V7.2512L6.7144 6.644V6.5824C7.08109 6.05086 7.63928 5.68188 8.272 5.5528C8.81163 5.43513 9.37254 5.45939 9.9 5.6232C10.1957 5.71375 10.4696 5.86447 10.7043 6.06588C10.939 6.26729 11.1296 6.51505 11.264 6.7936C11.4189 7.10952 11.5236 7.44832 11.572 7.7968C11.5966 7.94821 11.6113 8.10107 11.616 8.2544L11.88 8.3776C12.2927 8.59676 12.6577 8.89591 12.9536 9.2576C13.2581 9.63336 13.4578 10.0822 13.5344 10.56C13.5969 10.8486 13.618 11.1452 13.596 11.44C13.551 12.1727 13.263 12.8694 12.7776 13.42C12.164 14.1454 11.3293 14.6493 10.4016 14.8544C9.99325 14.941 9.57802 14.991 9.1608 15.004C8.78183 15.0199 8.4022 15.0052 8.0256 14.96C7.41468 14.8887 6.81989 14.7162 6.2656 14.4496C5.5512 14.0876 4.94431 13.5444 4.5056 12.8744C4.18134 12.3686 3.93511 11.8168 3.7752 11.2376C3.65728 10.8011 3.57221 10.3582 3.52 9.9088V8.8C3.52 8.4304 3.52 8.0608 3.5816 7.6912C3.61783 7.27311 3.68549 6.85833 3.784 6.4504C3.91829 5.93647 4.12575 5.44451 4.4 4.9896C4.95034 4.0094 5.84848 3.27141 6.9168 2.9216C7.30025 2.79127 7.69503 2.69699 8.096 2.64C8.59891 2.58272 9.10669 2.58272 9.6096 2.64C10.2172 2.69619 10.8116 2.85073 11.3696 3.0976C12.1745 3.45263 12.8592 4.03341 13.3408 4.7696C13.6791 5.30066 13.9287 5.8832 14.08 6.4944L13.0416 6.776V6.7056C12.9244 6.2889 12.7528 5.88946 12.5312 5.5176C12.08 4.78457 11.3804 4.23805 10.56 3.9776C10.1281 3.83104 9.67793 3.74516 9.2224 3.7224C8.88564 3.69464 8.54716 3.69464 8.2104 3.7224C7.69062 3.7733 7.18405 3.91633 6.7144 4.1448C6.10742 4.46178 5.6082 4.95181 5.28 5.5528C5.0532 5.96468 4.88441 6.40592 4.7784 6.864C4.68594 7.23673 4.62414 7.61639 4.5936 7.9992C4.57066 8.36551 4.57066 8.73289 4.5936 9.0992C4.59833 9.75028 4.68707 10.398 4.8576 11.0264Z" fill="#252EDD"/>
<path d="M10.3999 9.31172C10.3805 9.68132 10.2969 10.0448 10.1535 10.3853C10.0362 10.6449 9.84285 10.8627 9.59911 11.0101C9.43543 11.0981 9.25591 11.1553 9.07111 11.1773C8.80377 11.2295 8.52885 11.2295 8.26151 11.1773C8.08638 11.13 7.92203 11.0494 7.77751 10.9397C7.69026 10.8627 7.61916 10.7691 7.56833 10.6643C7.51751 10.5596 7.48797 10.4458 7.48142 10.3296C7.47487 10.2134 7.49145 10.097 7.53019 9.98726C7.56893 9.87748 7.62906 9.77649 7.70711 9.69012C7.87118 9.52923 8.07442 9.41397 8.29671 9.35572C8.53607 9.28092 8.78511 9.24572 9.03591 9.25012C9.26471 9.23663 9.49351 9.23663 9.72231 9.25012C9.93527 9.26655 10.1465 9.29588 10.3559 9.33812L10.3999 9.31172Z" fill="#252EDD"/>
</svg>
