<svg width="16" height="16" viewBox="0 0 16 16" fill="none" xmlns="http://www.w3.org/2000/svg">
<path d="M12 0H4C2.93913 0 1.92172 0.421427 1.17157 1.17157C0.421427 1.92172 0 2.93913 0 4V12C0 13.0609 0.421427 14.0783 1.17157 14.8284C1.92172 15.5786 2.93913 16 4 16H12C13.0609 16 14.0783 15.5786 14.8284 14.8284C15.5786 14.0783 16 13.0609 16 12V4C16 2.93913 15.5786 1.92172 14.8284 1.17157C14.0783 0.421427 13.0609 0 12 0ZM4.416 10.024C4.5421 10.445 4.7367 10.8423 4.992 11.2C5.35644 11.7034 5.85959 12.0898 6.44 12.312C6.7976 12.4448 7.172 12.5312 7.552 12.568C7.92533 12.6043 8.29867 12.6043 8.672 12.568C9.1068 12.534 9.53208 12.4229 9.928 12.24C10.3754 12.0215 10.7586 11.6907 11.04 11.28C11.209 11.0385 11.3206 10.7617 11.3663 10.4705C11.4121 10.1794 11.3908 9.88165 11.304 9.6C11.1984 9.24385 10.9721 8.93556 10.664 8.728L10.504 8.616C10.504 8.688 10.504 8.752 10.464 8.816C10.408 9.176 10.288 9.5216 10.112 9.84C9.95615 10.1252 9.73637 10.3704 9.46987 10.5564C9.20338 10.7423 8.89743 10.8641 8.576 10.912C8.15313 10.9948 7.71642 10.9728 7.304 10.848C6.96187 10.7536 6.65027 10.5716 6.4 10.32C6.12565 10.0408 5.95368 9.67718 5.912 9.288C5.87193 8.95864 5.92577 8.62466 6.06732 8.32458C6.20886 8.0245 6.43235 7.77055 6.712 7.592C7.00294 7.39916 7.32923 7.26592 7.672 7.2C8.0112 7.144 8.35253 7.12 8.696 7.128C8.96391 7.13523 9.2311 7.15927 9.496 7.2H9.544C9.50858 6.98109 9.4355 6.76997 9.328 6.576C9.25059 6.44655 9.14748 6.33433 9.02502 6.24627C8.90256 6.15821 8.76336 6.09618 8.616 6.064C8.2641 5.95597 7.8879 5.95597 7.536 6.064C7.28239 6.15369 7.062 6.31829 6.904 6.536V6.592L6.104 6.04V5.984C6.43735 5.50078 6.9448 5.16535 7.52 5.048C8.01057 4.94103 8.5205 4.96308 9 5.112C9.26886 5.19432 9.51779 5.33133 9.73118 5.51443C9.94456 5.69753 10.1178 5.92277 10.24 6.176C10.3808 6.4632 10.476 6.7712 10.52 7.088C10.5424 7.22565 10.5557 7.36461 10.56 7.504L10.8 7.616C11.1752 7.81524 11.507 8.08719 11.776 8.416C12.0528 8.7576 12.2344 9.1656 12.304 9.6C12.3608 9.8624 12.38 10.132 12.36 10.4C12.3191 11.066 12.0573 11.6994 11.616 12.2C11.0582 12.8595 10.2994 13.3176 9.456 13.504C9.08477 13.5827 8.70729 13.6282 8.328 13.64C7.98348 13.6545 7.63836 13.6411 7.296 13.6C6.74062 13.5352 6.1999 13.3783 5.696 13.136C5.04654 12.8069 4.49483 12.3131 4.096 11.704C3.80122 11.2441 3.57737 10.7425 3.432 10.216C3.3248 9.8192 3.24747 9.41653 3.2 9.008V8C3.2 7.664 3.2 7.328 3.256 6.992C3.28893 6.61191 3.35044 6.23485 3.44 5.864C3.56208 5.39679 3.75068 4.94955 4 4.536C4.50031 3.64491 5.3168 2.97401 6.288 2.656C6.63659 2.53752 6.99548 2.45181 7.36 2.4C7.81719 2.34793 8.27881 2.34793 8.736 2.4C9.28835 2.45108 9.82872 2.59158 10.336 2.816C11.0677 3.13876 11.6902 3.66674 12.128 4.336C12.4355 4.81879 12.6625 5.34836 12.8 5.904L11.856 6.16V6.096C11.7494 5.71718 11.5934 5.35406 11.392 5.016C10.9818 4.34961 10.3458 3.85277 9.6 3.616C9.20736 3.48277 8.79812 3.40469 8.384 3.384C8.07785 3.35877 7.77015 3.35877 7.464 3.384C6.99147 3.43027 6.53095 3.5603 6.104 3.768C5.5522 4.05616 5.09836 4.50165 4.8 5.048C4.59382 5.42243 4.44037 5.82356 4.344 6.24C4.25995 6.57884 4.20376 6.92399 4.176 7.272C4.15515 7.60501 4.15515 7.93899 4.176 8.272C4.1803 8.86389 4.26097 9.45275 4.416 10.024Z" fill="#666666"/>
<path d="M12 0H4C2.93913 0 1.92172 0.421427 1.17157 1.17157C0.421427 1.92172 0 2.93913 0 4V12C0 13.0609 0.421427 14.0783 1.17157 14.8284C1.92172 15.5786 2.93913 16 4 16H12C13.0609 16 14.0783 15.5786 14.8284 14.8284C15.5786 14.0783 16 13.0609 16 12V4C16 2.93913 15.5786 1.92172 14.8284 1.17157C14.0783 0.421427 13.0609 0 12 0ZM4.416 10.024C4.5421 10.445 4.7367 10.8423 4.992 11.2C5.35644 11.7034 5.85959 12.0898 6.44 12.312C6.7976 12.4448 7.172 12.5312 7.552 12.568C7.92533 12.6043 8.29867 12.6043 8.672 12.568C9.1068 12.534 9.53208 12.4229 9.928 12.24C10.3754 12.0215 10.7586 11.6907 11.04 11.28C11.209 11.0385 11.3206 10.7617 11.3663 10.4705C11.4121 10.1794 11.3908 9.88165 11.304 9.6C11.1984 9.24385 10.9721 8.93556 10.664 8.728L10.504 8.616C10.504 8.688 10.504 8.752 10.464 8.816C10.408 9.176 10.288 9.5216 10.112 9.84C9.95615 10.1252 9.73637 10.3704 9.46987 10.5564C9.20338 10.7423 8.89743 10.8641 8.576 10.912C8.15313 10.9948 7.71642 10.9728 7.304 10.848C6.96187 10.7536 6.65027 10.5716 6.4 10.32C6.12565 10.0408 5.95368 9.67718 5.912 9.288C5.87193 8.95864 5.92577 8.62466 6.06732 8.32458C6.20886 8.0245 6.43235 7.77055 6.712 7.592C7.00294 7.39916 7.32923 7.26592 7.672 7.2C8.0112 7.144 8.35253 7.12 8.696 7.128C8.96391 7.13523 9.2311 7.15927 9.496 7.2H9.544C9.50858 6.98109 9.4355 6.76997 9.328 6.576C9.25059 6.44655 9.14748 6.33433 9.02502 6.24627C8.90256 6.15821 8.76336 6.09618 8.616 6.064C8.2641 5.95597 7.8879 5.95597 7.536 6.064C7.28239 6.15369 7.062 6.31829 6.904 6.536V6.592L6.104 6.04V5.984C6.43735 5.50078 6.9448 5.16535 7.52 5.048C8.01057 4.94103 8.5205 4.96308 9 5.112C9.26886 5.19432 9.51779 5.33133 9.73118 5.51443C9.94456 5.69753 10.1178 5.92277 10.24 6.176C10.3808 6.4632 10.476 6.7712 10.52 7.088C10.5424 7.22565 10.5557 7.36461 10.56 7.504L10.8 7.616C11.1752 7.81524 11.507 8.08719 11.776 8.416C12.0528 8.7576 12.2344 9.1656 12.304 9.6C12.3608 9.8624 12.38 10.132 12.36 10.4C12.3191 11.066 12.0573 11.6994 11.616 12.2C11.0582 12.8595 10.2994 13.3176 9.456 13.504C9.08477 13.5827 8.70729 13.6282 8.328 13.64C7.98348 13.6545 7.63836 13.6411 7.296 13.6C6.74062 13.5352 6.1999 13.3783 5.696 13.136C5.04654 12.8069 4.49483 12.3131 4.096 11.704C3.80122 11.2441 3.57737 10.7425 3.432 10.216C3.3248 9.8192 3.24747 9.41653 3.2 9.008V8C3.2 7.664 3.2 7.328 3.256 6.992C3.28893 6.61191 3.35044 6.23485 3.44 5.864C3.56208 5.39679 3.75068 4.94955 4 4.536C4.50031 3.64491 5.3168 2.97401 6.288 2.656C6.63659 2.53752 6.99548 2.45181 7.36 2.4C7.81719 2.34793 8.27881 2.34793 8.736 2.4C9.28835 2.45108 9.82872 2.59158 10.336 2.816C11.0677 3.13876 11.6902 3.66674 12.128 4.336C12.4355 4.81879 12.6625 5.34836 12.8 5.904L11.856 6.16V6.096C11.7494 5.71718 11.5934 5.35406 11.392 5.016C10.9818 4.34961 10.3458 3.85277 9.6 3.616C9.20736 3.48277 8.79812 3.40469 8.384 3.384C8.07785 3.35877 7.77015 3.35877 7.464 3.384C6.99147 3.43027 6.53095 3.5603 6.104 3.768C5.5522 4.05616 5.09836 4.50165 4.8 5.048C4.59382 5.42243 4.44037 5.82356 4.344 6.24C4.25995 6.57884 4.20376 6.92399 4.176 7.272C4.15515 7.60501 4.15515 7.93899 4.176 8.272C4.1803 8.86389 4.26097 9.45275 4.416 10.024Z" fill="black" fill-opacity="0.2"/>
<path d="M9.45446 8.4652C9.43686 8.8012 9.36086 9.1316 9.23046 9.4412C9.12379 9.67715 8.94805 9.87521 8.72646 10.0092C8.57766 10.0892 8.41446 10.1412 8.24646 10.1612C8.00342 10.2087 7.7535 10.2087 7.51046 10.1612C7.35125 10.1182 7.20185 10.0449 7.07046 9.9452C6.99114 9.87515 6.92651 9.79006 6.8803 9.69485C6.8341 9.59964 6.80724 9.49622 6.80129 9.39056C6.79534 9.2849 6.81041 9.17912 6.84563 9.07932C6.88084 8.97953 6.93551 8.88772 7.00646 8.8092C7.15562 8.66294 7.34038 8.55815 7.54246 8.5052C7.76006 8.4372 7.98646 8.4052 8.21446 8.4092C8.42246 8.39693 8.63046 8.39693 8.83846 8.4092C9.03206 8.42413 9.22406 8.4508 9.41446 8.4892L9.45446 8.4652Z" fill="#666666"/>
<path d="M9.45446 8.4652C9.43686 8.8012 9.36086 9.1316 9.23046 9.4412C9.12379 9.67715 8.94805 9.87521 8.72646 10.0092C8.57766 10.0892 8.41446 10.1412 8.24646 10.1612C8.00342 10.2087 7.7535 10.2087 7.51046 10.1612C7.35125 10.1182 7.20185 10.0449 7.07046 9.9452C6.99114 9.87515 6.92651 9.79006 6.8803 9.69485C6.8341 9.59964 6.80724 9.49622 6.80129 9.39056C6.79534 9.2849 6.81041 9.17912 6.84563 9.07932C6.88084 8.97953 6.93551 8.88772 7.00646 8.8092C7.15562 8.66294 7.34038 8.55815 7.54246 8.5052C7.76006 8.4372 7.98646 8.4052 8.21446 8.4092C8.42246 8.39693 8.63046 8.39693 8.83846 8.4092C9.03206 8.42413 9.22406 8.4508 9.41446 8.4892L9.45446 8.4652Z" fill="black" fill-opacity="0.2"/>
</svg>
