<svg width="16" height="16" viewBox="0 0 16 16" fill="none" xmlns="http://www.w3.org/2000/svg">
<path d="M0.341414 7.90428C0.341039 9.24859 0.695039 10.5612 1.36816 11.7182L0.277039 15.6712L4.35404 14.6104C5.48169 15.2196 6.74513 15.5387 8.02904 15.5388H8.03241C12.2709 15.5388 15.721 12.1166 15.7229 7.91029C15.7237 5.87203 14.9244 3.95538 13.4723 2.51339C12.0204 1.07153 10.0895 0.277053 8.0321 0.276123C3.79316 0.276123 0.343164 3.69814 0.341414 7.90428Z" fill="#666666"/>
<path d="M0.341414 7.90428C0.341039 9.24859 0.695039 10.5612 1.36816 11.7182L0.277039 15.6712L4.35404 14.6104C5.48169 15.2196 6.74513 15.5387 8.02904 15.5388H8.03241C12.2709 15.5388 15.721 12.1166 15.7229 7.91029C15.7237 5.87203 14.9244 3.95538 13.4723 2.51339C12.0204 1.07153 10.0895 0.277053 8.0321 0.276123C3.79316 0.276123 0.343164 3.69814 0.341414 7.90428Z" fill="black" fill-opacity="0.2"/>
<path d="M0.066875 7.90177C0.0664375 9.29445 0.433125 10.654 1.13025 11.8524L0 15.9471L4.22319 14.8484C5.38681 15.4779 6.69694 15.8098 8.03006 15.8103H8.0335C12.424 15.8103 15.9981 12.265 16 7.90809C16.0007 5.79659 15.1727 3.81104 13.6687 2.3174C12.1646 0.823938 10.1646 0.000868217 8.0335 0C3.64225 0 0.068625 3.54481 0.066875 7.90177ZM2.58194 11.646L2.42425 11.3976C1.76137 10.3518 1.4115 9.14326 1.412 7.90226C1.41337 4.28087 4.38363 1.33457 8.036 1.33457C9.80475 1.33532 11.467 2.01947 12.7172 3.26078C13.9674 4.5022 14.6554 6.15243 14.6549 7.9076C14.6533 11.529 11.683 14.4757 8.0335 14.4757H8.03088C6.84256 14.475 5.67712 14.1584 4.66075 13.56L4.41888 13.4177L1.91275 14.0696L2.58194 11.646Z" fill="url(#paint0_linear_507_137)"/>
<path d="M6.04235 4.59831C5.89322 4.26944 5.73629 4.2628 5.59447 4.25704C5.47835 4.25208 5.3456 4.25245 5.21297 4.25245C5.08022 4.25245 4.86454 4.302 4.68222 4.49952C4.49972 4.69722 3.98547 5.17499 3.98547 6.14671C3.98547 7.11843 4.69879 8.05759 4.79822 8.1895C4.89779 8.32116 6.17529 10.3791 8.19854 11.1708C9.88004 11.8287 10.2222 11.6978 10.5872 11.6649C10.9522 11.632 11.7649 11.1872 11.9307 10.726C12.0967 10.2649 12.0967 9.86956 12.0469 9.78696C11.9972 9.70467 11.8644 9.65524 11.6653 9.55651C11.4663 9.45778 10.4876 8.97989 10.3052 8.91397C10.1227 8.84811 9.98997 8.81524 9.85722 9.01301C9.72447 9.21046 9.34329 9.65524 9.2271 9.78696C9.11104 9.91899 8.99485 9.93542 8.79585 9.83663C8.59666 9.73753 7.9556 9.52922 7.19504 8.85642C6.60329 8.33288 6.20379 7.68637 6.08766 7.4886C5.97154 7.29115 6.07522 7.18411 6.17504 7.08569C6.26447 6.99719 6.37416 6.85505 6.47379 6.73977C6.57304 6.62442 6.60616 6.54212 6.67254 6.4104C6.73897 6.27856 6.70572 6.16321 6.65604 6.06442C6.60616 5.96563 6.21935 4.98882 6.04235 4.59831Z" fill="white"/>
<defs>
<linearGradient id="paint0_linear_507_137" x1="800" y1="1594.71" x2="800" y2="0" gradientUnits="userSpaceOnUse">
<stop stop-color="#F9F9F9"/>
<stop offset="1" stop-color="white"/>
</linearGradient>
</defs>
</svg>
