<svg width="18" height="18" viewBox="0 0 18 18" fill="none" xmlns="http://www.w3.org/2000/svg">
<path d="M0.375555 8.69471C0.375142 10.1734 0.764542 11.6173 1.50498 12.89L0.304742 17.2383L4.78944 16.0715C6.02986 16.7415 7.41964 17.0926 8.83194 17.0927H8.83566C13.4979 17.0927 17.2931 13.3283 17.2951 8.70132C17.296 6.45923 16.4169 4.35092 14.8195 2.76473C13.2225 1.17869 11.0984 0.304759 8.83531 0.303735C4.17248 0.303735 0.37748 4.06795 0.375555 8.69471Z" fill="#252EDD"/>
<path d="M0.0735625 8.69194C0.0730813 10.2239 0.476437 11.7194 1.24328 13.0376L0 17.5418L4.64551 16.3332C5.92549 17.0257 7.36663 17.3908 8.83307 17.3913H8.83685C13.6664 17.3913 17.5979 13.4915 17.6 8.6989C17.6008 6.37625 16.69 4.19214 15.0356 2.54913C13.381 0.906332 11.181 0.000955039 8.83685 0C4.00647 0 0.0754875 3.89929 0.0735625 8.69194ZM2.84013 12.8106L2.66667 12.5374C1.93751 11.387 1.55265 10.0576 1.5532 8.69249C1.55471 4.70895 4.82199 1.46803 8.8396 1.46803C10.7852 1.46885 12.6137 2.22142 13.989 3.58685C15.3642 4.95242 16.1209 6.76768 16.1204 8.69836C16.1186 12.6819 12.8513 15.9232 8.83685 15.9232H8.83396C7.52682 15.9225 6.24484 15.5742 5.12682 14.916L4.86076 14.7594L2.10403 15.4766L2.84013 12.8106Z" fill="url(#paint0_linear_809_657)"/>
<path d="M6.64658 5.05814C6.48255 4.69638 6.30992 4.68908 6.15392 4.68274C6.02618 4.67728 5.88016 4.67769 5.73427 4.67769C5.58825 4.67769 5.35099 4.7322 5.15045 4.94947C4.9497 5.16694 4.38402 5.69249 4.38402 6.76138C4.38402 7.83028 5.16866 8.86335 5.27805 9.00845C5.38756 9.15328 6.79281 11.417 9.01839 12.2878C10.868 13.0116 11.2444 12.8676 11.6459 12.8313C12.0474 12.7952 12.9414 12.3059 13.1238 11.7986C13.3063 11.2913 13.3063 10.8565 13.2516 10.7657C13.1969 10.6751 13.0509 10.6208 12.8319 10.5122C12.6129 10.4036 11.5364 9.87788 11.3357 9.80536C11.1349 9.73292 10.989 9.69676 10.8429 9.91431C10.6969 10.1315 10.2776 10.6208 10.1498 10.7657C10.0221 10.9109 9.89433 10.929 9.67543 10.8203C9.45633 10.7113 8.75116 10.4821 7.91454 9.74206C7.26361 9.16617 6.82416 8.45501 6.69643 8.23746C6.56869 8.02026 6.68275 7.90252 6.79254 7.79426C6.89092 7.69691 7.01158 7.54056 7.12117 7.41374C7.23034 7.28686 7.26678 7.19633 7.33979 7.05144C7.41287 6.90641 7.3763 6.77953 7.32164 6.67086C7.26678 6.56219 6.84128 5.4877 6.64658 5.05814Z" fill="white"/>
<defs>
<linearGradient id="paint0_linear_809_657" x1="880" y1="1754.18" x2="880" y2="0" gradientUnits="userSpaceOnUse">
<stop stop-color="#F9F9F9"/>
<stop offset="1" stop-color="white"/>
</linearGradient>
</defs>
</svg>
