<svg width="17" height="17" viewBox="0 0 17 17" fill="none" xmlns="http://www.w3.org/2000/svg">
<path fill-rule="evenodd" clip-rule="evenodd" d="M2.93333 0C2.15536 0 1.40926 0.309047 0.859154 0.859154C0.309047 1.40926 0 2.15536 0 2.93333V13.2C0 13.978 0.309047 14.7241 0.859154 15.2742C1.40926 15.8243 2.15536 16.1333 2.93333 16.1333H13.2C13.978 16.1333 14.7241 15.8243 15.2742 15.2742C15.8243 14.7241 16.1333 13.978 16.1333 13.2V2.93333C16.1333 2.15536 15.8243 1.40926 15.2742 0.859154C14.7241 0.309047 13.978 0 13.2 0H2.93333ZM2.6884 2.56667C2.60812 2.5965 2.53592 2.64467 2.47755 2.70733C2.41917 2.77 2.37624 2.84543 2.35217 2.92762C2.3281 3.00981 2.32355 3.09648 2.33889 3.18074C2.35423 3.26499 2.38904 3.3445 2.44053 3.41293L6.55747 8.87627L2.2198 13.5293L2.18753 13.5667H3.68867L7.23067 9.76873L9.9528 13.3826C10.016 13.4663 10.1017 13.5301 10.1999 13.5667H13.4427C13.5229 13.5367 13.5949 13.4884 13.6532 13.4257C13.7114 13.3629 13.7541 13.2875 13.7781 13.2053C13.802 13.1231 13.8064 13.0365 13.791 12.9523C13.7755 12.8681 13.7407 12.7887 13.6891 12.7204L9.5722 7.25707L13.9458 2.56667H12.4425L8.90047 6.36533L6.17687 2.75147C6.11381 2.66755 6.02806 2.60342 5.92973 2.56667H2.6884ZM10.6671 12.5019L3.98273 3.63147H5.46333L12.1469 12.5011L10.6671 12.5019Z" fill="#252EDD"/>
</svg>
