<svg width="15" height="15" viewBox="0 0 15 15" fill="none" xmlns="http://www.w3.org/2000/svg">
<path fill-rule="evenodd" clip-rule="evenodd" d="M2.66667 0C1.95942 0 1.28115 0.280952 0.781049 0.781049C0.280952 1.28115 0 1.95942 0 2.66667V12C0 12.7072 0.280952 13.3855 0.781049 13.8856C1.28115 14.3857 1.95942 14.6667 2.66667 14.6667H12C12.7072 14.6667 13.3855 14.3857 13.8856 13.8856C14.3857 13.3855 14.6667 12.7072 14.6667 12V2.66667C14.6667 1.95942 14.3857 1.28115 13.8856 0.781049C13.3855 0.280952 12.7072 0 12 0H2.66667ZM2.444 2.33333C2.37102 2.36045 2.30538 2.40424 2.25232 2.46121C2.19925 2.51818 2.16022 2.58676 2.13834 2.66147C2.11645 2.73619 2.11232 2.81498 2.12626 2.89158C2.14021 2.96818 2.17185 3.04046 2.21867 3.10267L5.96133 8.06933L2.018 12.2993L1.98867 12.3333H3.35333L6.57333 8.88067L9.048 12.166C9.10541 12.242 9.18336 12.3001 9.27267 12.3333H12.2207C12.2935 12.3061 12.359 12.2622 12.412 12.2051C12.4649 12.1481 12.5038 12.0795 12.5255 12.0048C12.5473 11.9301 12.5513 11.8514 12.5372 11.7748C12.5232 11.6983 12.4915 11.6261 12.4447 11.564L8.702 6.59733L12.678 2.33333H11.3113L8.09133 5.78667L5.61533 2.50133C5.55801 2.42504 5.48005 2.36675 5.39067 2.33333H2.444ZM9.69733 11.3653L3.62067 3.30133H4.96667L11.0427 11.3647L9.69733 11.3653Z" fill="#666666"/>
<path fill-rule="evenodd" clip-rule="evenodd" d="M2.66667 0C1.95942 0 1.28115 0.280952 0.781049 0.781049C0.280952 1.28115 0 1.95942 0 2.66667V12C0 12.7072 0.280952 13.3855 0.781049 13.8856C1.28115 14.3857 1.95942 14.6667 2.66667 14.6667H12C12.7072 14.6667 13.3855 14.3857 13.8856 13.8856C14.3857 13.3855 14.6667 12.7072 14.6667 12V2.66667C14.6667 1.95942 14.3857 1.28115 13.8856 0.781049C13.3855 0.280952 12.7072 0 12 0H2.66667ZM2.444 2.33333C2.37102 2.36045 2.30538 2.40424 2.25232 2.46121C2.19925 2.51818 2.16022 2.58676 2.13834 2.66147C2.11645 2.73619 2.11232 2.81498 2.12626 2.89158C2.14021 2.96818 2.17185 3.04046 2.21867 3.10267L5.96133 8.06933L2.018 12.2993L1.98867 12.3333H3.35333L6.57333 8.88067L9.048 12.166C9.10541 12.242 9.18336 12.3001 9.27267 12.3333H12.2207C12.2935 12.3061 12.359 12.2622 12.412 12.2051C12.4649 12.1481 12.5038 12.0795 12.5255 12.0048C12.5473 11.9301 12.5513 11.8514 12.5372 11.7748C12.5232 11.6983 12.4915 11.6261 12.4447 11.564L8.702 6.59733L12.678 2.33333H11.3113L8.09133 5.78667L5.61533 2.50133C5.55801 2.42504 5.48005 2.36675 5.39067 2.33333H2.444ZM9.69733 11.3653L3.62067 3.30133H4.96667L11.0427 11.3647L9.69733 11.3653Z" fill="black" fill-opacity="0.2"/>
</svg>
