<svg width="16" height="16" viewBox="0 0 16 16" fill="none" xmlns="http://www.w3.org/2000/svg">
<mask id="path-1-inside-1_507_148" fill="white">
<path d="M0 11.2941V4.70588L4.70588 0H11.2941L16 4.70588V11.3224L11.3224 16H4.70588L0 11.2941ZM5.07294 0.941176L0.941176 5.07294V10.9176L5.08235 15.0588H10.9271L15.0588 10.9271V5.07294L10.9271 0.941176H5.07294ZM7.52941 3.76471H8.47059V8.47059H7.52941V3.76471ZM7.52941 10.3529H8.47059V12.2353H7.52941V10.3529Z"/>
</mask>
<path d="M0 11.2941V4.70588L4.70588 0H11.2941L16 4.70588V11.3224L11.3224 16H4.70588L0 11.2941ZM5.07294 0.941176L0.941176 5.07294V10.9176L5.08235 15.0588H10.9271L15.0588 10.9271V5.07294L10.9271 0.941176H5.07294ZM7.52941 3.76471H8.47059V8.47059H7.52941V3.76471ZM7.52941 10.3529H8.47059V12.2353H7.52941V10.3529Z" fill="#525252"/>
<path d="M0 11.2941H-1V11.7083L-0.707107 12.0012L0 11.2941ZM0 4.70588L-0.707107 3.99878L-1 4.29167V4.70588H0ZM4.70588 0V-1H4.29167L3.99878 -0.707107L4.70588 0ZM11.2941 0L12.0012 -0.707107L11.7083 -1H11.2941V0ZM16 4.70588H17V4.29167L16.7071 3.99878L16 4.70588ZM16 11.3224L16.7071 12.0295L17 11.7366V11.3224H16ZM11.3224 16V17H11.7366L12.0295 16.7071L11.3224 16ZM4.70588 16L3.99878 16.7071L4.29167 17H4.70588V16ZM5.07294 0.941176V-0.0588235H4.65873L4.36583 0.23407L5.07294 0.941176ZM0.941176 5.07294L0.23407 4.36583L-0.0588235 4.65873V5.07294H0.941176ZM0.941176 10.9176H-0.0588235V11.3319L0.23407 11.6248L0.941176 10.9176ZM5.08235 15.0588L4.37525 15.7659L4.66814 16.0588H5.08235V15.0588ZM10.9271 15.0588V16.0588H11.3413L11.6342 15.7659L10.9271 15.0588ZM15.0588 10.9271L15.7659 11.6342L16.0588 11.3413V10.9271H15.0588ZM15.0588 5.07294H16.0588V4.65873L15.7659 4.36583L15.0588 5.07294ZM10.9271 0.941176L11.6342 0.23407L11.3413 -0.0588235H10.9271V0.941176ZM7.52941 3.76471V2.76471H6.52941V3.76471H7.52941ZM8.47059 3.76471H9.47059V2.76471H8.47059V3.76471ZM8.47059 8.47059V9.47059H9.47059V8.47059H8.47059ZM7.52941 8.47059H6.52941V9.47059H7.52941V8.47059ZM7.52941 10.3529V9.35294H6.52941V10.3529H7.52941ZM8.47059 10.3529H9.47059V9.35294H8.47059V10.3529ZM8.47059 12.2353V13.2353H9.47059V12.2353H8.47059ZM7.52941 12.2353H6.52941V13.2353H7.52941V12.2353ZM0 11.2941H1V4.70588H0H-1V11.2941H0ZM0 4.70588L0.707107 5.41299L5.41299 0.707107L4.70588 0L3.99878 -0.707107L-0.707107 3.99878L0 4.70588ZM4.70588 0V1H11.2941V0V-1H4.70588V0ZM11.2941 0L10.587 0.707107L15.2929 5.41299L16 4.70588L16.7071 3.99878L12.0012 -0.707107L11.2941 0ZM16 4.70588H15V11.3224H16H17V4.70588H16ZM16 11.3224L15.2929 10.6152L10.6152 15.2929L11.3224 16L12.0295 16.7071L16.7071 12.0295L16 11.3224ZM11.3224 16V15H4.70588V16V17H11.3224V16ZM4.70588 16L5.41299 15.2929L0.707107 10.587L0 11.2941L-0.707107 12.0012L3.99878 16.7071L4.70588 16ZM5.07294 0.941176L4.36583 0.23407L0.23407 4.36583L0.941176 5.07294L1.64828 5.78005L5.78005 1.64828L5.07294 0.941176ZM0.941176 5.07294H-0.0588235V10.9176H0.941176H1.94118V5.07294H0.941176ZM0.941176 10.9176L0.23407 11.6248L4.37525 15.7659L5.08235 15.0588L5.78946 14.3517L1.64828 10.2105L0.941176 10.9176ZM5.08235 15.0588V16.0588H10.9271V15.0588V14.0588H5.08235V15.0588ZM10.9271 15.0588L11.6342 15.7659L15.7659 11.6342L15.0588 10.9271L14.3517 10.22L10.22 14.3517L10.9271 15.0588ZM15.0588 10.9271H16.0588V5.07294H15.0588H14.0588V10.9271H15.0588ZM15.0588 5.07294L15.7659 4.36583L11.6342 0.23407L10.9271 0.941176L10.22 1.64828L14.3517 5.78005L15.0588 5.07294ZM10.9271 0.941176V-0.0588235H5.07294V0.941176V1.94118H10.9271V0.941176ZM7.52941 3.76471V4.76471H8.47059V3.76471V2.76471H7.52941V3.76471ZM8.47059 3.76471H7.47059V8.47059H8.47059H9.47059V3.76471H8.47059ZM8.47059 8.47059V7.47059H7.52941V8.47059V9.47059H8.47059V8.47059ZM7.52941 8.47059H8.52941V3.76471H7.52941H6.52941V8.47059H7.52941ZM7.52941 10.3529V11.3529H8.47059V10.3529V9.35294H7.52941V10.3529ZM8.47059 10.3529H7.47059V12.2353H8.47059H9.47059V10.3529H8.47059ZM8.47059 12.2353V11.2353H7.52941V12.2353V13.2353H8.47059V12.2353ZM7.52941 12.2353H8.52941V10.3529H7.52941H6.52941V12.2353H7.52941Z" fill="#666666" mask="url(#path-1-inside-1_507_148)"/>
<path d="M0 11.2941H-1V11.7083L-0.707107 12.0012L0 11.2941ZM0 4.70588L-0.707107 3.99878L-1 4.29167V4.70588H0ZM4.70588 0V-1H4.29167L3.99878 -0.707107L4.70588 0ZM11.2941 0L12.0012 -0.707107L11.7083 -1H11.2941V0ZM16 4.70588H17V4.29167L16.7071 3.99878L16 4.70588ZM16 11.3224L16.7071 12.0295L17 11.7366V11.3224H16ZM11.3224 16V17H11.7366L12.0295 16.7071L11.3224 16ZM4.70588 16L3.99878 16.7071L4.29167 17H4.70588V16ZM5.07294 0.941176V-0.0588235H4.65873L4.36583 0.23407L5.07294 0.941176ZM0.941176 5.07294L0.23407 4.36583L-0.0588235 4.65873V5.07294H0.941176ZM0.941176 10.9176H-0.0588235V11.3319L0.23407 11.6248L0.941176 10.9176ZM5.08235 15.0588L4.37525 15.7659L4.66814 16.0588H5.08235V15.0588ZM10.9271 15.0588V16.0588H11.3413L11.6342 15.7659L10.9271 15.0588ZM15.0588 10.9271L15.7659 11.6342L16.0588 11.3413V10.9271H15.0588ZM15.0588 5.07294H16.0588V4.65873L15.7659 4.36583L15.0588 5.07294ZM10.9271 0.941176L11.6342 0.23407L11.3413 -0.0588235H10.9271V0.941176ZM7.52941 3.76471V2.76471H6.52941V3.76471H7.52941ZM8.47059 3.76471H9.47059V2.76471H8.47059V3.76471ZM8.47059 8.47059V9.47059H9.47059V8.47059H8.47059ZM7.52941 8.47059H6.52941V9.47059H7.52941V8.47059ZM7.52941 10.3529V9.35294H6.52941V10.3529H7.52941ZM8.47059 10.3529H9.47059V9.35294H8.47059V10.3529ZM8.47059 12.2353V13.2353H9.47059V12.2353H8.47059ZM7.52941 12.2353H6.52941V13.2353H7.52941V12.2353ZM0 11.2941H1V4.70588H0H-1V11.2941H0ZM0 4.70588L0.707107 5.41299L5.41299 0.707107L4.70588 0L3.99878 -0.707107L-0.707107 3.99878L0 4.70588ZM4.70588 0V1H11.2941V0V-1H4.70588V0ZM11.2941 0L10.587 0.707107L15.2929 5.41299L16 4.70588L16.7071 3.99878L12.0012 -0.707107L11.2941 0ZM16 4.70588H15V11.3224H16H17V4.70588H16ZM16 11.3224L15.2929 10.6152L10.6152 15.2929L11.3224 16L12.0295 16.7071L16.7071 12.0295L16 11.3224ZM11.3224 16V15H4.70588V16V17H11.3224V16ZM4.70588 16L5.41299 15.2929L0.707107 10.587L0 11.2941L-0.707107 12.0012L3.99878 16.7071L4.70588 16ZM5.07294 0.941176L4.36583 0.23407L0.23407 4.36583L0.941176 5.07294L1.64828 5.78005L5.78005 1.64828L5.07294 0.941176ZM0.941176 5.07294H-0.0588235V10.9176H0.941176H1.94118V5.07294H0.941176ZM0.941176 10.9176L0.23407 11.6248L4.37525 15.7659L5.08235 15.0588L5.78946 14.3517L1.64828 10.2105L0.941176 10.9176ZM5.08235 15.0588V16.0588H10.9271V15.0588V14.0588H5.08235V15.0588ZM10.9271 15.0588L11.6342 15.7659L15.7659 11.6342L15.0588 10.9271L14.3517 10.22L10.22 14.3517L10.9271 15.0588ZM15.0588 10.9271H16.0588V5.07294H15.0588H14.0588V10.9271H15.0588ZM15.0588 5.07294L15.7659 4.36583L11.6342 0.23407L10.9271 0.941176L10.22 1.64828L14.3517 5.78005L15.0588 5.07294ZM10.9271 0.941176V-0.0588235H5.07294V0.941176V1.94118H10.9271V0.941176ZM7.52941 3.76471V4.76471H8.47059V3.76471V2.76471H7.52941V3.76471ZM8.47059 3.76471H7.47059V8.47059H8.47059H9.47059V3.76471H8.47059ZM8.47059 8.47059V7.47059H7.52941V8.47059V9.47059H8.47059V8.47059ZM7.52941 8.47059H8.52941V3.76471H7.52941H6.52941V8.47059H7.52941ZM7.52941 10.3529V11.3529H8.47059V10.3529V9.35294H7.52941V10.3529ZM8.47059 10.3529H7.47059V12.2353H8.47059H9.47059V10.3529H8.47059ZM8.47059 12.2353V11.2353H7.52941V12.2353V13.2353H8.47059V12.2353ZM7.52941 12.2353H8.52941V10.3529H7.52941H6.52941V12.2353H7.52941Z" fill="black" fill-opacity="0.2" mask="url(#path-1-inside-1_507_148)"/>
</svg>
