<svg width="18" height="24" viewBox="0 0 18 24" fill="none" xmlns="http://www.w3.org/2000/svg">
<path d="M2.77778 4C1.79722 4 1 4.89688 1 6V15C1 16.1031 1.79722 17 2.77778 17H7.66667L7.36944 18H5.44444C4.95278 18 4.55556 18.4469 4.55556 19C4.55556 19.5531 4.95278 20 5.44444 20H12.5556C13.0472 20 13.4444 19.5531 13.4444 19C13.4444 18.4469 13.0472 18 12.5556 18H10.6306L10.3333 17H15.2222C16.2028 17 17 16.1031 17 15V6C17 4.89688 16.2028 4 15.2222 4H2.77778ZM15.2222 6V13H2.77778V6H15.2222Z" fill="#666666"/>
<path d="M2.77778 4C1.79722 4 1 4.89688 1 6V15C1 16.1031 1.79722 17 2.77778 17H7.66667L7.36944 18H5.44444C4.95278 18 4.55556 18.4469 4.55556 19C4.55556 19.5531 4.95278 20 5.44444 20H12.5556C13.0472 20 13.4444 19.5531 13.4444 19C13.4444 18.4469 13.0472 18 12.5556 18H10.6306L10.3333 17H15.2222C16.2028 17 17 16.1031 17 15V6C17 4.89688 16.2028 4 15.2222 4H2.77778ZM15.2222 6V13H2.77778V6H15.2222Z" fill="black" fill-opacity="0.2"/>
</svg>
