<svg width="16" height="16" viewBox="0 0 16 16" fill="none" xmlns="http://www.w3.org/2000/svg">
<mask id="path-1-inside-1_507_143" fill="white">
<path d="M8.47059 0V10.8889L13.4118 6.22222L14.1176 6.80889L8 12.5867L1.88235 6.80889L2.58824 6.22222L7.52941 10.8889V0H8.47059ZM0 13.3333H0.941176V15.1111H15.0588V13.3333H16V16H0V13.3333Z"/>
</mask>
<path d="M8.47059 0V10.8889L13.4118 6.22222L14.1176 6.80889L8 12.5867L1.88235 6.80889L2.58824 6.22222L7.52941 10.8889V0H8.47059ZM0 13.3333H0.941176V15.1111H15.0588V13.3333H16V16H0V13.3333Z" fill="#525252"/>
<path d="M8.47059 0H9.47059V-1H8.47059V0ZM8.47059 10.8889H7.47059V13.2088L9.15721 11.6159L8.47059 10.8889ZM13.4118 6.22222L14.0509 5.45316L13.3694 4.88673L12.7251 5.49521L13.4118 6.22222ZM14.1176 6.80889L14.8043 7.5359L15.6247 6.76109L14.7568 6.03983L14.1176 6.80889ZM8 12.5867L7.31338 13.3137L8 13.9622L8.68662 13.3137L8 12.5867ZM1.88235 6.80889L1.24318 6.03983L0.375344 6.76109L1.19573 7.5359L1.88235 6.80889ZM2.58824 6.22222L3.27486 5.49521L2.63059 4.88673L1.94906 5.45316L2.58824 6.22222ZM7.52941 10.8889L6.84279 11.6159L8.52941 13.2088V10.8889H7.52941ZM7.52941 0V-1H6.52941V0H7.52941ZM0 13.3333V12.3333H-1V13.3333H0ZM0.941176 13.3333H1.94118V12.3333H0.941176V13.3333ZM0.941176 15.1111H-0.0588235V16.1111H0.941176V15.1111ZM15.0588 15.1111V16.1111H16.0588V15.1111H15.0588ZM15.0588 13.3333V12.3333H14.0588V13.3333H15.0588ZM16 13.3333H17V12.3333H16V13.3333ZM16 16V17H17V16H16ZM0 16H-1V17H0V16ZM8.47059 0H7.47059V10.8889H8.47059H9.47059V0H8.47059ZM8.47059 10.8889L9.15721 11.6159L14.0984 6.94924L13.4118 6.22222L12.7251 5.49521L7.78396 10.1619L8.47059 10.8889ZM13.4118 6.22222L12.7726 6.99128L13.4785 7.57795L14.1176 6.80889L14.7568 6.03983L14.0509 5.45316L13.4118 6.22222ZM14.1176 6.80889L13.431 6.08188L7.31338 11.8597L8 12.5867L8.68662 13.3137L14.8043 7.5359L14.1176 6.80889ZM8 12.5867L8.68662 11.8597L2.56898 6.08188L1.88235 6.80889L1.19573 7.5359L7.31338 13.3137L8 12.5867ZM1.88235 6.80889L2.52153 7.57795L3.22741 6.99128L2.58824 6.22222L1.94906 5.45316L1.24318 6.03983L1.88235 6.80889ZM2.58824 6.22222L1.90161 6.94924L6.84279 11.6159L7.52941 10.8889L8.21603 10.1619L3.27486 5.49521L2.58824 6.22222ZM7.52941 10.8889H8.52941V0H7.52941H6.52941V10.8889H7.52941ZM7.52941 0V1H8.47059V0V-1H7.52941V0ZM0 13.3333V14.3333H0.941176V13.3333V12.3333H0V13.3333ZM0.941176 13.3333H-0.0588235V15.1111H0.941176H1.94118V13.3333H0.941176ZM0.941176 15.1111V16.1111H15.0588V15.1111V14.1111H0.941176V15.1111ZM15.0588 15.1111H16.0588V13.3333H15.0588H14.0588V15.1111H15.0588ZM15.0588 13.3333V14.3333H16V13.3333V12.3333H15.0588V13.3333ZM16 13.3333H15V16H16H17V13.3333H16ZM16 16V15H0V16V17H16V16ZM0 16H1V13.3333H0H-1V16H0Z" fill="#666666" mask="url(#path-1-inside-1_507_143)"/>
<path d="M8.47059 0H9.47059V-1H8.47059V0ZM8.47059 10.8889H7.47059V13.2088L9.15721 11.6159L8.47059 10.8889ZM13.4118 6.22222L14.0509 5.45316L13.3694 4.88673L12.7251 5.49521L13.4118 6.22222ZM14.1176 6.80889L14.8043 7.5359L15.6247 6.76109L14.7568 6.03983L14.1176 6.80889ZM8 12.5867L7.31338 13.3137L8 13.9622L8.68662 13.3137L8 12.5867ZM1.88235 6.80889L1.24318 6.03983L0.375344 6.76109L1.19573 7.5359L1.88235 6.80889ZM2.58824 6.22222L3.27486 5.49521L2.63059 4.88673L1.94906 5.45316L2.58824 6.22222ZM7.52941 10.8889L6.84279 11.6159L8.52941 13.2088V10.8889H7.52941ZM7.52941 0V-1H6.52941V0H7.52941ZM0 13.3333V12.3333H-1V13.3333H0ZM0.941176 13.3333H1.94118V12.3333H0.941176V13.3333ZM0.941176 15.1111H-0.0588235V16.1111H0.941176V15.1111ZM15.0588 15.1111V16.1111H16.0588V15.1111H15.0588ZM15.0588 13.3333V12.3333H14.0588V13.3333H15.0588ZM16 13.3333H17V12.3333H16V13.3333ZM16 16V17H17V16H16ZM0 16H-1V17H0V16ZM8.47059 0H7.47059V10.8889H8.47059H9.47059V0H8.47059ZM8.47059 10.8889L9.15721 11.6159L14.0984 6.94924L13.4118 6.22222L12.7251 5.49521L7.78396 10.1619L8.47059 10.8889ZM13.4118 6.22222L12.7726 6.99128L13.4785 7.57795L14.1176 6.80889L14.7568 6.03983L14.0509 5.45316L13.4118 6.22222ZM14.1176 6.80889L13.431 6.08188L7.31338 11.8597L8 12.5867L8.68662 13.3137L14.8043 7.5359L14.1176 6.80889ZM8 12.5867L8.68662 11.8597L2.56898 6.08188L1.88235 6.80889L1.19573 7.5359L7.31338 13.3137L8 12.5867ZM1.88235 6.80889L2.52153 7.57795L3.22741 6.99128L2.58824 6.22222L1.94906 5.45316L1.24318 6.03983L1.88235 6.80889ZM2.58824 6.22222L1.90161 6.94924L6.84279 11.6159L7.52941 10.8889L8.21603 10.1619L3.27486 5.49521L2.58824 6.22222ZM7.52941 10.8889H8.52941V0H7.52941H6.52941V10.8889H7.52941ZM7.52941 0V1H8.47059V0V-1H7.52941V0ZM0 13.3333V14.3333H0.941176V13.3333V12.3333H0V13.3333ZM0.941176 13.3333H-0.0588235V15.1111H0.941176H1.94118V13.3333H0.941176ZM0.941176 15.1111V16.1111H15.0588V15.1111V14.1111H0.941176V15.1111ZM15.0588 15.1111H16.0588V13.3333H15.0588H14.0588V15.1111H15.0588ZM15.0588 13.3333V14.3333H16V13.3333V12.3333H15.0588V13.3333ZM16 13.3333H15V16H16H17V13.3333H16ZM16 16V15H0V16V17H16V16ZM0 16H1V13.3333H0H-1V16H0Z" fill="black" fill-opacity="0.2" mask="url(#path-1-inside-1_507_143)"/>
</svg>
