<svg width="16" height="16" viewBox="0 0 16 16" fill="none" xmlns="http://www.w3.org/2000/svg">
<mask id="path-1-inside-1_507_145" fill="white">
<path d="M11.2941 6.09524C10.5453 6.09524 9.8271 5.85442 9.29758 5.42577C8.76807 4.99711 8.47059 4.41573 8.47059 3.80952V0.761905H4.70588C4.20665 0.761905 3.72787 0.922448 3.37486 1.20822C3.02185 1.49399 2.82353 1.88157 2.82353 2.28571V12.1905C2.82353 12.5946 3.02185 12.9822 3.37486 13.268C3.72787 13.5537 4.20665 13.7143 4.70588 13.7143H13.1765C13.6757 13.7143 14.1545 13.5537 14.5075 13.268C14.8605 12.9822 15.0588 12.5946 15.0588 12.1905V6.09524H11.2941ZM9.41177 3.80952C9.41177 4.21366 9.61008 4.60125 9.96309 4.88702C10.3161 5.17279 10.7949 5.33333 11.2941 5.33333H14.6729L9.41177 1.07429V3.80952ZM4.70588 0H9.41177L16 5.33333V12.1905C16 12.7967 15.7025 13.3781 15.173 13.8067C14.6435 14.2354 13.9253 14.4762 13.1765 14.4762H4.70588C3.95704 14.4762 3.23886 14.2354 2.70935 13.8067C2.17983 13.3781 1.88235 12.7967 1.88235 12.1905V2.28571C1.88235 1.67951 2.17983 1.09812 2.70935 0.66947C3.23886 0.240816 3.95704 0 4.70588 0ZM4.70588 16C3.4578 16 2.26085 15.5986 1.37832 14.8842C0.495797 14.1698 0 13.2008 0 12.1905V3.04762H0.941176V12.1905C0.941176 12.9988 1.33781 13.7739 2.04383 14.3455C2.74985 14.917 3.70742 15.2381 4.70588 15.2381H12.2353V16H4.70588Z"/>
</mask>
<path d="M11.2941 6.09524C10.5453 6.09524 9.8271 5.85442 9.29758 5.42577C8.76807 4.99711 8.47059 4.41573 8.47059 3.80952V0.761905H4.70588C4.20665 0.761905 3.72787 0.922448 3.37486 1.20822C3.02185 1.49399 2.82353 1.88157 2.82353 2.28571V12.1905C2.82353 12.5946 3.02185 12.9822 3.37486 13.268C3.72787 13.5537 4.20665 13.7143 4.70588 13.7143H13.1765C13.6757 13.7143 14.1545 13.5537 14.5075 13.268C14.8605 12.9822 15.0588 12.5946 15.0588 12.1905V6.09524H11.2941ZM9.41177 3.80952C9.41177 4.21366 9.61008 4.60125 9.96309 4.88702C10.3161 5.17279 10.7949 5.33333 11.2941 5.33333H14.6729L9.41177 1.07429V3.80952ZM4.70588 0H9.41177L16 5.33333V12.1905C16 12.7967 15.7025 13.3781 15.173 13.8067C14.6435 14.2354 13.9253 14.4762 13.1765 14.4762H4.70588C3.95704 14.4762 3.23886 14.2354 2.70935 13.8067C2.17983 13.3781 1.88235 12.7967 1.88235 12.1905V2.28571C1.88235 1.67951 2.17983 1.09812 2.70935 0.66947C3.23886 0.240816 3.95704 0 4.70588 0ZM4.70588 16C3.4578 16 2.26085 15.5986 1.37832 14.8842C0.495797 14.1698 0 13.2008 0 12.1905V3.04762H0.941176V12.1905C0.941176 12.9988 1.33781 13.7739 2.04383 14.3455C2.74985 14.917 3.70742 15.2381 4.70588 15.2381H12.2353V16H4.70588Z" fill="#525252"/>
<path d="M8.47059 0.761905H9.47059V-0.238095H8.47059V0.761905ZM4.70588 0.761905V-0.238095V0.761905ZM2.82353 2.28571H1.82353H2.82353ZM2.82353 12.1905H1.82353H2.82353ZM15.0588 6.09524H16.0588V5.09524H15.0588V6.09524ZM14.6729 5.33333V6.33333H17.4976L15.3021 4.55609L14.6729 5.33333ZM9.41177 1.07429L10.041 0.297041L8.41177 -1.02183V1.07429H9.41177ZM4.70588 0V-1V0ZM9.41177 0L10.041 -0.777245L9.76579 -1H9.41177V0ZM16 5.33333H17V4.85626L16.6292 4.55609L16 5.33333ZM16 12.1905H17H16ZM13.1765 14.4762V15.4762V14.4762ZM4.70588 14.4762V15.4762V14.4762ZM4.70588 16V15V16ZM0 3.04762V2.04762H-1V3.04762H0ZM0.941176 3.04762H1.94118V2.04762H0.941176V3.04762ZM0.941176 12.1905H-0.0588235H0.941176ZM12.2353 15.2381H13.2353V14.2381H12.2353V15.2381ZM12.2353 16V17H13.2353V16H12.2353ZM11.2941 6.09524V5.09524C10.7501 5.09524 10.2603 4.91852 9.92678 4.64852L9.29758 5.42577L8.66838 6.20301C9.39388 6.79032 10.3404 7.09524 11.2941 7.09524V6.09524ZM9.29758 5.42577L9.92678 4.64852C9.59895 4.38314 9.47059 4.0741 9.47059 3.80952H8.47059H7.47059C7.47059 4.75737 7.93718 5.61109 8.66838 6.20301L9.29758 5.42577ZM8.47059 3.80952H9.47059V0.761905H8.47059H7.47059V3.80952H8.47059ZM8.47059 0.761905V-0.238095H4.70588V0.761905V1.7619H8.47059V0.761905ZM4.70588 0.761905V-0.238095C4.00181 -0.238095 3.29465 -0.0134511 2.74566 0.430973L3.37486 1.20822L4.00406 1.98546C4.16108 1.85835 4.41149 1.7619 4.70588 1.7619V0.761905ZM3.37486 1.20822L2.74566 0.430973C2.19096 0.880012 1.82353 1.53994 1.82353 2.28571H2.82353H3.82353C3.82353 2.22321 3.85273 2.10796 4.00406 1.98546L3.37486 1.20822ZM2.82353 2.28571H1.82353V12.1905H2.82353H3.82353V2.28571H2.82353ZM2.82353 12.1905H1.82353C1.82353 12.9362 2.19096 13.5962 2.74566 14.0452L3.37486 13.268L4.00406 12.4907C3.85273 12.3682 3.82353 12.253 3.82353 12.1905H2.82353ZM3.37486 13.268L2.74566 14.0452C3.29465 14.4896 4.00181 14.7143 4.70588 14.7143V13.7143V12.7143C4.41149 12.7143 4.16108 12.6178 4.00406 12.4907L3.37486 13.268ZM4.70588 13.7143V14.7143H13.1765V13.7143V12.7143H4.70588V13.7143ZM13.1765 13.7143V14.7143C13.8805 14.7143 14.5877 14.4896 15.1367 14.0452L14.5075 13.268L13.8783 12.4907C13.7213 12.6178 13.4709 12.7143 13.1765 12.7143V13.7143ZM14.5075 13.268L15.1367 14.0452C15.6914 13.5962 16.0588 12.9363 16.0588 12.1905H15.0588H14.0588C14.0588 12.253 14.0296 12.3682 13.8783 12.4907L14.5075 13.268ZM15.0588 12.1905H16.0588V6.09524H15.0588H14.0588V12.1905H15.0588ZM15.0588 6.09524V5.09524H11.2941V6.09524V7.09524H15.0588V6.09524ZM9.41177 3.80952H8.41177C8.41177 4.5553 8.7792 5.21523 9.3339 5.66426L9.96309 4.88702L10.5923 4.10977C10.441 3.98727 10.4118 3.87203 10.4118 3.80952H9.41177ZM9.96309 4.88702L9.3339 5.66426C9.88289 6.10869 10.59 6.33333 11.2941 6.33333V5.33333V4.33333C10.9997 4.33333 10.7493 4.23689 10.5923 4.10977L9.96309 4.88702ZM11.2941 5.33333V6.33333H14.6729V5.33333V4.33333H11.2941V5.33333ZM14.6729 5.33333L15.3021 4.55609L10.041 0.297041L9.41177 1.07429L8.78257 1.85153L14.0437 6.11058L14.6729 5.33333ZM9.41177 1.07429H8.41177V3.80952H9.41177H10.4118V1.07429H9.41177ZM4.70588 0V1H9.41177V0V-1H4.70588V0ZM9.41177 0L8.78257 0.777245L15.3708 6.11058L16 5.33333L16.6292 4.55609L10.041 -0.777245L9.41177 0ZM16 5.33333H15V12.1905H16H17V5.33333H16ZM16 12.1905H15C15 12.4551 14.8716 12.7641 14.5438 13.0295L15.173 13.8067L15.8022 14.584C16.5334 13.992 17 13.1383 17 12.1905H16ZM15.173 13.8067L14.5438 13.0295C14.2103 13.2995 13.7205 13.4762 13.1765 13.4762V14.4762V15.4762C14.1302 15.4762 15.0767 15.1713 15.8022 14.584L15.173 13.8067ZM13.1765 14.4762V13.4762H4.70588V14.4762V15.4762H13.1765V14.4762ZM4.70588 14.4762V13.4762C4.16187 13.4762 3.67207 13.2995 3.33854 13.0295L2.70935 13.8067L2.08015 14.584C2.80565 15.1713 3.7522 15.4762 4.70588 15.4762V14.4762ZM2.70935 13.8067L3.33854 13.0295C3.01071 12.7641 2.88235 12.4551 2.88235 12.1905H1.88235H0.882353C0.882353 13.1383 1.34895 13.992 2.08015 14.584L2.70935 13.8067ZM1.88235 12.1905H2.88235V2.28571H1.88235H0.882353V12.1905H1.88235ZM1.88235 2.28571H2.88235C2.88235 2.02114 3.01071 1.7121 3.33854 1.44672L2.70935 0.66947L2.08015 -0.107775C1.34895 0.484149 0.882353 1.33787 0.882353 2.28571H1.88235ZM2.70935 0.66947L3.33854 1.44672C3.67207 1.17672 4.16187 1 4.70588 1V0V-1C3.7522 -1 2.80565 -0.695084 2.08015 -0.107775L2.70935 0.66947ZM4.70588 16V15C3.66264 15 2.69406 14.6627 2.00752 14.107L1.37832 14.8842L0.749123 15.6615C1.82763 16.5345 3.25297 17 4.70588 17V16ZM1.37832 14.8842L2.00752 14.107C1.32668 13.5558 1 12.8592 1 12.1905H0H-1C-1 13.5425 -0.335086 14.7838 0.749123 15.6615L1.37832 14.8842ZM0 12.1905H1V3.04762H0H-1V12.1905H0ZM0 3.04762V4.04762H0.941176V3.04762V2.04762H0V3.04762ZM0.941176 3.04762H-0.0588235V12.1905H0.941176H1.94118V3.04762H0.941176ZM0.941176 12.1905H-0.0588235C-0.0588235 13.3404 0.506931 14.3879 1.41463 15.1227L2.04383 14.3455L2.67303 13.5682C2.1687 13.16 1.94118 12.6571 1.94118 12.1905H0.941176ZM2.04383 14.3455L1.41463 15.1227C2.31664 15.8529 3.50258 16.2381 4.70588 16.2381V15.2381V14.2381C3.91226 14.2381 3.18307 13.9811 2.67303 13.5682L2.04383 14.3455ZM4.70588 15.2381V16.2381H12.2353V15.2381V14.2381H4.70588V15.2381ZM12.2353 15.2381H11.2353V16H12.2353H13.2353V15.2381H12.2353ZM12.2353 16V15H4.70588V16V17H12.2353V16Z" fill="#666666" mask="url(#path-1-inside-1_507_145)"/>
<path d="M8.47059 0.761905H9.47059V-0.238095H8.47059V0.761905ZM4.70588 0.761905V-0.238095V0.761905ZM2.82353 2.28571H1.82353H2.82353ZM2.82353 12.1905H1.82353H2.82353ZM15.0588 6.09524H16.0588V5.09524H15.0588V6.09524ZM14.6729 5.33333V6.33333H17.4976L15.3021 4.55609L14.6729 5.33333ZM9.41177 1.07429L10.041 0.297041L8.41177 -1.02183V1.07429H9.41177ZM4.70588 0V-1V0ZM9.41177 0L10.041 -0.777245L9.76579 -1H9.41177V0ZM16 5.33333H17V4.85626L16.6292 4.55609L16 5.33333ZM16 12.1905H17H16ZM13.1765 14.4762V15.4762V14.4762ZM4.70588 14.4762V15.4762V14.4762ZM4.70588 16V15V16ZM0 3.04762V2.04762H-1V3.04762H0ZM0.941176 3.04762H1.94118V2.04762H0.941176V3.04762ZM0.941176 12.1905H-0.0588235H0.941176ZM12.2353 15.2381H13.2353V14.2381H12.2353V15.2381ZM12.2353 16V17H13.2353V16H12.2353ZM11.2941 6.09524V5.09524C10.7501 5.09524 10.2603 4.91852 9.92678 4.64852L9.29758 5.42577L8.66838 6.20301C9.39388 6.79032 10.3404 7.09524 11.2941 7.09524V6.09524ZM9.29758 5.42577L9.92678 4.64852C9.59895 4.38314 9.47059 4.0741 9.47059 3.80952H8.47059H7.47059C7.47059 4.75737 7.93718 5.61109 8.66838 6.20301L9.29758 5.42577ZM8.47059 3.80952H9.47059V0.761905H8.47059H7.47059V3.80952H8.47059ZM8.47059 0.761905V-0.238095H4.70588V0.761905V1.7619H8.47059V0.761905ZM4.70588 0.761905V-0.238095C4.00181 -0.238095 3.29465 -0.0134511 2.74566 0.430973L3.37486 1.20822L4.00406 1.98546C4.16108 1.85835 4.41149 1.7619 4.70588 1.7619V0.761905ZM3.37486 1.20822L2.74566 0.430973C2.19096 0.880012 1.82353 1.53994 1.82353 2.28571H2.82353H3.82353C3.82353 2.22321 3.85273 2.10796 4.00406 1.98546L3.37486 1.20822ZM2.82353 2.28571H1.82353V12.1905H2.82353H3.82353V2.28571H2.82353ZM2.82353 12.1905H1.82353C1.82353 12.9362 2.19096 13.5962 2.74566 14.0452L3.37486 13.268L4.00406 12.4907C3.85273 12.3682 3.82353 12.253 3.82353 12.1905H2.82353ZM3.37486 13.268L2.74566 14.0452C3.29465 14.4896 4.00181 14.7143 4.70588 14.7143V13.7143V12.7143C4.41149 12.7143 4.16108 12.6178 4.00406 12.4907L3.37486 13.268ZM4.70588 13.7143V14.7143H13.1765V13.7143V12.7143H4.70588V13.7143ZM13.1765 13.7143V14.7143C13.8805 14.7143 14.5877 14.4896 15.1367 14.0452L14.5075 13.268L13.8783 12.4907C13.7213 12.6178 13.4709 12.7143 13.1765 12.7143V13.7143ZM14.5075 13.268L15.1367 14.0452C15.6914 13.5962 16.0588 12.9363 16.0588 12.1905H15.0588H14.0588C14.0588 12.253 14.0296 12.3682 13.8783 12.4907L14.5075 13.268ZM15.0588 12.1905H16.0588V6.09524H15.0588H14.0588V12.1905H15.0588ZM15.0588 6.09524V5.09524H11.2941V6.09524V7.09524H15.0588V6.09524ZM9.41177 3.80952H8.41177C8.41177 4.5553 8.7792 5.21523 9.3339 5.66426L9.96309 4.88702L10.5923 4.10977C10.441 3.98727 10.4118 3.87203 10.4118 3.80952H9.41177ZM9.96309 4.88702L9.3339 5.66426C9.88289 6.10869 10.59 6.33333 11.2941 6.33333V5.33333V4.33333C10.9997 4.33333 10.7493 4.23689 10.5923 4.10977L9.96309 4.88702ZM11.2941 5.33333V6.33333H14.6729V5.33333V4.33333H11.2941V5.33333ZM14.6729 5.33333L15.3021 4.55609L10.041 0.297041L9.41177 1.07429L8.78257 1.85153L14.0437 6.11058L14.6729 5.33333ZM9.41177 1.07429H8.41177V3.80952H9.41177H10.4118V1.07429H9.41177ZM4.70588 0V1H9.41177V0V-1H4.70588V0ZM9.41177 0L8.78257 0.777245L15.3708 6.11058L16 5.33333L16.6292 4.55609L10.041 -0.777245L9.41177 0ZM16 5.33333H15V12.1905H16H17V5.33333H16ZM16 12.1905H15C15 12.4551 14.8716 12.7641 14.5438 13.0295L15.173 13.8067L15.8022 14.584C16.5334 13.992 17 13.1383 17 12.1905H16ZM15.173 13.8067L14.5438 13.0295C14.2103 13.2995 13.7205 13.4762 13.1765 13.4762V14.4762V15.4762C14.1302 15.4762 15.0767 15.1713 15.8022 14.584L15.173 13.8067ZM13.1765 14.4762V13.4762H4.70588V14.4762V15.4762H13.1765V14.4762ZM4.70588 14.4762V13.4762C4.16187 13.4762 3.67207 13.2995 3.33854 13.0295L2.70935 13.8067L2.08015 14.584C2.80565 15.1713 3.7522 15.4762 4.70588 15.4762V14.4762ZM2.70935 13.8067L3.33854 13.0295C3.01071 12.7641 2.88235 12.4551 2.88235 12.1905H1.88235H0.882353C0.882353 13.1383 1.34895 13.992 2.08015 14.584L2.70935 13.8067ZM1.88235 12.1905H2.88235V2.28571H1.88235H0.882353V12.1905H1.88235ZM1.88235 2.28571H2.88235C2.88235 2.02114 3.01071 1.7121 3.33854 1.44672L2.70935 0.66947L2.08015 -0.107775C1.34895 0.484149 0.882353 1.33787 0.882353 2.28571H1.88235ZM2.70935 0.66947L3.33854 1.44672C3.67207 1.17672 4.16187 1 4.70588 1V0V-1C3.7522 -1 2.80565 -0.695084 2.08015 -0.107775L2.70935 0.66947ZM4.70588 16V15C3.66264 15 2.69406 14.6627 2.00752 14.107L1.37832 14.8842L0.749123 15.6615C1.82763 16.5345 3.25297 17 4.70588 17V16ZM1.37832 14.8842L2.00752 14.107C1.32668 13.5558 1 12.8592 1 12.1905H0H-1C-1 13.5425 -0.335086 14.7838 0.749123 15.6615L1.37832 14.8842ZM0 12.1905H1V3.04762H0H-1V12.1905H0ZM0 3.04762V4.04762H0.941176V3.04762V2.04762H0V3.04762ZM0.941176 3.04762H-0.0588235V12.1905H0.941176H1.94118V3.04762H0.941176ZM0.941176 12.1905H-0.0588235C-0.0588235 13.3404 0.506931 14.3879 1.41463 15.1227L2.04383 14.3455L2.67303 13.5682C2.1687 13.16 1.94118 12.6571 1.94118 12.1905H0.941176ZM2.04383 14.3455L1.41463 15.1227C2.31664 15.8529 3.50258 16.2381 4.70588 16.2381V15.2381V14.2381C3.91226 14.2381 3.18307 13.9811 2.67303 13.5682L2.04383 14.3455ZM4.70588 15.2381V16.2381H12.2353V15.2381V14.2381H4.70588V15.2381ZM12.2353 15.2381H11.2353V16H12.2353H13.2353V15.2381H12.2353ZM12.2353 16V15H4.70588V16V17H12.2353V16Z" fill="black" fill-opacity="0.2" mask="url(#path-1-inside-1_507_145)"/>
</svg>
