<svg width="16" height="16" viewBox="0 0 16 16" fill="none" xmlns="http://www.w3.org/2000/svg">
<mask id="path-1-inside-1_507_147" fill="white">
<path d="M8 0C10.1217 0 12.1566 0.842855 13.6569 2.34315C15.1571 3.84344 16 5.87827 16 8C16 10.1217 15.1571 12.1566 13.6569 13.6569C12.1566 15.1571 10.1217 16 8 16C5.87827 16 3.84344 15.1571 2.34315 13.6569C0.842855 12.1566 0 10.1217 0 8C0 5.87827 0.842855 3.84344 2.34315 2.34315C3.84344 0.842855 5.87827 0 8 0ZM8 0.842105C6.10161 0.842105 4.28097 1.59624 2.9386 2.9386C1.59624 4.28097 0.842105 6.10161 0.842105 8C0.842105 9.89839 1.59624 11.719 2.9386 13.0614C4.28097 14.4038 6.10161 15.1579 8 15.1579C8.93999 15.1579 9.87077 14.9728 10.7392 14.613C11.6076 14.2533 12.3967 13.7261 13.0614 13.0614C13.7261 12.3967 14.2533 11.6076 14.613 10.7392C14.9728 9.87077 15.1579 8.93999 15.1579 8C15.1579 6.10161 14.4038 4.28097 13.0614 2.9386C11.719 1.59624 9.89839 0.842105 8 0.842105ZM7.57895 11.7895V10.1053H8.42105V11.7895H7.57895ZM7.57895 8.42105V4.21053H8.42105V8.42105H7.57895Z"/>
</mask>
<path d="M8 0C10.1217 0 12.1566 0.842855 13.6569 2.34315C15.1571 3.84344 16 5.87827 16 8C16 10.1217 15.1571 12.1566 13.6569 13.6569C12.1566 15.1571 10.1217 16 8 16C5.87827 16 3.84344 15.1571 2.34315 13.6569C0.842855 12.1566 0 10.1217 0 8C0 5.87827 0.842855 3.84344 2.34315 2.34315C3.84344 0.842855 5.87827 0 8 0ZM8 0.842105C6.10161 0.842105 4.28097 1.59624 2.9386 2.9386C1.59624 4.28097 0.842105 6.10161 0.842105 8C0.842105 9.89839 1.59624 11.719 2.9386 13.0614C4.28097 14.4038 6.10161 15.1579 8 15.1579C8.93999 15.1579 9.87077 14.9728 10.7392 14.613C11.6076 14.2533 12.3967 13.7261 13.0614 13.0614C13.7261 12.3967 14.2533 11.6076 14.613 10.7392C14.9728 9.87077 15.1579 8.93999 15.1579 8C15.1579 6.10161 14.4038 4.28097 13.0614 2.9386C11.719 1.59624 9.89839 0.842105 8 0.842105ZM7.57895 11.7895V10.1053H8.42105V11.7895H7.57895ZM7.57895 8.42105V4.21053H8.42105V8.42105H7.57895Z" fill="#525252"/>
<path d="M8 0V-1V0ZM16 8H17H16ZM8 16V17V16ZM0 8H-1H0ZM8 0.842105V-0.157895V0.842105ZM0.842105 8H-0.157895H0.842105ZM8 15.1579V14.1579V15.1579ZM15.1579 8H16.1579H15.1579ZM7.57895 11.7895H6.57895V12.7895H7.57895V11.7895ZM7.57895 10.1053V9.10526H6.57895V10.1053H7.57895ZM8.42105 10.1053H9.42105V9.10526H8.42105V10.1053ZM8.42105 11.7895V12.7895H9.42105V11.7895H8.42105ZM7.57895 8.42105H6.57895V9.42105H7.57895V8.42105ZM7.57895 4.21053V3.21053H6.57895V4.21053H7.57895ZM8.42105 4.21053H9.42105V3.21053H8.42105V4.21053ZM8.42105 8.42105V9.42105H9.42105V8.42105H8.42105ZM8 0V1C9.85652 1 11.637 1.7375 12.9497 3.05025L13.6569 2.34315L14.364 1.63604C12.6761 -0.0517885 10.3869 -1 8 -1V0ZM13.6569 2.34315L12.9497 3.05025C14.2625 4.36301 15 6.14348 15 8H16H17C17 5.61305 16.0518 3.32387 14.364 1.63604L13.6569 2.34315ZM16 8H15C15 9.85652 14.2625 11.637 12.9497 12.9497L13.6569 13.6569L14.364 14.364C16.0518 12.6761 17 10.3869 17 8H16ZM13.6569 13.6569L12.9497 12.9497C11.637 14.2625 9.85652 15 8 15V16V17C10.3869 17 12.6761 16.0518 14.364 14.364L13.6569 13.6569ZM8 16V15C6.14348 15 4.36301 14.2625 3.05025 12.9497L2.34315 13.6569L1.63604 14.364C3.32387 16.0518 5.61305 17 8 17V16ZM2.34315 13.6569L3.05025 12.9497C1.7375 11.637 1 9.85652 1 8H0H-1C-1 10.3869 -0.0517885 12.6761 1.63604 14.364L2.34315 13.6569ZM0 8H1C1 6.14348 1.7375 4.36301 3.05025 3.05025L2.34315 2.34315L1.63604 1.63604C-0.0517885 3.32387 -1 5.61305 -1 8H0ZM2.34315 2.34315L3.05025 3.05025C4.36301 1.7375 6.14348 1 8 1V0V-1C5.61305 -1 3.32387 -0.0517885 1.63604 1.63604L2.34315 2.34315ZM8 0.842105V-0.157895C5.83639 -0.157895 3.7614 0.701595 2.2315 2.2315L2.9386 2.9386L3.64571 3.64571C4.80054 2.49088 6.36683 1.84211 8 1.84211V0.842105ZM2.9386 2.9386L2.2315 2.2315C0.701595 3.7614 -0.157895 5.83639 -0.157895 8H0.842105H1.84211C1.84211 6.36683 2.49088 4.80054 3.64571 3.64571L2.9386 2.9386ZM0.842105 8H-0.157895C-0.157895 10.1636 0.701595 12.2386 2.2315 13.7685L2.9386 13.0614L3.64571 12.3543C2.49088 11.1995 1.84211 9.63317 1.84211 8H0.842105ZM2.9386 13.0614L2.2315 13.7685C3.7614 15.2984 5.83639 16.1579 8 16.1579V15.1579V14.1579C6.36682 14.1579 4.80054 13.5091 3.64571 12.3543L2.9386 13.0614ZM8 15.1579V16.1579C9.07131 16.1579 10.1321 15.9469 11.1219 15.5369L10.7392 14.613L10.3565 13.6892C9.60941 13.9986 8.80867 14.1579 8 14.1579V15.1579ZM10.7392 14.613L11.1219 15.5369C12.1117 15.1269 13.011 14.526 13.7685 13.7685L13.0614 13.0614L12.3543 12.3543C11.7825 12.9261 11.1036 13.3797 10.3565 13.6892L10.7392 14.613ZM13.0614 13.0614L13.7685 13.7685C14.526 13.011 15.1269 12.1117 15.5369 11.1219L14.613 10.7392L13.6892 10.3565C13.3797 11.1036 12.9261 11.7825 12.3543 12.3543L13.0614 13.0614ZM14.613 10.7392L15.5369 11.1219C15.9469 10.1321 16.1579 9.07131 16.1579 8H15.1579H14.1579C14.1579 8.80867 13.9986 9.60941 13.6892 10.3565L14.613 10.7392ZM15.1579 8H16.1579C16.1579 5.83639 15.2984 3.7614 13.7685 2.2315L13.0614 2.9386L12.3543 3.64571C13.5091 4.80054 14.1579 6.36682 14.1579 8H15.1579ZM13.0614 2.9386L13.7685 2.2315C12.2386 0.701595 10.1636 -0.157895 8 -0.157895V0.842105V1.84211C9.63317 1.84211 11.1995 2.49088 12.3543 3.64571L13.0614 2.9386ZM7.57895 11.7895H8.57895V10.1053H7.57895H6.57895V11.7895H7.57895ZM7.57895 10.1053V11.1053H8.42105V10.1053V9.10526H7.57895V10.1053ZM8.42105 10.1053H7.42105V11.7895H8.42105H9.42105V10.1053H8.42105ZM8.42105 11.7895V10.7895H7.57895V11.7895V12.7895H8.42105V11.7895ZM7.57895 8.42105H8.57895V4.21053H7.57895H6.57895V8.42105H7.57895ZM7.57895 4.21053V5.21053H8.42105V4.21053V3.21053H7.57895V4.21053ZM8.42105 4.21053H7.42105V8.42105H8.42105H9.42105V4.21053H8.42105ZM8.42105 8.42105V7.42105H7.57895V8.42105V9.42105H8.42105V8.42105Z" fill="#666666" mask="url(#path-1-inside-1_507_147)"/>
<path d="M8 0V-1V0ZM16 8H17H16ZM8 16V17V16ZM0 8H-1H0ZM8 0.842105V-0.157895V0.842105ZM0.842105 8H-0.157895H0.842105ZM8 15.1579V14.1579V15.1579ZM15.1579 8H16.1579H15.1579ZM7.57895 11.7895H6.57895V12.7895H7.57895V11.7895ZM7.57895 10.1053V9.10526H6.57895V10.1053H7.57895ZM8.42105 10.1053H9.42105V9.10526H8.42105V10.1053ZM8.42105 11.7895V12.7895H9.42105V11.7895H8.42105ZM7.57895 8.42105H6.57895V9.42105H7.57895V8.42105ZM7.57895 4.21053V3.21053H6.57895V4.21053H7.57895ZM8.42105 4.21053H9.42105V3.21053H8.42105V4.21053ZM8.42105 8.42105V9.42105H9.42105V8.42105H8.42105ZM8 0V1C9.85652 1 11.637 1.7375 12.9497 3.05025L13.6569 2.34315L14.364 1.63604C12.6761 -0.0517885 10.3869 -1 8 -1V0ZM13.6569 2.34315L12.9497 3.05025C14.2625 4.36301 15 6.14348 15 8H16H17C17 5.61305 16.0518 3.32387 14.364 1.63604L13.6569 2.34315ZM16 8H15C15 9.85652 14.2625 11.637 12.9497 12.9497L13.6569 13.6569L14.364 14.364C16.0518 12.6761 17 10.3869 17 8H16ZM13.6569 13.6569L12.9497 12.9497C11.637 14.2625 9.85652 15 8 15V16V17C10.3869 17 12.6761 16.0518 14.364 14.364L13.6569 13.6569ZM8 16V15C6.14348 15 4.36301 14.2625 3.05025 12.9497L2.34315 13.6569L1.63604 14.364C3.32387 16.0518 5.61305 17 8 17V16ZM2.34315 13.6569L3.05025 12.9497C1.7375 11.637 1 9.85652 1 8H0H-1C-1 10.3869 -0.0517885 12.6761 1.63604 14.364L2.34315 13.6569ZM0 8H1C1 6.14348 1.7375 4.36301 3.05025 3.05025L2.34315 2.34315L1.63604 1.63604C-0.0517885 3.32387 -1 5.61305 -1 8H0ZM2.34315 2.34315L3.05025 3.05025C4.36301 1.7375 6.14348 1 8 1V0V-1C5.61305 -1 3.32387 -0.0517885 1.63604 1.63604L2.34315 2.34315ZM8 0.842105V-0.157895C5.83639 -0.157895 3.7614 0.701595 2.2315 2.2315L2.9386 2.9386L3.64571 3.64571C4.80054 2.49088 6.36683 1.84211 8 1.84211V0.842105ZM2.9386 2.9386L2.2315 2.2315C0.701595 3.7614 -0.157895 5.83639 -0.157895 8H0.842105H1.84211C1.84211 6.36683 2.49088 4.80054 3.64571 3.64571L2.9386 2.9386ZM0.842105 8H-0.157895C-0.157895 10.1636 0.701595 12.2386 2.2315 13.7685L2.9386 13.0614L3.64571 12.3543C2.49088 11.1995 1.84211 9.63317 1.84211 8H0.842105ZM2.9386 13.0614L2.2315 13.7685C3.7614 15.2984 5.83639 16.1579 8 16.1579V15.1579V14.1579C6.36682 14.1579 4.80054 13.5091 3.64571 12.3543L2.9386 13.0614ZM8 15.1579V16.1579C9.07131 16.1579 10.1321 15.9469 11.1219 15.5369L10.7392 14.613L10.3565 13.6892C9.60941 13.9986 8.80867 14.1579 8 14.1579V15.1579ZM10.7392 14.613L11.1219 15.5369C12.1117 15.1269 13.011 14.526 13.7685 13.7685L13.0614 13.0614L12.3543 12.3543C11.7825 12.9261 11.1036 13.3797 10.3565 13.6892L10.7392 14.613ZM13.0614 13.0614L13.7685 13.7685C14.526 13.011 15.1269 12.1117 15.5369 11.1219L14.613 10.7392L13.6892 10.3565C13.3797 11.1036 12.9261 11.7825 12.3543 12.3543L13.0614 13.0614ZM14.613 10.7392L15.5369 11.1219C15.9469 10.1321 16.1579 9.07131 16.1579 8H15.1579H14.1579C14.1579 8.80867 13.9986 9.60941 13.6892 10.3565L14.613 10.7392ZM15.1579 8H16.1579C16.1579 5.83639 15.2984 3.7614 13.7685 2.2315L13.0614 2.9386L12.3543 3.64571C13.5091 4.80054 14.1579 6.36682 14.1579 8H15.1579ZM13.0614 2.9386L13.7685 2.2315C12.2386 0.701595 10.1636 -0.157895 8 -0.157895V0.842105V1.84211C9.63317 1.84211 11.1995 2.49088 12.3543 3.64571L13.0614 2.9386ZM7.57895 11.7895H8.57895V10.1053H7.57895H6.57895V11.7895H7.57895ZM7.57895 10.1053V11.1053H8.42105V10.1053V9.10526H7.57895V10.1053ZM8.42105 10.1053H7.42105V11.7895H8.42105H9.42105V10.1053H8.42105ZM8.42105 11.7895V10.7895H7.57895V11.7895V12.7895H8.42105V11.7895ZM7.57895 8.42105H8.57895V4.21053H7.57895H6.57895V8.42105H7.57895ZM7.57895 4.21053V5.21053H8.42105V4.21053V3.21053H7.57895V4.21053ZM8.42105 4.21053H7.42105V8.42105H8.42105H9.42105V4.21053H8.42105ZM8.42105 8.42105V7.42105H7.57895V8.42105V9.42105H8.42105V8.42105Z" fill="black" fill-opacity="0.2" mask="url(#path-1-inside-1_507_147)"/>
</svg>
