<svg width="16" height="16" viewBox="0 0 16 16" fill="none" xmlns="http://www.w3.org/2000/svg">
<path d="M2.55469 2.06543C1.41317 2.97512 0.730487 4.1755 0.730469 5.47363C0.730469 6.50442 1.15051 7.41689 1.83789 8.20996L1.8418 8.21387L7.62598 14.7236L8 15.1445L8.37402 14.7236L14.1582 8.21387L14.1621 8.20996C14.8495 7.41689 15.2695 6.50442 15.2695 5.47363C15.2695 4.17776 14.5891 2.97943 13.4512 2.07031C14.8032 3.02291 15.5 4.25199 15.5 5.47363C15.5 6.37173 15.1311 7.22594 14.457 7.9873L8 15.2471L1.54297 7.9873C0.868878 7.22594 0.5 6.37173 0.5 5.47363C0.50002 4.25012 1.19853 3.01863 2.55469 2.06543ZM6.19141 4.34375C5.86824 4.63737 5.65431 5.02726 5.6543 5.47363C5.6543 5.91978 5.86853 6.30896 6.19141 6.60254C6.1629 6.58473 6.13369 6.56845 6.10645 6.5498C5.62694 6.2217 5.42285 5.82497 5.42285 5.47363C5.42287 5.1223 5.62693 4.72556 6.10645 4.39746C6.13385 4.37871 6.16273 4.36165 6.19141 4.34375ZM9.89355 4.39746C10.3731 4.72556 10.5771 5.1223 10.5771 5.47363C10.5771 5.65152 10.5263 5.8367 10.415 6.02051C10.3028 6.20589 10.1297 6.38824 9.89355 6.5498C9.86614 6.56856 9.83643 6.58455 9.80762 6.60254C10.1308 6.30891 10.3457 5.92003 10.3457 5.47363C10.3457 5.02701 10.1311 4.63743 9.80762 4.34375C9.83653 4.36179 9.86593 4.37856 9.89355 4.39746Z" fill="#525252"/>
<path d="M2.55469 2.06543C1.41317 2.97512 0.730487 4.1755 0.730469 5.47363C0.730469 6.50442 1.15051 7.41689 1.83789 8.20996L1.8418 8.21387L7.62598 14.7236L8 15.1445L8.37402 14.7236L14.1582 8.21387L14.1621 8.20996C14.8495 7.41689 15.2695 6.50442 15.2695 5.47363C15.2695 4.17776 14.5891 2.97943 13.4512 2.07031C14.8032 3.02291 15.5 4.25199 15.5 5.47363C15.5 6.37173 15.1311 7.22594 14.457 7.9873L8 15.2471L1.54297 7.9873C0.868878 7.22594 0.5 6.37173 0.5 5.47363C0.50002 4.25012 1.19853 3.01863 2.55469 2.06543ZM6.19141 4.34375C5.86824 4.63737 5.65431 5.02726 5.6543 5.47363C5.6543 5.91978 5.86853 6.30896 6.19141 6.60254C6.1629 6.58473 6.13369 6.56845 6.10645 6.5498C5.62694 6.2217 5.42285 5.82497 5.42285 5.47363C5.42287 5.1223 5.62693 4.72556 6.10645 4.39746C6.13385 4.37871 6.16273 4.36165 6.19141 4.34375ZM9.89355 4.39746C10.3731 4.72556 10.5771 5.1223 10.5771 5.47363C10.5771 5.65152 10.5263 5.8367 10.415 6.02051C10.3028 6.20589 10.1297 6.38824 9.89355 6.5498C9.86614 6.56856 9.83643 6.58455 9.80762 6.60254C10.1308 6.30891 10.3457 5.92003 10.3457 5.47363C10.3457 5.02701 10.1311 4.63743 9.80762 4.34375C9.83653 4.36179 9.86593 4.37856 9.89355 4.39746Z" stroke="#666666"/>
<path d="M2.55469 2.06543C1.41317 2.97512 0.730487 4.1755 0.730469 5.47363C0.730469 6.50442 1.15051 7.41689 1.83789 8.20996L1.8418 8.21387L7.62598 14.7236L8 15.1445L8.37402 14.7236L14.1582 8.21387L14.1621 8.20996C14.8495 7.41689 15.2695 6.50442 15.2695 5.47363C15.2695 4.17776 14.5891 2.97943 13.4512 2.07031C14.8032 3.02291 15.5 4.25199 15.5 5.47363C15.5 6.37173 15.1311 7.22594 14.457 7.9873L8 15.2471L1.54297 7.9873C0.868878 7.22594 0.5 6.37173 0.5 5.47363C0.50002 4.25012 1.19853 3.01863 2.55469 2.06543ZM6.19141 4.34375C5.86824 4.63737 5.65431 5.02726 5.6543 5.47363C5.6543 5.91978 5.86853 6.30896 6.19141 6.60254C6.1629 6.58473 6.13369 6.56845 6.10645 6.5498C5.62694 6.2217 5.42285 5.82497 5.42285 5.47363C5.42287 5.1223 5.62693 4.72556 6.10645 4.39746C6.13385 4.37871 6.16273 4.36165 6.19141 4.34375ZM9.89355 4.39746C10.3731 4.72556 10.5771 5.1223 10.5771 5.47363C10.5771 5.65152 10.5263 5.8367 10.415 6.02051C10.3028 6.20589 10.1297 6.38824 9.89355 6.5498C9.86614 6.56856 9.83643 6.58455 9.80762 6.60254C10.1308 6.30891 10.3457 5.92003 10.3457 5.47363C10.3457 5.02701 10.1311 4.63743 9.80762 4.34375C9.83653 4.36179 9.86593 4.37856 9.89355 4.39746Z" stroke="black" stroke-opacity="0.2"/>
</svg>
