<svg width="16" height="16" viewBox="0 0 16 16" fill="none" xmlns="http://www.w3.org/2000/svg">
<mask id="path-1-inside-1_507_144" fill="white">
<path d="M16 6.01041V13.5026C16 14.165 15.7338 14.8002 15.2601 15.2685C14.7863 15.7369 14.1437 16 13.4737 16H2.52632C1.8563 16 1.21372 15.7369 0.739941 15.2685C0.266165 14.8002 0 14.165 0 13.5026V6.01041C0 5.08637 0.505263 4.27888 1.26316 3.84599L8 0L14.7368 3.84599C15.4947 4.27888 16 5.08637 16 6.01041ZM1.44842 4.73673L8 8.92404L14.5516 4.73673L8 0.957336L1.44842 4.73673ZM8 9.93132L0.951579 5.41103C0.884211 5.59417 0.842105 5.80229 0.842105 6.01041V13.5026C0.842105 13.9442 1.01955 14.3677 1.3354 14.6799C1.65125 14.9921 2.07964 15.1675 2.52632 15.1675H13.4737C13.9204 15.1675 14.3488 14.9921 14.6646 14.6799C14.9805 14.3677 15.1579 13.9442 15.1579 13.5026V6.01041C15.1579 5.80229 15.1158 5.59417 15.0484 5.41103L8 9.93132Z"/>
</mask>
<path d="M16 6.01041V13.5026C16 14.165 15.7338 14.8002 15.2601 15.2685C14.7863 15.7369 14.1437 16 13.4737 16H2.52632C1.8563 16 1.21372 15.7369 0.739941 15.2685C0.266165 14.8002 0 14.165 0 13.5026V6.01041C0 5.08637 0.505263 4.27888 1.26316 3.84599L8 0L14.7368 3.84599C15.4947 4.27888 16 5.08637 16 6.01041ZM1.44842 4.73673L8 8.92404L14.5516 4.73673L8 0.957336L1.44842 4.73673ZM8 9.93132L0.951579 5.41103C0.884211 5.59417 0.842105 5.80229 0.842105 6.01041V13.5026C0.842105 13.9442 1.01955 14.3677 1.3354 14.6799C1.65125 14.9921 2.07964 15.1675 2.52632 15.1675H13.4737C13.9204 15.1675 14.3488 14.9921 14.6646 14.6799C14.9805 14.3677 15.1579 13.9442 15.1579 13.5026V6.01041C15.1579 5.80229 15.1158 5.59417 15.0484 5.41103L8 9.93132Z" fill="#525252"/>
<path d="M16 13.5026H17H16ZM13.4737 16V17V16ZM2.52632 16V17V16ZM0 13.5026H-1H0ZM1.26316 3.84599L0.767372 2.97755L0.767192 2.97765L1.26316 3.84599ZM8 0L8.49579 -0.868445L8 -1.15148L7.50421 -0.868445L8 0ZM14.7368 3.84599L15.2328 2.97765L15.2326 2.97755L14.7368 3.84599ZM1.44842 4.73673L0.948734 3.87053L-0.476958 4.69296L0.909888 5.57934L1.44842 4.73673ZM8 8.92404L7.46147 9.76664L8 10.1108L8.53853 9.76664L8 8.92404ZM14.5516 4.73673L15.0901 5.57934L16.477 4.69296L15.0513 3.87053L14.5516 4.73673ZM8 0.957336L8.49969 0.0911299L8 -0.197123L7.50031 0.0911299L8 0.957336ZM8 9.93132L7.46016 10.7731L8 11.1193L8.53984 10.7731L8 9.93132ZM0.951579 5.41103L1.49142 4.56926L0.443033 3.89691L0.0130613 5.0658L0.951579 5.41103ZM0.842105 13.5026H-0.157895H0.842105ZM15.0484 5.41103L15.9869 5.0658L15.557 3.89691L14.5086 4.56926L15.0484 5.41103ZM16 6.01041H15V13.5026H16H17V6.01041H16ZM16 13.5026H15C15 13.896 14.842 14.2756 14.557 14.5574L15.2601 15.2685L15.9631 15.9797C16.6256 15.3247 17 14.4339 17 13.5026H16ZM15.2601 15.2685L14.557 14.5574C14.2717 14.8395 13.8822 15 13.4737 15V16V17C14.4052 17 15.3009 16.6343 15.9631 15.9797L15.2601 15.2685ZM13.4737 16V15H2.52632V16V17H13.4737V16ZM2.52632 16L2.52632 15C2.11782 15 1.72834 14.8395 1.44297 14.5574L0.739941 15.2685L0.0369159 15.9797C0.69909 16.6343 1.59477 17 2.52632 17V16ZM0.739941 15.2685L1.44297 14.5574C1.15798 14.2756 1 13.896 1 13.5026H0H-1C-1 14.4339 -0.625648 15.3247 0.0369159 15.9797L0.739941 15.2685ZM0 13.5026H1V6.01041H0H-1V13.5026H0ZM0 6.01041H1C1 5.46186 1.29825 4.97757 1.75912 4.71434L1.26316 3.84599L0.767192 2.97765C-0.287722 3.58018 -1 4.71088 -1 6.01041H0ZM1.26316 3.84599L1.75894 4.71444L8.49579 0.868445L8 0L7.50421 -0.868445L0.767372 2.97755L1.26316 3.84599ZM8 0L7.50421 0.868445L14.2411 4.71444L14.7368 3.84599L15.2326 2.97755L8.49579 -0.868445L8 0ZM14.7368 3.84599L14.2409 4.71434C14.7018 4.97757 15 5.46186 15 6.01041H16H17C17 4.71088 16.2877 3.58018 15.2328 2.97765L14.7368 3.84599ZM1.44842 4.73673L0.909888 5.57934L7.46147 9.76664L8 8.92404L8.53853 8.08143L1.98695 3.89413L1.44842 4.73673ZM8 8.92404L8.53853 9.76664L15.0901 5.57934L14.5516 4.73673L14.013 3.89413L7.46147 8.08143L8 8.92404ZM14.5516 4.73673L15.0513 3.87053L8.49969 0.0911299L8 0.957336L7.50031 1.82354L14.0519 5.60294L14.5516 4.73673ZM8 0.957336L7.50031 0.0911299L0.948734 3.87053L1.44842 4.73673L1.94811 5.60294L8.49969 1.82354L8 0.957336ZM8 9.93132L8.53984 9.08955L1.49142 4.56926L0.951579 5.41103L0.411737 6.2528L7.46016 10.7731L8 9.93132ZM0.951579 5.41103L0.0130613 5.0658C-0.0905068 5.34735 -0.157895 5.67221 -0.157895 6.01041H0.842105H1.84211C1.84211 5.93237 1.85893 5.84099 1.8901 5.75626L0.951579 5.41103ZM0.842105 6.01041H-0.157895V13.5026H0.842105H1.84211V6.01041H0.842105ZM0.842105 13.5026H-0.157895C-0.157895 14.2131 0.127736 14.8922 0.632374 15.3911L1.3354 14.6799L2.03842 13.9687C1.91136 13.8431 1.84211 13.6752 1.84211 13.5026H0.842105ZM1.3354 14.6799L0.632374 15.3911C1.13662 15.8895 1.81811 16.1675 2.52632 16.1675V15.1675V14.1675C2.34116 14.1675 2.16588 14.0947 2.03842 13.9687L1.3354 14.6799ZM2.52632 15.1675V16.1675H13.4737V15.1675V14.1675H2.52632V15.1675ZM13.4737 15.1675V16.1675C14.1819 16.1675 14.8634 15.8895 15.3676 15.3911L14.6646 14.6799L13.9616 13.9687C13.8341 14.0947 13.6588 14.1675 13.4737 14.1675V15.1675ZM14.6646 14.6799L15.3676 15.3911C15.8723 14.8922 16.1579 14.2131 16.1579 13.5026H15.1579H14.1579C14.1579 13.6752 14.0886 13.8431 13.9616 13.9687L14.6646 14.6799ZM15.1579 13.5026H16.1579V6.01041H15.1579H14.1579V13.5026H15.1579ZM15.1579 6.01041H16.1579C16.1579 5.67221 16.0905 5.34735 15.9869 5.0658L15.0484 5.41103L14.1099 5.75626C14.1411 5.84099 14.1579 5.93237 14.1579 6.01041H15.1579ZM15.0484 5.41103L14.5086 4.56926L7.46016 9.08955L8 9.93132L8.53984 10.7731L15.5883 6.2528L15.0484 5.41103Z" fill="#666666" mask="url(#path-1-inside-1_507_144)"/>
<path d="M16 13.5026H17H16ZM13.4737 16V17V16ZM2.52632 16V17V16ZM0 13.5026H-1H0ZM1.26316 3.84599L0.767372 2.97755L0.767192 2.97765L1.26316 3.84599ZM8 0L8.49579 -0.868445L8 -1.15148L7.50421 -0.868445L8 0ZM14.7368 3.84599L15.2328 2.97765L15.2326 2.97755L14.7368 3.84599ZM1.44842 4.73673L0.948734 3.87053L-0.476958 4.69296L0.909888 5.57934L1.44842 4.73673ZM8 8.92404L7.46147 9.76664L8 10.1108L8.53853 9.76664L8 8.92404ZM14.5516 4.73673L15.0901 5.57934L16.477 4.69296L15.0513 3.87053L14.5516 4.73673ZM8 0.957336L8.49969 0.0911299L8 -0.197123L7.50031 0.0911299L8 0.957336ZM8 9.93132L7.46016 10.7731L8 11.1193L8.53984 10.7731L8 9.93132ZM0.951579 5.41103L1.49142 4.56926L0.443033 3.89691L0.0130613 5.0658L0.951579 5.41103ZM0.842105 13.5026H-0.157895H0.842105ZM15.0484 5.41103L15.9869 5.0658L15.557 3.89691L14.5086 4.56926L15.0484 5.41103ZM16 6.01041H15V13.5026H16H17V6.01041H16ZM16 13.5026H15C15 13.896 14.842 14.2756 14.557 14.5574L15.2601 15.2685L15.9631 15.9797C16.6256 15.3247 17 14.4339 17 13.5026H16ZM15.2601 15.2685L14.557 14.5574C14.2717 14.8395 13.8822 15 13.4737 15V16V17C14.4052 17 15.3009 16.6343 15.9631 15.9797L15.2601 15.2685ZM13.4737 16V15H2.52632V16V17H13.4737V16ZM2.52632 16L2.52632 15C2.11782 15 1.72834 14.8395 1.44297 14.5574L0.739941 15.2685L0.0369159 15.9797C0.69909 16.6343 1.59477 17 2.52632 17V16ZM0.739941 15.2685L1.44297 14.5574C1.15798 14.2756 1 13.896 1 13.5026H0H-1C-1 14.4339 -0.625648 15.3247 0.0369159 15.9797L0.739941 15.2685ZM0 13.5026H1V6.01041H0H-1V13.5026H0ZM0 6.01041H1C1 5.46186 1.29825 4.97757 1.75912 4.71434L1.26316 3.84599L0.767192 2.97765C-0.287722 3.58018 -1 4.71088 -1 6.01041H0ZM1.26316 3.84599L1.75894 4.71444L8.49579 0.868445L8 0L7.50421 -0.868445L0.767372 2.97755L1.26316 3.84599ZM8 0L7.50421 0.868445L14.2411 4.71444L14.7368 3.84599L15.2326 2.97755L8.49579 -0.868445L8 0ZM14.7368 3.84599L14.2409 4.71434C14.7018 4.97757 15 5.46186 15 6.01041H16H17C17 4.71088 16.2877 3.58018 15.2328 2.97765L14.7368 3.84599ZM1.44842 4.73673L0.909888 5.57934L7.46147 9.76664L8 8.92404L8.53853 8.08143L1.98695 3.89413L1.44842 4.73673ZM8 8.92404L8.53853 9.76664L15.0901 5.57934L14.5516 4.73673L14.013 3.89413L7.46147 8.08143L8 8.92404ZM14.5516 4.73673L15.0513 3.87053L8.49969 0.0911299L8 0.957336L7.50031 1.82354L14.0519 5.60294L14.5516 4.73673ZM8 0.957336L7.50031 0.0911299L0.948734 3.87053L1.44842 4.73673L1.94811 5.60294L8.49969 1.82354L8 0.957336ZM8 9.93132L8.53984 9.08955L1.49142 4.56926L0.951579 5.41103L0.411737 6.2528L7.46016 10.7731L8 9.93132ZM0.951579 5.41103L0.0130613 5.0658C-0.0905068 5.34735 -0.157895 5.67221 -0.157895 6.01041H0.842105H1.84211C1.84211 5.93237 1.85893 5.84099 1.8901 5.75626L0.951579 5.41103ZM0.842105 6.01041H-0.157895V13.5026H0.842105H1.84211V6.01041H0.842105ZM0.842105 13.5026H-0.157895C-0.157895 14.2131 0.127736 14.8922 0.632374 15.3911L1.3354 14.6799L2.03842 13.9687C1.91136 13.8431 1.84211 13.6752 1.84211 13.5026H0.842105ZM1.3354 14.6799L0.632374 15.3911C1.13662 15.8895 1.81811 16.1675 2.52632 16.1675V15.1675V14.1675C2.34116 14.1675 2.16588 14.0947 2.03842 13.9687L1.3354 14.6799ZM2.52632 15.1675V16.1675H13.4737V15.1675V14.1675H2.52632V15.1675ZM13.4737 15.1675V16.1675C14.1819 16.1675 14.8634 15.8895 15.3676 15.3911L14.6646 14.6799L13.9616 13.9687C13.8341 14.0947 13.6588 14.1675 13.4737 14.1675V15.1675ZM14.6646 14.6799L15.3676 15.3911C15.8723 14.8922 16.1579 14.2131 16.1579 13.5026H15.1579H14.1579C14.1579 13.6752 14.0886 13.8431 13.9616 13.9687L14.6646 14.6799ZM15.1579 13.5026H16.1579V6.01041H15.1579H14.1579V13.5026H15.1579ZM15.1579 6.01041H16.1579C16.1579 5.67221 16.0905 5.34735 15.9869 5.0658L15.0484 5.41103L14.1099 5.75626C14.1411 5.84099 14.1579 5.93237 14.1579 6.01041H15.1579ZM15.0484 5.41103L14.5086 4.56926L7.46016 9.08955L8 9.93132L8.53984 10.7731L15.5883 6.2528L15.0484 5.41103Z" fill="black" fill-opacity="0.2" mask="url(#path-1-inside-1_507_144)"/>
</svg>
