<svg width="16" height="16" viewBox="0 0 16 16" fill="none" xmlns="http://www.w3.org/2000/svg">
<mask id="path-1-inside-1_507_149" fill="white">
<path d="M14.7368 16C15.0719 16 15.3931 15.8669 15.63 15.63C15.8669 15.3931 16 15.0719 16 14.7368V11.7895C16 11.4545 15.8669 11.1332 15.63 10.8963C15.3931 10.6594 15.0719 10.5263 14.7368 10.5263C13.7516 10.5263 12.7832 10.3747 11.8568 10.0632C11.6354 9.99325 11.399 9.98534 11.1733 10.0403C10.9477 10.0952 10.7414 10.2109 10.5768 10.3747L9.36421 11.5874C7.26925 10.4441 5.54744 8.72232 4.40421 6.62737L5.60842 5.42316C5.95368 5.09474 6.08 4.60632 5.92842 4.13474C5.62526 3.21684 5.47368 2.24842 5.47368 1.26316C5.47368 0.928148 5.3406 0.606858 5.10371 0.36997C4.86683 0.133082 4.54554 0 4.21053 0H1.26316C0.928148 0 0.606858 0.133082 0.36997 0.36997C0.133082 0.606858 0 0.928148 0 1.26316C0 9.38947 6.61053 16 14.7368 16ZM1.26316 0.842105H4.21053C4.3222 0.842105 4.42929 0.886466 4.50826 0.965429C4.58722 1.04439 4.63158 1.15149 4.63158 1.26316C4.63158 2.34105 4.8 3.39368 5.12842 4.39579C5.17053 4.51368 5.16211 4.68211 5.02737 4.81684L3.36842 6.46737C4.75789 9.18737 6.79579 11.2253 9.52421 12.6316L11.1663 10.9726C11.2842 10.8547 11.4442 10.8211 11.5958 10.8632C12.6063 11.2 13.6589 11.3684 14.7368 11.3684C14.8485 11.3684 14.9556 11.4128 15.0346 11.4917C15.1135 11.5707 15.1579 11.6778 15.1579 11.7895V14.7368C15.1579 14.8485 15.1135 14.9556 15.0346 15.0346C14.9556 15.1135 14.8485 15.1579 14.7368 15.1579C7.07368 15.1579 0.842105 8.92632 0.842105 1.26316C0.842105 1.15149 0.886466 1.04439 0.965429 0.965429C1.04439 0.886466 1.15149 0.842105 1.26316 0.842105Z"/>
</mask>
<path d="M14.7368 16C15.0719 16 15.3931 15.8669 15.63 15.63C15.8669 15.3931 16 15.0719 16 14.7368V11.7895C16 11.4545 15.8669 11.1332 15.63 10.8963C15.3931 10.6594 15.0719 10.5263 14.7368 10.5263C13.7516 10.5263 12.7832 10.3747 11.8568 10.0632C11.6354 9.99325 11.399 9.98534 11.1733 10.0403C10.9477 10.0952 10.7414 10.2109 10.5768 10.3747L9.36421 11.5874C7.26925 10.4441 5.54744 8.72232 4.40421 6.62737L5.60842 5.42316C5.95368 5.09474 6.08 4.60632 5.92842 4.13474C5.62526 3.21684 5.47368 2.24842 5.47368 1.26316C5.47368 0.928148 5.3406 0.606858 5.10371 0.36997C4.86683 0.133082 4.54554 0 4.21053 0H1.26316C0.928148 0 0.606858 0.133082 0.36997 0.36997C0.133082 0.606858 0 0.928148 0 1.26316C0 9.38947 6.61053 16 14.7368 16ZM1.26316 0.842105H4.21053C4.3222 0.842105 4.42929 0.886466 4.50826 0.965429C4.58722 1.04439 4.63158 1.15149 4.63158 1.26316C4.63158 2.34105 4.8 3.39368 5.12842 4.39579C5.17053 4.51368 5.16211 4.68211 5.02737 4.81684L3.36842 6.46737C4.75789 9.18737 6.79579 11.2253 9.52421 12.6316L11.1663 10.9726C11.2842 10.8547 11.4442 10.8211 11.5958 10.8632C12.6063 11.2 13.6589 11.3684 14.7368 11.3684C14.8485 11.3684 14.9556 11.4128 15.0346 11.4917C15.1135 11.5707 15.1579 11.6778 15.1579 11.7895V14.7368C15.1579 14.8485 15.1135 14.9556 15.0346 15.0346C14.9556 15.1135 14.8485 15.1579 14.7368 15.1579C7.07368 15.1579 0.842105 8.92632 0.842105 1.26316C0.842105 1.15149 0.886466 1.04439 0.965429 0.965429C1.04439 0.886466 1.15149 0.842105 1.26316 0.842105Z" fill="#525252"/>
<path d="M14.7368 10.5263V9.52632V10.5263ZM11.8568 10.0632L12.1757 9.11534L12.1668 9.11235L12.1578 9.10953L11.8568 10.0632ZM10.5768 10.3747L9.87122 9.66614L9.86974 9.66763L10.5768 10.3747ZM9.36421 11.5874L8.88519 12.4652L9.54213 12.8237L10.0713 12.2945L9.36421 11.5874ZM4.40421 6.62737L3.6971 5.92026L3.16791 6.44945L3.52641 7.10639L4.40421 6.62737ZM5.60842 5.42316L4.91921 4.6986L4.91015 4.70721L4.90131 4.71605L5.60842 5.42316ZM5.92842 4.13474L6.88048 3.82872L6.87797 3.82112L5.92842 4.13474ZM5.47368 1.26316H6.47368H5.47368ZM4.21053 0V-1V0ZM0 1.26316H-1H0ZM1.26316 0.842105V1.84211V0.842105ZM4.21053 0.842105V1.84211V0.842105ZM5.12842 4.39579L4.17815 4.70722L4.18225 4.71973L4.18668 4.73213L5.12842 4.39579ZM5.02737 4.81684L5.73268 5.52575L5.73448 5.52395L5.02737 4.81684ZM3.36842 6.46737L2.66312 5.75846L2.14612 6.27283L2.47789 6.92229L3.36842 6.46737ZM9.52421 12.6316L9.06606 13.5205L9.71853 13.8568L10.2349 13.3351L9.52421 12.6316ZM11.1663 10.9726L10.4592 10.2655L10.4556 10.2691L11.1663 10.9726ZM11.5958 10.8632L11.912 9.91447L11.8879 9.90644L11.8634 9.89964L11.5958 10.8632ZM14.7368 16V17C15.3371 17 15.9127 16.7616 16.3371 16.3371L15.63 15.63L14.9229 14.9229C14.8736 14.9723 14.8066 15 14.7368 15V16ZM15.63 15.63L16.3371 16.3371C16.7616 15.9127 17 15.3371 17 14.7368H16H15C15 14.8066 14.9723 14.8736 14.9229 14.9229L15.63 15.63ZM16 14.7368H17V11.7895H16H15V14.7368H16ZM16 11.7895H17C17 11.1892 16.7616 10.6136 16.3371 10.1892L15.63 10.8963L14.9229 11.6034C14.9723 11.6527 15 11.7197 15 11.7895H16ZM15.63 10.8963L16.3371 10.1892C15.9127 9.76476 15.3371 9.52632 14.7368 9.52632V10.5263V11.5263C14.8066 11.5263 14.8736 11.554 14.9229 11.6034L15.63 10.8963ZM14.7368 10.5263V9.52632C13.8547 9.52632 12.9944 9.39073 12.1757 9.11534L11.8568 10.0632L11.538 11.011C12.5719 11.3587 13.6484 11.5263 14.7368 11.5263V10.5263ZM11.8568 10.0632L12.1578 9.10953C11.7622 8.98466 11.3399 8.97051 10.9368 9.06864L11.1733 10.0403L11.4099 11.0119C11.4581 11.0002 11.5085 11.0019 11.5558 11.0168L11.8568 10.0632ZM11.1733 10.0403L10.9368 9.06864C10.5337 9.16676 10.1652 9.3734 9.87122 9.66615L10.5768 10.3747L11.2825 11.0833C11.3176 11.0483 11.3617 11.0236 11.4099 11.0119L11.1733 10.0403ZM10.5768 10.3747L9.86974 9.66763L8.6571 10.8803L9.36421 11.5874L10.0713 12.2945L11.2839 11.0818L10.5768 10.3747ZM9.36421 11.5874L9.84323 10.7096C7.91671 9.65825 6.33333 8.07487 5.28201 6.14835L4.40421 6.62737L3.52641 7.10639C4.76155 9.36978 6.6218 11.23 8.88519 12.4652L9.36421 11.5874ZM4.40421 6.62737L5.11132 7.33448L6.31553 6.13026L5.60842 5.42316L4.90131 4.71605L3.6971 5.92026L4.40421 6.62737ZM5.60842 5.42316L6.29763 6.14772C6.92516 5.5508 7.14777 4.66038 6.88045 3.82873L5.92842 4.13474L4.97639 4.44075C5.01223 4.55225 4.98221 4.63867 4.91921 4.6986L5.60842 5.42316ZM5.92842 4.13474L6.87797 3.82112C6.60945 3.00809 6.47368 2.14581 6.47368 1.26316H5.47368H4.47368C4.47368 2.35103 4.64108 3.42559 4.97887 4.44835L5.92842 4.13474ZM5.47368 1.26316H6.47368C6.47368 0.662931 6.23525 0.0872883 5.81082 -0.337136L5.10371 0.36997L4.39661 1.07708C4.44596 1.12643 4.47368 1.19336 4.47368 1.26316L5.47368 1.26316ZM5.10371 0.36997L5.81082 -0.337136C5.3864 -0.761561 4.81075 -1 4.21053 -1V0V1C4.28032 1 4.34726 1.02773 4.39661 1.07708L5.10371 0.36997ZM4.21053 0V-1H1.26316V0V1H4.21053V0ZM1.26316 0V-1C0.662931 -1 0.087288 -0.761561 -0.337136 -0.337136L0.36997 0.36997L1.07708 1.07708C1.12643 1.02773 1.19336 1 1.26316 1V0ZM0.36997 0.36997L-0.337136 -0.337136C-0.761561 0.087288 -1 0.662931 -1 1.26316H0L1 1.26316C1 1.19336 1.02773 1.12643 1.07708 1.07708L0.36997 0.36997ZM0 1.26316H-1C-1 9.94176 6.05824 17 14.7368 17V16V15C7.16281 15 1 8.83719 1 1.26316H0ZM1.26316 0.842105V1.84211H4.21053V0.842105V-0.157895H1.26316V0.842105ZM4.21053 0.842105V1.84211C4.05698 1.84211 3.90972 1.78111 3.80115 1.67254L4.50826 0.965429L5.21536 0.258322C4.94886 -0.00817654 4.58741 -0.157895 4.21053 -0.157895V0.842105ZM4.50826 0.965429L3.80115 1.67254C3.69258 1.56396 3.63158 1.41671 3.63158 1.26316H4.63158H5.63158C5.63158 0.886271 5.48186 0.524821 5.21536 0.258322L4.50826 0.965429ZM4.63158 1.26316H3.63158C3.63158 2.44587 3.81649 3.60367 4.17815 4.70722L5.12842 4.39579L6.07869 4.08436C5.78351 3.18369 5.63158 2.23623 5.63158 1.26316H4.63158ZM5.12842 4.39579L4.18668 4.73213C4.11933 4.54355 4.14108 4.28892 4.32026 4.10974L5.02737 4.81684L5.73448 5.52395C6.18313 5.0753 6.22172 4.48382 6.07016 4.05945L5.12842 4.39579ZM5.02737 4.81684L4.32206 4.10794L2.66312 5.75846L3.36842 6.46737L4.07373 7.17627L5.73267 5.52575L5.02737 4.81684ZM3.36842 6.46737L2.47789 6.92229C3.96337 9.83023 6.15329 12.0191 9.06606 13.5205L9.52421 12.6316L9.98236 11.7427C7.43829 10.4314 5.55242 8.5445 4.25896 6.01245L3.36842 6.46737ZM9.52421 12.6316L10.2349 13.3351L11.877 11.6761L11.1663 10.9726L10.4556 10.2691L8.81351 11.9281L9.52421 12.6316ZM11.1663 10.9726L11.8734 11.6797C11.8028 11.7504 11.7094 11.8042 11.6044 11.8296C11.502 11.8545 11.4063 11.8484 11.3281 11.8267L11.5958 10.8632L11.8634 9.89964C11.3932 9.76901 10.8524 9.87232 10.4592 10.2655L11.1663 10.9726ZM11.5958 10.8632L11.2796 11.8118C12.3941 12.1833 13.5536 12.3684 14.7368 12.3684V11.3684V10.3684C13.7643 10.3684 12.8185 10.2167 11.912 9.91447L11.5958 10.8632ZM14.7368 11.3684V12.3684C14.5833 12.3684 14.436 12.3074 14.3275 12.1989L15.0346 11.4917L15.7417 10.7846C15.4752 10.5181 15.1137 10.3684 14.7368 10.3684V11.3684ZM15.0346 11.4917L14.3275 12.1989C14.2189 12.0903 14.1579 11.943 14.1579 11.7895H15.1579H16.1579C16.1579 11.4126 16.0082 11.0511 15.7417 10.7846L15.0346 11.4917ZM15.1579 11.7895H14.1579V14.7368H15.1579H16.1579V11.7895H15.1579ZM15.1579 14.7368H14.1579C14.1579 14.5833 14.2189 14.436 14.3275 14.3275L15.0346 15.0346L15.7417 15.7417C16.0082 15.4752 16.1579 15.1137 16.1579 14.7368H15.1579ZM15.0346 15.0346L14.3275 14.3275C14.436 14.2189 14.5833 14.1579 14.7368 14.1579V15.1579V16.1579C15.1137 16.1579 15.4752 16.0082 15.7417 15.7417L15.0346 15.0346ZM14.7368 15.1579V14.1579C7.62597 14.1579 1.84211 8.37403 1.84211 1.26316H0.842105H-0.157895C-0.157895 9.4786 6.5214 16.1579 14.7368 16.1579V15.1579ZM0.842105 1.26316H1.84211C1.84211 1.41671 1.78111 1.56396 1.67254 1.67254L0.965429 0.965429L0.258322 0.258322C-0.00817654 0.524821 -0.157895 0.886271 -0.157895 1.26316H0.842105ZM0.965429 0.965429L1.67254 1.67254C1.56396 1.78111 1.41671 1.84211 1.26316 1.84211V0.842105L1.26316 -0.157895C0.886271 -0.157895 0.524821 -0.00817654 0.258322 0.258322L0.965429 0.965429Z" fill="#666666" mask="url(#path-1-inside-1_507_149)"/>
<path d="M14.7368 10.5263V9.52632V10.5263ZM11.8568 10.0632L12.1757 9.11534L12.1668 9.11235L12.1578 9.10953L11.8568 10.0632ZM10.5768 10.3747L9.87122 9.66614L9.86974 9.66763L10.5768 10.3747ZM9.36421 11.5874L8.88519 12.4652L9.54213 12.8237L10.0713 12.2945L9.36421 11.5874ZM4.40421 6.62737L3.6971 5.92026L3.16791 6.44945L3.52641 7.10639L4.40421 6.62737ZM5.60842 5.42316L4.91921 4.6986L4.91015 4.70721L4.90131 4.71605L5.60842 5.42316ZM5.92842 4.13474L6.88048 3.82872L6.87797 3.82112L5.92842 4.13474ZM5.47368 1.26316H6.47368H5.47368ZM4.21053 0V-1V0ZM0 1.26316H-1H0ZM1.26316 0.842105V1.84211V0.842105ZM4.21053 0.842105V1.84211V0.842105ZM5.12842 4.39579L4.17815 4.70722L4.18225 4.71973L4.18668 4.73213L5.12842 4.39579ZM5.02737 4.81684L5.73268 5.52575L5.73448 5.52395L5.02737 4.81684ZM3.36842 6.46737L2.66312 5.75846L2.14612 6.27283L2.47789 6.92229L3.36842 6.46737ZM9.52421 12.6316L9.06606 13.5205L9.71853 13.8568L10.2349 13.3351L9.52421 12.6316ZM11.1663 10.9726L10.4592 10.2655L10.4556 10.2691L11.1663 10.9726ZM11.5958 10.8632L11.912 9.91447L11.8879 9.90644L11.8634 9.89964L11.5958 10.8632ZM14.7368 16V17C15.3371 17 15.9127 16.7616 16.3371 16.3371L15.63 15.63L14.9229 14.9229C14.8736 14.9723 14.8066 15 14.7368 15V16ZM15.63 15.63L16.3371 16.3371C16.7616 15.9127 17 15.3371 17 14.7368H16H15C15 14.8066 14.9723 14.8736 14.9229 14.9229L15.63 15.63ZM16 14.7368H17V11.7895H16H15V14.7368H16ZM16 11.7895H17C17 11.1892 16.7616 10.6136 16.3371 10.1892L15.63 10.8963L14.9229 11.6034C14.9723 11.6527 15 11.7197 15 11.7895H16ZM15.63 10.8963L16.3371 10.1892C15.9127 9.76476 15.3371 9.52632 14.7368 9.52632V10.5263V11.5263C14.8066 11.5263 14.8736 11.554 14.9229 11.6034L15.63 10.8963ZM14.7368 10.5263V9.52632C13.8547 9.52632 12.9944 9.39073 12.1757 9.11534L11.8568 10.0632L11.538 11.011C12.5719 11.3587 13.6484 11.5263 14.7368 11.5263V10.5263ZM11.8568 10.0632L12.1578 9.10953C11.7622 8.98466 11.3399 8.97051 10.9368 9.06864L11.1733 10.0403L11.4099 11.0119C11.4581 11.0002 11.5085 11.0019 11.5558 11.0168L11.8568 10.0632ZM11.1733 10.0403L10.9368 9.06864C10.5337 9.16676 10.1652 9.3734 9.87122 9.66615L10.5768 10.3747L11.2825 11.0833C11.3176 11.0483 11.3617 11.0236 11.4099 11.0119L11.1733 10.0403ZM10.5768 10.3747L9.86974 9.66763L8.6571 10.8803L9.36421 11.5874L10.0713 12.2945L11.2839 11.0818L10.5768 10.3747ZM9.36421 11.5874L9.84323 10.7096C7.91671 9.65825 6.33333 8.07487 5.28201 6.14835L4.40421 6.62737L3.52641 7.10639C4.76155 9.36978 6.6218 11.23 8.88519 12.4652L9.36421 11.5874ZM4.40421 6.62737L5.11132 7.33448L6.31553 6.13026L5.60842 5.42316L4.90131 4.71605L3.6971 5.92026L4.40421 6.62737ZM5.60842 5.42316L6.29763 6.14772C6.92516 5.5508 7.14777 4.66038 6.88045 3.82873L5.92842 4.13474L4.97639 4.44075C5.01223 4.55225 4.98221 4.63867 4.91921 4.6986L5.60842 5.42316ZM5.92842 4.13474L6.87797 3.82112C6.60945 3.00809 6.47368 2.14581 6.47368 1.26316H5.47368H4.47368C4.47368 2.35103 4.64108 3.42559 4.97887 4.44835L5.92842 4.13474ZM5.47368 1.26316H6.47368C6.47368 0.662931 6.23525 0.0872883 5.81082 -0.337136L5.10371 0.36997L4.39661 1.07708C4.44596 1.12643 4.47368 1.19336 4.47368 1.26316L5.47368 1.26316ZM5.10371 0.36997L5.81082 -0.337136C5.3864 -0.761561 4.81075 -1 4.21053 -1V0V1C4.28032 1 4.34726 1.02773 4.39661 1.07708L5.10371 0.36997ZM4.21053 0V-1H1.26316V0V1H4.21053V0ZM1.26316 0V-1C0.662931 -1 0.087288 -0.761561 -0.337136 -0.337136L0.36997 0.36997L1.07708 1.07708C1.12643 1.02773 1.19336 1 1.26316 1V0ZM0.36997 0.36997L-0.337136 -0.337136C-0.761561 0.087288 -1 0.662931 -1 1.26316H0L1 1.26316C1 1.19336 1.02773 1.12643 1.07708 1.07708L0.36997 0.36997ZM0 1.26316H-1C-1 9.94176 6.05824 17 14.7368 17V16V15C7.16281 15 1 8.83719 1 1.26316H0ZM1.26316 0.842105V1.84211H4.21053V0.842105V-0.157895H1.26316V0.842105ZM4.21053 0.842105V1.84211C4.05698 1.84211 3.90972 1.78111 3.80115 1.67254L4.50826 0.965429L5.21536 0.258322C4.94886 -0.00817654 4.58741 -0.157895 4.21053 -0.157895V0.842105ZM4.50826 0.965429L3.80115 1.67254C3.69258 1.56396 3.63158 1.41671 3.63158 1.26316H4.63158H5.63158C5.63158 0.886271 5.48186 0.524821 5.21536 0.258322L4.50826 0.965429ZM4.63158 1.26316H3.63158C3.63158 2.44587 3.81649 3.60367 4.17815 4.70722L5.12842 4.39579L6.07869 4.08436C5.78351 3.18369 5.63158 2.23623 5.63158 1.26316H4.63158ZM5.12842 4.39579L4.18668 4.73213C4.11933 4.54355 4.14108 4.28892 4.32026 4.10974L5.02737 4.81684L5.73448 5.52395C6.18313 5.0753 6.22172 4.48382 6.07016 4.05945L5.12842 4.39579ZM5.02737 4.81684L4.32206 4.10794L2.66312 5.75846L3.36842 6.46737L4.07373 7.17627L5.73267 5.52575L5.02737 4.81684ZM3.36842 6.46737L2.47789 6.92229C3.96337 9.83023 6.15329 12.0191 9.06606 13.5205L9.52421 12.6316L9.98236 11.7427C7.43829 10.4314 5.55242 8.5445 4.25896 6.01245L3.36842 6.46737ZM9.52421 12.6316L10.2349 13.3351L11.877 11.6761L11.1663 10.9726L10.4556 10.2691L8.81351 11.9281L9.52421 12.6316ZM11.1663 10.9726L11.8734 11.6797C11.8028 11.7504 11.7094 11.8042 11.6044 11.8296C11.502 11.8545 11.4063 11.8484 11.3281 11.8267L11.5958 10.8632L11.8634 9.89964C11.3932 9.76901 10.8524 9.87232 10.4592 10.2655L11.1663 10.9726ZM11.5958 10.8632L11.2796 11.8118C12.3941 12.1833 13.5536 12.3684 14.7368 12.3684V11.3684V10.3684C13.7643 10.3684 12.8185 10.2167 11.912 9.91447L11.5958 10.8632ZM14.7368 11.3684V12.3684C14.5833 12.3684 14.436 12.3074 14.3275 12.1989L15.0346 11.4917L15.7417 10.7846C15.4752 10.5181 15.1137 10.3684 14.7368 10.3684V11.3684ZM15.0346 11.4917L14.3275 12.1989C14.2189 12.0903 14.1579 11.943 14.1579 11.7895H15.1579H16.1579C16.1579 11.4126 16.0082 11.0511 15.7417 10.7846L15.0346 11.4917ZM15.1579 11.7895H14.1579V14.7368H15.1579H16.1579V11.7895H15.1579ZM15.1579 14.7368H14.1579C14.1579 14.5833 14.2189 14.436 14.3275 14.3275L15.0346 15.0346L15.7417 15.7417C16.0082 15.4752 16.1579 15.1137 16.1579 14.7368H15.1579ZM15.0346 15.0346L14.3275 14.3275C14.436 14.2189 14.5833 14.1579 14.7368 14.1579V15.1579V16.1579C15.1137 16.1579 15.4752 16.0082 15.7417 15.7417L15.0346 15.0346ZM14.7368 15.1579V14.1579C7.62597 14.1579 1.84211 8.37403 1.84211 1.26316H0.842105H-0.157895C-0.157895 9.4786 6.5214 16.1579 14.7368 16.1579V15.1579ZM0.842105 1.26316H1.84211C1.84211 1.41671 1.78111 1.56396 1.67254 1.67254L0.965429 0.965429L0.258322 0.258322C-0.00817654 0.524821 -0.157895 0.886271 -0.157895 1.26316H0.842105ZM0.965429 0.965429L1.67254 1.67254C1.56396 1.78111 1.41671 1.84211 1.26316 1.84211V0.842105L1.26316 -0.157895C0.886271 -0.157895 0.524821 -0.00817654 0.258322 0.258322L0.965429 0.965429Z" fill="black" fill-opacity="0.2" mask="url(#path-1-inside-1_507_149)"/>
</svg>
