<svg width="16" height="16" viewBox="0 0 16 16" fill="none" xmlns="http://www.w3.org/2000/svg">
<path d="M4.91113 1.14648C6.27532 0.532503 7.78405 0.350312 9.24707 0.623047C10.7104 0.895862 12.0647 1.61206 13.1377 2.68262L13.1387 2.68359C13.8677 3.40748 14.4519 4.27385 14.8574 5.2334C15.1972 6.03755 15.4042 6.89369 15.4736 7.7666H15.4531L15.4961 8.30762C15.5025 8.38785 15.4928 8.46839 15.4678 8.54395C15.4427 8.61953 15.4033 8.68806 15.3525 8.74512C15.3018 8.80214 15.241 8.84689 15.1748 8.87695C15.1099 8.90639 15.0404 8.92028 14.9707 8.9209L14.9424 8.91992L14.9111 8.91699C14.7782 8.90193 14.6518 8.83288 14.5615 8.71973C14.4709 8.60601 14.4253 8.45674 14.4375 8.30469L14.4805 7.76465H14.4277C14.3945 7.03077 14.2501 6.30556 13.9941 5.61719C13.6785 4.7662 13.1948 3.97608 12.5801 3.30762C11.9655 2.63947 11.2199 2.09202 10.3945 1.71289H10.3936C8.70442 0.942362 6.78725 0.893872 5.06348 1.5791C4.2048 1.92085 3.40943 2.44139 2.73828 3.10156C2.06758 3.76135 1.52096 4.55945 1.14258 5.43945V5.44043C0.761005 6.33228 0.553265 7.29279 0.53125 8.2666C0.52635 8.48375 0.531433 8.70093 0.544922 8.91699C0.417483 7.7202 0.566685 6.49789 0.99707 5.35547C1.34586 4.43154 1.87511 3.57649 2.54395 2.85645C3.21274 2.13646 4.01978 1.54936 4.91016 1.14551L4.91113 1.14648Z" fill="#666666"/>
<path d="M4.91113 1.14648C6.27532 0.532503 7.78405 0.350312 9.24707 0.623047C10.7104 0.895862 12.0647 1.61206 13.1377 2.68262L13.1387 2.68359C13.8677 3.40748 14.4519 4.27385 14.8574 5.2334C15.1972 6.03755 15.4042 6.89369 15.4736 7.7666H15.4531L15.4961 8.30762C15.5025 8.38785 15.4928 8.46839 15.4678 8.54395C15.4427 8.61953 15.4033 8.68806 15.3525 8.74512C15.3018 8.80214 15.241 8.84689 15.1748 8.87695C15.1099 8.90639 15.0404 8.92028 14.9707 8.9209L14.9424 8.91992L14.9111 8.91699C14.7782 8.90193 14.6518 8.83288 14.5615 8.71973C14.4709 8.60601 14.4253 8.45674 14.4375 8.30469L14.4805 7.76465H14.4277C14.3945 7.03077 14.2501 6.30556 13.9941 5.61719C13.6785 4.7662 13.1948 3.97608 12.5801 3.30762C11.9655 2.63947 11.2199 2.09202 10.3945 1.71289H10.3936C8.70442 0.942362 6.78725 0.893872 5.06348 1.5791C4.2048 1.92085 3.40943 2.44139 2.73828 3.10156C2.06758 3.76135 1.52096 4.55945 1.14258 5.43945V5.44043C0.761005 6.33228 0.553265 7.29279 0.53125 8.2666C0.52635 8.48375 0.531433 8.70093 0.544922 8.91699C0.417483 7.7202 0.566685 6.49789 0.99707 5.35547C1.34586 4.43154 1.87511 3.57649 2.54395 2.85645C3.21274 2.13646 4.01978 1.54936 4.91016 1.14551L4.91113 1.14648Z" fill="black" fill-opacity="0.2"/>
<path d="M4.91113 1.14648C6.27532 0.532503 7.78405 0.350312 9.24707 0.623047C10.7104 0.895862 12.0647 1.61206 13.1377 2.68262L13.1387 2.68359C13.8677 3.40748 14.4519 4.27385 14.8574 5.2334C15.1972 6.03755 15.4042 6.89369 15.4736 7.7666H15.4531L15.4961 8.30762C15.5025 8.38785 15.4928 8.46839 15.4678 8.54395C15.4427 8.61953 15.4033 8.68806 15.3525 8.74512C15.3018 8.80214 15.241 8.84689 15.1748 8.87695C15.1099 8.90639 15.0404 8.92028 14.9707 8.9209L14.9424 8.91992L14.9111 8.91699C14.7782 8.90193 14.6518 8.83288 14.5615 8.71973C14.4709 8.60601 14.4253 8.45674 14.4375 8.30469L14.4805 7.76465H14.4277C14.3945 7.03077 14.2501 6.30556 13.9941 5.61719C13.6785 4.7662 13.1948 3.97608 12.5801 3.30762C11.9655 2.63947 11.2199 2.09202 10.3945 1.71289H10.3936C8.70442 0.942362 6.78725 0.893872 5.06348 1.5791C4.2048 1.92085 3.40943 2.44139 2.73828 3.10156C2.06758 3.76135 1.52096 4.55945 1.14258 5.43945V5.44043C0.761005 6.33228 0.553265 7.29279 0.53125 8.2666C0.52635 8.48375 0.531433 8.70093 0.544922 8.91699C0.417483 7.7202 0.566685 6.49789 0.99707 5.35547C1.34586 4.43154 1.87511 3.57649 2.54395 2.85645C3.21274 2.13646 4.01978 1.54936 4.91016 1.14551L4.91113 1.14648Z" stroke="#666666"/>
<path d="M4.91113 1.14648C6.27532 0.532503 7.78405 0.350312 9.24707 0.623047C10.7104 0.895862 12.0647 1.61206 13.1377 2.68262L13.1387 2.68359C13.8677 3.40748 14.4519 4.27385 14.8574 5.2334C15.1972 6.03755 15.4042 6.89369 15.4736 7.7666H15.4531L15.4961 8.30762C15.5025 8.38785 15.4928 8.46839 15.4678 8.54395C15.4427 8.61953 15.4033 8.68806 15.3525 8.74512C15.3018 8.80214 15.241 8.84689 15.1748 8.87695C15.1099 8.90639 15.0404 8.92028 14.9707 8.9209L14.9424 8.91992L14.9111 8.91699C14.7782 8.90193 14.6518 8.83288 14.5615 8.71973C14.4709 8.60601 14.4253 8.45674 14.4375 8.30469L14.4805 7.76465H14.4277C14.3945 7.03077 14.2501 6.30556 13.9941 5.61719C13.6785 4.7662 13.1948 3.97608 12.5801 3.30762C11.9655 2.63947 11.2199 2.09202 10.3945 1.71289H10.3936C8.70442 0.942362 6.78725 0.893872 5.06348 1.5791C4.2048 1.92085 3.40943 2.44139 2.73828 3.10156C2.06758 3.76135 1.52096 4.55945 1.14258 5.43945V5.44043C0.761005 6.33228 0.553265 7.29279 0.53125 8.2666C0.52635 8.48375 0.531433 8.70093 0.544922 8.91699C0.417483 7.7202 0.566685 6.49789 0.99707 5.35547C1.34586 4.43154 1.87511 3.57649 2.54395 2.85645C3.21274 2.13646 4.01978 1.54936 4.91016 1.14551L4.91113 1.14648Z" stroke="black" stroke-opacity="0.2"/>
</svg>
