<svg width="32" height="32" viewBox="0 0 32 32" fill="none" xmlns="http://www.w3.org/2000/svg">
<g clip-path="url(#clip0_630_243)">
<mask id="mask0_630_243" style="mask-type:luminance" maskUnits="userSpaceOnUse" x="0" y="0" width="32" height="32">
<path d="M0 0H32V32H0V0Z" fill="white"/>
</mask>
<g mask="url(#mask0_630_243)">
<path d="M3.99992 16H1.33325M30.6666 16H27.9999M15.9999 28V30.6667M15.9999 1.33334V4.00001M7.51459 24.4853L5.62925 26.3707M26.3706 5.62934L24.4853 7.51468M7.51459 7.51468L5.62925 5.62934M26.3706 26.3707L24.4853 24.4853M23.9999 16C23.9999 18.1217 23.1571 20.1566 21.6568 21.6569C20.1565 23.1572 18.1217 24 15.9999 24C13.8782 24 11.8434 23.1572 10.3431 21.6569C8.84277 20.1566 7.99992 18.1217 7.99992 16C7.99992 13.8783 8.84277 11.8434 10.3431 10.3432C11.8434 8.84287 13.8782 8.00001 15.9999 8.00001C18.1217 8.00001 20.1565 8.84287 21.6568 10.3432C23.1571 11.8434 23.9999 13.8783 23.9999 16Z" stroke="#666666" stroke-width="2" stroke-miterlimit="10" stroke-linecap="round"/>
<path d="M3.99992 16H1.33325M30.6666 16H27.9999M15.9999 28V30.6667M15.9999 1.33334V4.00001M7.51459 24.4853L5.62925 26.3707M26.3706 5.62934L24.4853 7.51468M7.51459 7.51468L5.62925 5.62934M26.3706 26.3707L24.4853 24.4853M23.9999 16C23.9999 18.1217 23.1571 20.1566 21.6568 21.6569C20.1565 23.1572 18.1217 24 15.9999 24C13.8782 24 11.8434 23.1572 10.3431 21.6569C8.84277 20.1566 7.99992 18.1217 7.99992 16C7.99992 13.8783 8.84277 11.8434 10.3431 10.3432C11.8434 8.84287 13.8782 8.00001 15.9999 8.00001C18.1217 8.00001 20.1565 8.84287 21.6568 10.3432C23.1571 11.8434 23.9999 13.8783 23.9999 16Z" stroke="black" stroke-opacity="0.2" stroke-width="2" stroke-miterlimit="10" stroke-linecap="round"/>
</g>
</g>
<defs>
<clipPath id="clip0_630_243">
<rect width="32" height="32" fill="white"/>
</clipPath>
</defs>
</svg>
