<svg width="16" height="16" viewBox="0 0 16 16" fill="none" xmlns="http://www.w3.org/2000/svg">
<g clip-path="url(#clip0_627_236)">
<path d="M8 8C10.525 8 12.5714 6.20937 12.5714 4C12.5714 1.79063 10.525 0 8 0C5.475 0 3.42857 1.79063 3.42857 4C3.42857 6.20937 5.475 8 8 8ZM11.4214 9.01875L9.71429 15L8.57143 10.75L9.71429 9H6.28571L7.42857 10.75L6.28571 15L4.57857 9.01875C2.03214 9.125 0 10.9469 0 13.2V14.5C0 15.3281 0.767857 16 1.71429 16H14.2857C15.2321 16 16 15.3281 16 14.5V13.2C16 10.9469 13.9679 9.125 11.4214 9.01875Z" fill="#666666"/>
<path d="M8 8C10.525 8 12.5714 6.20937 12.5714 4C12.5714 1.79063 10.525 0 8 0C5.475 0 3.42857 1.79063 3.42857 4C3.42857 6.20937 5.475 8 8 8ZM11.4214 9.01875L9.71429 15L8.57143 10.75L9.71429 9H6.28571L7.42857 10.75L6.28571 15L4.57857 9.01875C2.03214 9.125 0 10.9469 0 13.2V14.5C0 15.3281 0.767857 16 1.71429 16H14.2857C15.2321 16 16 15.3281 16 14.5V13.2C16 10.9469 13.9679 9.125 11.4214 9.01875Z" fill="black" fill-opacity="0.2"/>
</g>
<defs>
<clipPath id="clip0_627_236">
<rect width="16" height="16" fill="white"/>
</clipPath>
</defs>
</svg>
