<svg width="16" height="16" viewBox="0 0 16 16" fill="none" xmlns="http://www.w3.org/2000/svg">
<mask id="path-1-inside-1_507_150" fill="white">
<path d="M0 16L8 0L16 16H0ZM14.6819 15.1204L8 1.75921L1.3181 15.1204H14.6819ZM7.61905 9.84277V6.32435H8.38095V9.84277H7.61905ZM7.61905 11.602H8.38095V13.3612H7.61905V11.602Z"/>
</mask>
<path d="M0 16L8 0L16 16H0ZM14.6819 15.1204L8 1.75921L1.3181 15.1204H14.6819ZM7.61905 9.84277V6.32435H8.38095V9.84277H7.61905ZM7.61905 11.602H8.38095V13.3612H7.61905V11.602Z" fill="#525252"/>
<path d="M0 16L-0.894427 15.5528L-1.61803 17H0V16ZM8 0L8.89443 -0.447214L8 -2.23607L7.10557 -0.447214L8 0ZM16 16V17H17.618L16.8944 15.5528L16 16ZM14.6819 15.1204V16.1204H16.3001L15.5763 14.6731L14.6819 15.1204ZM8 1.75921L8.89439 1.31192L8 -0.476509L7.10561 1.31192L8 1.75921ZM1.3181 15.1204L0.423703 14.6731L-0.300081 16.1204H1.3181V15.1204ZM7.61905 9.84277H6.61905V10.8428H7.61905V9.84277ZM7.61905 6.32435V5.32435H6.61905V6.32435H7.61905ZM8.38095 6.32435H9.38095V5.32435H8.38095V6.32435ZM8.38095 9.84277V10.8428H9.38095V9.84277H8.38095ZM7.61905 11.602V10.602H6.61905V11.602H7.61905ZM8.38095 11.602H9.38095V10.602H8.38095V11.602ZM8.38095 13.3612V14.3612H9.38095V13.3612H8.38095ZM7.61905 13.3612H6.61905V14.3612H7.61905V13.3612ZM0 16L0.894427 16.4472L8.89443 0.447214L8 0L7.10557 -0.447214L-0.894427 15.5528L0 16ZM8 0L7.10557 0.447214L15.1056 16.4472L16 16L16.8944 15.5528L8.89443 -0.447214L8 0ZM16 16V15H0V16V17H16V16ZM14.6819 15.1204L15.5763 14.6731L8.89439 1.31192L8 1.75921L7.10561 2.20649L13.7875 15.5677L14.6819 15.1204ZM8 1.75921L7.10561 1.31192L0.423703 14.6731L1.3181 15.1204L2.21249 15.5677L8.89439 2.20649L8 1.75921ZM1.3181 15.1204V16.1204H14.6819V15.1204V14.1204H1.3181V15.1204ZM7.61905 9.84277H8.61905V6.32435H7.61905H6.61905V9.84277H7.61905ZM7.61905 6.32435V7.32435H8.38095V6.32435V5.32435H7.61905V6.32435ZM8.38095 6.32435H7.38095V9.84277H8.38095H9.38095V6.32435H8.38095ZM8.38095 9.84277V8.84277H7.61905V9.84277V10.8428H8.38095V9.84277ZM7.61905 11.602V12.602H8.38095V11.602V10.602H7.61905V11.602ZM8.38095 11.602H7.38095V13.3612H8.38095H9.38095V11.602H8.38095ZM8.38095 13.3612V12.3612H7.61905V13.3612V14.3612H8.38095V13.3612ZM7.61905 13.3612H8.61905V11.602H7.61905H6.61905V13.3612H7.61905Z" fill="#666666" mask="url(#path-1-inside-1_507_150)"/>
<path d="M0 16L-0.894427 15.5528L-1.61803 17H0V16ZM8 0L8.89443 -0.447214L8 -2.23607L7.10557 -0.447214L8 0ZM16 16V17H17.618L16.8944 15.5528L16 16ZM14.6819 15.1204V16.1204H16.3001L15.5763 14.6731L14.6819 15.1204ZM8 1.75921L8.89439 1.31192L8 -0.476509L7.10561 1.31192L8 1.75921ZM1.3181 15.1204L0.423703 14.6731L-0.300081 16.1204H1.3181V15.1204ZM7.61905 9.84277H6.61905V10.8428H7.61905V9.84277ZM7.61905 6.32435V5.32435H6.61905V6.32435H7.61905ZM8.38095 6.32435H9.38095V5.32435H8.38095V6.32435ZM8.38095 9.84277V10.8428H9.38095V9.84277H8.38095ZM7.61905 11.602V10.602H6.61905V11.602H7.61905ZM8.38095 11.602H9.38095V10.602H8.38095V11.602ZM8.38095 13.3612V14.3612H9.38095V13.3612H8.38095ZM7.61905 13.3612H6.61905V14.3612H7.61905V13.3612ZM0 16L0.894427 16.4472L8.89443 0.447214L8 0L7.10557 -0.447214L-0.894427 15.5528L0 16ZM8 0L7.10557 0.447214L15.1056 16.4472L16 16L16.8944 15.5528L8.89443 -0.447214L8 0ZM16 16V15H0V16V17H16V16ZM14.6819 15.1204L15.5763 14.6731L8.89439 1.31192L8 1.75921L7.10561 2.20649L13.7875 15.5677L14.6819 15.1204ZM8 1.75921L7.10561 1.31192L0.423703 14.6731L1.3181 15.1204L2.21249 15.5677L8.89439 2.20649L8 1.75921ZM1.3181 15.1204V16.1204H14.6819V15.1204V14.1204H1.3181V15.1204ZM7.61905 9.84277H8.61905V6.32435H7.61905H6.61905V9.84277H7.61905ZM7.61905 6.32435V7.32435H8.38095V6.32435V5.32435H7.61905V6.32435ZM8.38095 6.32435H7.38095V9.84277H8.38095H9.38095V6.32435H8.38095ZM8.38095 9.84277V8.84277H7.61905V9.84277V10.8428H8.38095V9.84277ZM7.61905 11.602V12.602H8.38095V11.602V10.602H7.61905V11.602ZM8.38095 11.602H7.38095V13.3612H8.38095H9.38095V11.602H8.38095ZM8.38095 13.3612V12.3612H7.61905V13.3612V14.3612H8.38095V13.3612ZM7.61905 13.3612H8.61905V11.602H7.61905H6.61905V13.3612H7.61905Z" fill="black" fill-opacity="0.2" mask="url(#path-1-inside-1_507_150)"/>
</svg>
