<svg width="64" height="64" viewBox="0 0 64 64" fill="none" xmlns="http://www.w3.org/2000/svg">
<path d="M17.2143 12.1749C19.4829 6.98341 23.6197 3.16282 27.7031 1.58964C30.1318 0.668205 32.8007 0.241198 32.8007 0.241198C35.4429 -0.185808 37.6847 0.0614056 39.1793 0.173776V2.80324C38.3253 2.80324 33.7348 3.81457 32.1335 4.48879C29.3845 5.63496 28.1301 8.197 27.6497 12.1524H32.8007V15.0965H27.7031L21.5913 47.2793H11.1293L17.241 15.0965H11.3695V12.1524H17.2143V12.1749Z" fill="#101554"/>
<path d="M8.9141 26.3785C8.9141 26.3785 78.5988 21.7039 49.2144 11.0962C49.2144 11.0737 64.5605 19.3891 8.9141 26.3785Z" fill="#E8762A"/>
<path d="M9.92828 26.9628C9.92828 26.9628 73.5013 37.3458 52.9775 19.6363C52.9775 19.6363 62.3186 31.8172 9.92828 26.9628Z" fill="#4351B5"/>
<path d="M7.31277 24.1311C7.31277 24.1311 74.5154 10.3995 44.9441 1.43232C44.9441 1.43232 60.6639 9.36565 7.31277 24.1311Z" fill="#4351B5"/>
<path d="M9.55463 27.1651C11.1023 27.1651 12.357 26.1086 12.357 24.8053C12.357 23.502 11.1023 22.4455 9.55463 22.4455C8.00695 22.4455 6.7523 23.502 6.7523 24.8053C6.7523 26.1086 8.00695 27.1651 9.55463 27.1651Z" fill="#4351B5"/>
<path d="M0 56.9431V52.9203H0.907429V56.9431H0ZM0 53.617V52.9203H3.38949V53.617H0ZM0 55.4374V54.7407H2.69558V55.4374H0Z" fill="black"/>
<path d="M5.84488 56.9881C4.5905 56.9881 3.97665 56.3139 3.97665 54.943C3.97665 53.5496 4.5905 52.8529 5.84488 52.8529C7.09926 52.8529 7.7131 53.5496 7.7131 54.943C7.7131 56.3139 7.09926 56.9881 5.84488 56.9881ZM5.84488 56.2914C6.45872 56.2914 6.7523 55.8419 6.7523 54.9654C6.7523 54.044 6.45872 53.5945 5.84488 53.5945C5.23103 53.5945 4.93745 54.044 4.93745 54.9654C4.93745 55.8419 5.23103 56.2914 5.84488 56.2914Z" fill="black"/>
<path d="M10.9958 56.9431L9.90159 55.1902L8.1935 52.9203H9.34112L10.4887 54.7856L12.1435 56.9431H10.9958ZM8.1935 56.9431L9.84821 54.7856L10.9958 52.9203H12.1435L10.4354 55.1902L9.34112 56.9431H8.1935Z" fill="black"/>
<path d="M12.9708 56.9431V52.9203H13.8782V56.9431H12.9708ZM12.9708 53.617V52.9203H16.3336V53.617H12.9708ZM12.9708 55.4374V54.7407H15.6664V55.4374H12.9708Z" fill="black"/>
<path d="M17.2677 53.5945V52.9203H20.3903V53.5945H17.2677ZM17.2677 56.9431V56.2689H20.3903V56.9431H17.2677ZM18.362 56.9431V52.9203H19.2694V56.9431H18.362Z" fill="black"/>
<path d="M21.4846 56.9431V52.9203H22.392V56.9431H21.4846ZM22.3653 55.4823V54.7856H23.246C23.4596 54.7856 23.6197 54.7407 23.7531 54.6283C23.8599 54.516 23.94 54.3811 23.94 54.2013C23.94 54.0215 23.8866 53.8642 23.7531 53.7743C23.6197 53.6844 23.4596 53.617 23.246 53.617H22.3653L22.2852 52.9203H23.246C23.7798 52.9203 24.1802 53.0327 24.4737 53.2349C24.7673 53.4372 24.9008 53.7518 24.9008 54.1339C24.9008 54.5609 24.7673 54.8755 24.4737 55.1228C24.1802 55.3475 23.7798 55.4823 23.246 55.4823H22.3653ZM23.9933 56.9431L23.0592 55.0553H24.02L25.0876 56.9431H23.9933Z" fill="black"/>
<path d="M25.8882 56.9431V52.9203H26.7957V56.9431H25.8882ZM25.8882 53.617V52.9203H29.251V53.617H25.8882ZM25.8882 55.2801V54.5834H28.6372V55.2801H25.8882ZM25.8882 56.9431V56.2465H29.251V56.9431H25.8882Z" fill="black"/>
<path d="M34.5355 56.9431V52.9203H35.4429V56.9431H34.5355ZM34.5355 56.9431V56.2465H37.8983V56.9431H34.5355Z" fill="black"/>
<path d="M38.8857 53.5945V52.9203H42.0084V53.5945H38.8857ZM38.8857 56.9431V56.2689H42.0084V56.9431H38.8857ZM39.98 56.9431V52.9203H40.8874V56.9431H39.98Z" fill="black"/>
<path d="M43.0759 56.9431V52.9203H43.9299V56.9431H43.0759ZM44.4637 55.5273L44.0367 53.6395H43.8232L43.8766 52.9203H44.3837L44.7306 54.7182H44.7573L44.8641 55.5273H44.4637ZM44.6506 55.5273L44.7573 54.7182H44.8107L45.1576 52.9203H45.6647L45.7181 53.6395H45.5046L45.0776 55.5273H44.6506ZM45.6114 56.9431V52.9203H46.4654V56.9431H45.6114Z" fill="black"/>
<path d="M47.5596 53.5945V52.9203H50.6822V53.5945H47.5596ZM47.5596 56.9431V56.2689H50.6822V56.9431H47.5596ZM48.6539 56.9431V52.9203H49.5613V56.9431H48.6539Z" fill="black"/>
<path d="M51.563 53.617V52.9203H55.2727V53.617H51.563ZM52.9775 56.9431V52.9203H53.8849V56.9431H52.9775Z" fill="black"/>
<path d="M56.1802 56.9431V52.9203H57.0876V56.9431H56.1802ZM56.1802 53.617V52.9203H59.543V53.617H56.1802ZM56.1802 55.2801V54.5834H58.9291V55.2801H56.1802ZM56.1802 56.9431V56.2465H59.543V56.9431H56.1802Z" fill="black"/>
<path d="M60.4237 56.9431V52.9203H61.3311V56.9431H60.4237ZM61.3044 56.9431V56.224H61.6781C62.1318 56.224 62.4787 56.1116 62.6923 55.9093C62.9058 55.7071 63.0392 55.3924 63.0392 54.9879C63.0392 54.5384 62.9325 54.2013 62.6923 53.9766C62.4787 53.7518 62.1318 53.6395 61.6781 53.6395H61.3044L61.2244 52.9203H61.6781C63.226 52.9203 64 53.617 64 54.9879C64 56.2914 63.226 56.9431 61.6781 56.9431H61.3044Z" fill="black"/>
<path d="M13.1043 63.8876V59.7299H14.1184V63.8876H13.1043Z" fill="black"/>
<path d="M16.3336 63.8876V60.4491H14.839V59.7524H18.8691V60.4491H17.3745V63.8876H16.3336Z" fill="black"/>
<path d="M21.4045 62.5392L22.392 62.4493C22.4454 62.719 22.5788 62.9212 22.7656 63.0561C22.9525 63.1909 23.1927 63.2584 23.5129 63.2584C23.8332 63.2584 24.1001 63.1909 24.2602 63.0786C24.4204 62.9662 24.5004 62.8313 24.5004 62.674C24.5004 62.5841 24.4737 62.4942 24.3937 62.4268C24.3136 62.3594 24.2068 62.292 24.02 62.247C23.8866 62.2021 23.6197 62.1571 23.1927 62.0672C22.6322 61.9549 22.2586 61.82 22.045 61.6627C21.7248 61.438 21.5646 61.1458 21.5646 60.8312C21.5646 60.6289 21.6447 60.4266 21.7782 60.2468C21.9116 60.067 22.1251 59.9322 22.4187 59.8198C22.6856 59.7299 23.0325 59.685 23.4062 59.685C24.0467 59.685 24.5271 59.7974 24.8474 60.0221C25.1676 60.2468 25.3278 60.5615 25.3545 60.9435L24.3403 60.9885C24.2869 60.7862 24.2068 60.6289 24.0467 60.539C23.8866 60.4491 23.6731 60.4042 23.4062 60.4042C23.1126 60.4042 22.8724 60.4491 22.7123 60.5615C22.6055 60.6289 22.5521 60.7188 22.5521 60.8087C22.5521 60.8986 22.6055 60.9885 22.7123 61.0559C22.8457 61.1458 23.166 61.2357 23.6464 61.3256C24.1535 61.4155 24.5271 61.5279 24.7406 61.6178C24.9808 61.7301 25.1676 61.865 25.3011 62.0448C25.4345 62.2245 25.5146 62.4493 25.5146 62.6965C25.5146 62.9437 25.4345 63.146 25.2744 63.3707C25.1143 63.573 24.8741 63.7303 24.5805 63.8427C24.2869 63.9326 23.9133 64 23.4862 64C22.8457 64 22.3386 63.8876 22.0184 63.6404C21.6981 63.3707 21.4846 63.0111 21.4045 62.5392Z" fill="black"/>
<path d="M28.6105 62.9437L29.5713 63.0786C29.4379 63.3707 29.251 63.5955 28.9842 63.7528C28.7173 63.9101 28.3703 63.9775 27.97 63.9775C27.3294 63.9775 26.849 63.7977 26.5555 63.4606C26.3153 63.1909 26.1818 62.8314 26.1818 62.4268C26.1818 61.9324 26.342 61.5279 26.6622 61.2582C26.9825 60.966 27.3828 60.8312 27.8632 60.8312C28.397 60.8312 28.8507 60.9885 29.171 61.2806C29.4912 61.5728 29.6514 62.0223 29.6247 62.6291H27.196C27.196 62.8538 27.2761 63.0561 27.4362 63.1685C27.5963 63.2808 27.7832 63.3707 27.9967 63.3707C28.1568 63.3707 28.2902 63.3258 28.3703 63.2584C28.4771 63.1909 28.5571 63.0786 28.6105 62.9437ZM28.6639 62.1347C28.6639 61.9099 28.5838 61.7301 28.4504 61.6178C28.3169 61.5054 28.1301 61.438 27.9433 61.438C27.7298 61.438 27.543 61.5054 27.4095 61.6178C27.2761 61.7526 27.196 61.9099 27.196 62.1347H28.6639Z" fill="black"/>
<path d="M30.5054 63.8876V60.8761H31.4128V61.3031C31.573 61.1009 31.7064 60.966 31.8399 60.8986C31.9733 60.8312 32.1068 60.8087 32.2669 60.8087C32.4804 60.8087 32.6939 60.8536 32.9074 60.966L32.6138 61.6627C32.4537 61.5728 32.2936 61.5279 32.1601 61.5279C32.0267 61.5279 31.9199 61.5503 31.8132 61.6178C31.7064 61.6852 31.6531 61.7975 31.5997 61.9549C31.5463 62.1122 31.5196 62.4493 31.5196 62.9662V63.8876H30.5054Z" fill="black"/>
<path d="M34.402 63.8876L32.9074 60.8761H33.9216L34.6155 62.4043L34.829 62.9212C34.8824 62.7864 34.9091 62.6965 34.9358 62.674C34.9625 62.5841 35.0159 62.4942 35.0425 62.4268L35.7365 60.8986H36.7506L35.2827 63.9101H34.402V63.8876Z" fill="black"/>
<path d="M37.4179 60.4716V59.7299H38.3787V60.4716H37.4179ZM37.4179 63.8876V60.8761H38.3787V63.8876H37.4179Z" fill="black"/>
<path d="M42.6756 61.7751L41.7148 61.9099C41.6881 61.7526 41.608 61.6402 41.5013 61.5503C41.3945 61.4604 41.2344 61.438 41.0475 61.438C40.8073 61.438 40.6205 61.5054 40.4604 61.6402C40.3003 61.7751 40.2469 61.9998 40.2469 62.3369C40.2469 62.6965 40.3269 62.9437 40.4604 63.101C40.5938 63.2584 40.8073 63.3258 41.0475 63.3258C41.2344 63.3258 41.3945 63.2808 41.5013 63.1909C41.608 63.101 41.7148 62.9662 41.7415 62.7415L42.7023 62.8763C42.5955 63.2359 42.4087 63.5056 42.1418 63.6854C41.8482 63.8652 41.4746 63.955 41.0209 63.955C40.4871 63.955 40.0601 63.8202 39.7398 63.5505C39.4195 63.2808 39.2594 62.8988 39.2594 62.4043C39.2594 61.9099 39.4195 61.5279 39.7398 61.2357C40.0601 60.966 40.4871 60.8312 41.0475 60.8312C41.5013 60.8312 41.8482 60.9211 42.1151 61.0784C42.382 61.2132 42.5688 61.4604 42.6756 61.7751Z" fill="black"/>
<path d="M45.638 62.9437L46.5988 63.0786C46.4654 63.3707 46.2786 63.5955 46.0117 63.7528C45.7448 63.9101 45.3978 63.9775 44.9975 63.9775C44.357 63.9775 43.8766 63.7977 43.583 63.4606C43.3428 63.1909 43.2094 62.8314 43.2094 62.4268C43.2094 61.9324 43.3695 61.5279 43.6897 61.2582C44.01 60.966 44.4103 60.8312 44.8908 60.8312C45.4245 60.8312 45.8782 60.9885 46.1985 61.2806C46.5188 61.5728 46.6789 62.0223 46.6522 62.6291H44.2235C44.2235 62.8538 44.3036 63.0561 44.4637 63.1685C44.6239 63.2808 44.8107 63.3707 45.0242 63.3707C45.1843 63.3707 45.3178 63.3258 45.3978 63.2584C45.5046 63.1909 45.5847 63.0786 45.638 62.9437ZM45.6914 62.1347C45.6914 61.9099 45.6114 61.7301 45.4779 61.6178C45.3445 61.5054 45.1576 61.438 44.9708 61.438C44.7573 61.438 44.5705 61.5054 44.437 61.6178C44.3036 61.7526 44.2235 61.9099 44.2235 62.1347H45.6914Z" fill="black"/>
<path d="M47.2127 63.0336L48.2002 62.9212C48.2536 63.0786 48.3336 63.1909 48.4404 63.2808C48.5738 63.3707 48.7339 63.3932 48.9741 63.3932C49.2143 63.3932 49.4279 63.3483 49.5346 63.2808C49.6147 63.2359 49.6681 63.1685 49.6681 63.0786C49.6681 63.0111 49.6414 62.9662 49.588 62.9212C49.5346 62.8763 49.4279 62.8538 49.2677 62.8089C48.4938 62.674 47.9867 62.5392 47.7731 62.4268C47.4796 62.2695 47.3461 62.0448 47.3461 61.7526C47.3461 61.4829 47.4796 61.2806 47.7198 61.1008C47.96 60.9211 48.3603 60.8312 48.8941 60.8312C49.4012 60.8312 49.7748 60.8986 50.015 61.0334C50.2552 61.1683 50.4154 61.3705 50.5221 61.6178L49.6147 61.7526C49.588 61.6402 49.5079 61.5503 49.4012 61.4829C49.2944 61.4155 49.1343 61.393 48.9208 61.393C48.6539 61.393 48.4938 61.4155 48.3603 61.4829C48.2802 61.5279 48.2536 61.5728 48.2536 61.6402C48.2536 61.7076 48.2802 61.7526 48.3603 61.7751C48.4404 61.82 48.7606 61.9099 49.2677 61.9998C49.7748 62.0897 50.1485 62.2245 50.362 62.3594C50.5755 62.4942 50.6556 62.6965 50.6556 62.9437C50.6556 63.2134 50.5221 63.4606 50.2285 63.6629C49.935 63.8652 49.5346 63.955 48.9741 63.955C48.4671 63.955 48.0667 63.8652 47.7731 63.7078C47.4796 63.5505 47.2928 63.3258 47.2127 63.0336Z" fill="black"/>
</svg>
