<svg width="64" height="64" viewBox="0 0 64 64" fill="none" xmlns="http://www.w3.org/2000/svg">
<path d="M29.9266 12.8616C29.9266 16.1454 29.5157 18.7793 29.0022 18.7793C28.9878 18.7793 28.9807 18.7548 28.9918 18.7457C29.4418 18.378 29.7982 15.8888 29.7982 12.8616C29.7982 9.82936 29.4525 7.36877 28.9909 6.97914C28.9789 6.96896 28.9864 6.94388 29.0022 6.94388C29.5157 6.94388 29.9266 9.61197 29.9266 12.8616Z" fill="#BAB1B1"/>
<path d="M30.5942 12.8616C30.5942 17.4452 30.1833 21.1737 29.6698 21.1737C29.6282 21.1737 29.6345 21.1202 29.6611 21.0883C30.1103 20.5486 30.4658 17.0682 30.4658 12.8616C30.4658 8.64838 30.121 5.16368 29.6603 4.63239C29.6462 4.61607 29.6482 4.54944 29.6698 4.54944C30.1833 4.54944 30.5942 8.27793 30.5942 12.8616Z" fill="#BAB1B1"/>
<path d="M31.5828 12.8616C31.5828 18.7109 31.1719 23.4655 30.6584 23.4655C30.6155 23.4655 30.6203 23.4102 30.6448 23.375C31.0962 22.7261 31.4544 18.2709 31.4544 12.8616C31.4544 7.44536 31.1073 2.98572 30.6443 2.34569C30.6301 2.32605 30.6341 2.25762 30.6584 2.25762C31.1719 2.29182 31.5828 7.0123 31.5828 12.8616Z" fill="#BAB1B1"/>
<path d="M32.5585 12.8616C32.5585 19.9765 32.1476 25.7231 31.6341 25.7231C31.5899 25.7231 31.593 25.6654 31.6154 25.6273C32.0693 24.8528 32.4301 19.45 32.4301 12.8616C32.4301 6.27697 32.0817 0.844615 31.6174 0.0941054C31.5944 0.056984 31.5904 0 31.6341 0C32.1476 0 32.5585 5.74666 32.5585 12.8616Z" fill="#BAB1B1"/>
<path d="M34.0863 13.2378C34.0863 16.5216 34.4971 19.1555 35.0106 19.1555C35.025 19.1555 35.0322 19.1311 35.021 19.122C34.5711 18.7543 34.2146 16.2651 34.2146 13.2378C34.2146 10.2056 34.5603 7.74504 35.0219 7.35541C35.034 7.34523 35.0264 7.32015 35.0106 7.32015C34.4971 7.32015 34.0863 9.95403 34.0863 13.2378Z" fill="#E04444"/>
<path d="M33.4187 13.2378C33.4187 17.8215 33.8295 21.55 34.343 21.55C34.3847 21.55 34.3784 21.4965 34.3517 21.4645C33.9026 20.9249 33.547 17.4445 33.547 13.2378C33.547 9.02466 33.8918 5.53997 34.3525 5.00866C34.3666 4.99234 34.3646 4.92571 34.343 4.92571C33.8295 4.92571 33.4187 8.65419 33.4187 13.2378Z" fill="#E04444"/>
<path d="M32.4301 13.2378C32.4301 19.0871 32.8409 23.8418 33.3545 23.8418C33.3973 23.8418 33.3925 23.7864 33.3681 23.7513C32.9166 23.1024 32.5585 18.6472 32.5585 13.2378C32.5585 7.82163 32.9055 3.36199 33.3686 2.72196C33.3828 2.70232 33.3787 2.63388 33.3545 2.63388C32.8409 2.63388 32.4301 7.38856 32.4301 13.2378Z" fill="#E04444"/>
<path d="M31.4415 13.2378C31.4415 20.3528 31.8524 26.0994 32.3659 26.0994C32.4101 26.0994 32.407 26.0417 32.3846 26.0035C31.9307 25.2291 31.5699 19.8263 31.5699 13.2378C31.5699 6.65324 31.9183 1.22089 32.3826 0.470373C32.4056 0.433251 32.4095 0.376271 32.3659 0.376271C31.8524 0.342065 31.4415 6.12293 31.4415 13.2378Z" fill="#E04444"/>
<path d="M64 33.2143C64 50.2149 50.5324 64 33.9322 64C33.2903 64 32.6483 63.9658 32.0064 63.9316H31.9936C31.3645 63.9658 30.7226 64 30.0678 64C13.4548 64 0 50.2149 0 33.2143C0 31.6516 0.11329 30.1169 0.331949 28.6181C0.702759 26.0762 3.85155 27.8065 3.85155 30.3752C3.85155 30.8541 3.86439 31.333 3.87723 31.8119C4.55767 48.1625 16.8827 61.1609 31.9936 61.1609C47.1045 61.1609 59.4295 48.1625 60.1099 31.8119C60.1356 31.333 60.1356 30.8541 60.1356 30.3752C60.1356 27.7953 63.2937 26.0573 63.6668 28.61C63.8863 30.1114 64 31.6489 64 33.2143Z" fill="#E04444"/>
<path d="M38.9364 42.4176C38.909 42.4176 38.8855 42.3915 38.8659 42.3392C38.8463 42.287 38.8365 42.2245 38.8365 42.1516C38.8365 42.0787 38.8463 42.0161 38.8659 41.9639C38.8855 41.9117 38.909 41.8856 38.9364 41.8856C38.9637 41.8856 38.9872 41.9117 39.0068 41.9639C39.0264 42.0161 39.0362 42.0787 39.0362 42.1516C39.0362 42.1998 39.0316 42.2442 39.0223 42.2846C39.0135 42.325 39.0014 42.3575 38.9863 42.3821C38.9715 42.4058 38.9548 42.4176 38.9364 42.4176Z" fill="#7F7F7F"/>
<path d="M39.8058 42.4176C39.7784 42.4176 39.7549 42.3915 39.7353 42.3392C39.7157 42.287 39.706 42.2245 39.706 42.1516C39.706 42.0787 39.7157 42.0161 39.7353 41.9639C39.7549 41.9117 39.7784 41.8856 39.8058 41.8856C39.8331 41.8856 39.8566 41.9117 39.8762 41.9639C39.8958 42.0161 39.9056 42.0787 39.9056 42.1516C39.9056 42.1998 39.901 42.2442 39.8918 42.2846C39.8829 42.325 39.8709 42.3575 39.8557 42.3821C39.8409 42.4058 39.8243 42.4176 39.8058 42.4176Z" fill="#7F7F7F"/>
<path d="M40.6752 42.4176C40.6479 42.4176 40.6244 42.3915 40.6048 42.3392C40.5852 42.287 40.5754 42.2245 40.5754 42.1516C40.5754 42.0787 40.5852 42.0161 40.6048 41.9639C40.6244 41.9117 40.6479 41.8856 40.6752 41.8856C40.7026 41.8856 40.7261 41.9117 40.7457 41.9639C40.7653 42.0161 40.7751 42.0787 40.7751 42.1516C40.7751 42.1998 40.7704 42.2442 40.7612 42.2846C40.7523 42.325 40.7403 42.3575 40.7251 42.3821C40.7104 42.4058 40.6937 42.4176 40.6752 42.4176Z" fill="#7F7F7F"/>
<path d="M41.5147 42.3939C41.4786 42.3939 41.4493 42.3646 41.4493 42.3285V40.1872C41.4493 40.1523 41.4776 40.124 41.5125 40.124C41.5474 40.124 41.5757 40.1523 41.5757 40.1872V40.4621C41.5757 40.4647 41.5778 40.4669 41.5805 40.4669C41.5828 40.4669 41.5848 40.4651 41.5852 40.4627C41.6008 40.3523 41.6287 40.2626 41.6689 40.1935C41.7096 40.1235 41.7554 40.0885 41.8065 40.0885C41.8161 40.0885 41.8281 40.089 41.8425 40.09C41.862 40.0913 41.8752 40.108 41.8752 40.1275V40.4158C41.8752 40.43 41.8581 40.4408 41.8447 40.4358C41.8292 40.4289 41.8127 40.4255 41.7954 40.4255C41.754 40.4255 41.717 40.4486 41.6844 40.4949C41.6523 40.5402 41.6268 40.6033 41.6079 40.6841C41.5894 40.7639 41.5802 40.855 41.5802 40.9575V42.3285C41.5802 42.3646 41.5508 42.3939 41.5147 42.3939Z" fill="#7F7F7F"/>
<path d="M42.3617 42.4412C42.2796 42.4412 42.2088 42.3929 42.1492 42.2964C42.0901 42.1989 42.0444 42.0629 42.0122 41.8885C41.9804 41.7131 41.9645 41.5092 41.9645 41.2767C41.9645 41.0442 41.9804 40.8393 42.0122 40.6619C42.0444 40.4836 42.0891 40.3447 42.1465 40.2452C42.2042 40.1447 42.2715 40.0944 42.3484 40.0944C42.3927 40.0944 42.4366 40.1141 42.4798 40.1536C42.5231 40.193 42.5625 40.257 42.598 40.3457C42.6335 40.4334 42.6618 40.5496 42.6828 40.6944C42.7039 40.8393 42.7144 41.0176 42.7144 41.2294C42.7144 41.311 42.6483 41.3772 42.5667 41.3772H42.2085C42.1252 41.3772 42.0577 41.3097 42.0577 41.2265C42.0577 41.1432 42.1252 41.0757 42.2085 41.0757H42.3195C42.4641 41.0757 42.5845 40.9579 42.5656 40.8146C42.5619 40.7864 42.5575 40.7592 42.5525 40.7329C42.5336 40.6324 42.5066 40.5531 42.4715 40.4949C42.4367 40.4368 42.3957 40.4077 42.3484 40.4077C42.2962 40.4077 42.2511 40.4422 42.213 40.5112C42.1753 40.5792 42.1463 40.6678 42.1259 40.7772C42.1056 40.8866 42.0954 41.0038 42.0954 41.1289V41.3299C42.0954 41.5013 42.1065 41.6466 42.1287 41.7659C42.1513 41.8841 42.1825 41.9742 42.2225 42.0363C42.2624 42.0974 42.3088 42.1279 42.3617 42.1279C42.3961 42.1279 42.4271 42.1151 42.4549 42.0895C42.483 42.0629 42.5072 42.0235 42.5275 41.9713C42.537 41.9466 42.5454 41.9192 42.5528 41.889C42.5655 41.8375 42.6266 41.8121 42.669 41.8438C42.6889 41.8587 42.6995 41.883 42.6961 41.9076C42.6824 42.0056 42.6617 42.0928 42.634 42.1693C42.6026 42.255 42.5638 42.322 42.5175 42.3703C42.4713 42.4176 42.4194 42.4412 42.3617 42.4412Z" fill="#7F7F7F"/>
<path d="M43.512 40.5952C43.5153 40.6181 43.5056 40.641 43.4871 40.6549C43.4477 40.6846 43.3905 40.6612 43.3787 40.6133C43.375 40.5983 43.371 40.5835 43.3667 40.5688C43.3527 40.5186 43.3335 40.4772 43.309 40.4447C43.2846 40.4122 43.2534 40.3959 43.2153 40.3959C43.1632 40.3959 43.1197 40.4279 43.085 40.492C43.0506 40.555 43.0334 40.6353 43.0334 40.7329C43.0334 40.8196 43.0452 40.888 43.0689 40.9383C43.0925 40.9885 43.1295 41.0304 43.1798 41.0639L43.3063 41.1467C43.3824 41.1959 43.4392 41.2713 43.4766 41.3728C43.5139 41.4732 43.5326 41.6028 43.5326 41.7614C43.5326 41.8915 43.5185 42.0077 43.4904 42.1102C43.4627 42.2127 43.4239 42.2934 43.3739 42.3526C43.324 42.4117 43.266 42.4412 43.1998 42.4412C43.1129 42.4412 43.041 42.391 42.984 42.2905C42.9309 42.1968 42.896 42.0629 42.8792 41.8888C42.8769 41.8649 42.8882 41.8419 42.9082 41.8286C42.9498 41.8008 43.006 41.8276 43.015 41.8768C43.0276 41.9458 43.045 42.001 43.0672 42.0422C43.1005 42.1033 43.1439 42.1338 43.1976 42.1338C43.2586 42.1338 43.307 42.0993 43.3429 42.0304C43.3791 41.9604 43.3972 41.8767 43.3972 41.7792C43.3972 41.7003 43.3869 41.6343 43.3662 41.5811C43.3455 41.5269 43.3137 41.4865 43.2708 41.4599L43.1288 41.3713C43.0508 41.322 42.9934 41.2457 42.9568 41.1422C42.9206 41.0378 42.9025 40.9072 42.9025 40.7506C42.9025 40.6225 42.916 40.5092 42.943 40.4107C42.9703 40.3122 43.0075 40.2348 43.0545 40.1787C43.1018 40.1225 43.1554 40.0944 43.2153 40.0944C43.2996 40.0944 43.3658 40.1437 43.4139 40.2422C43.4585 40.3331 43.4913 40.4507 43.512 40.5952Z" fill="#7F7F7F"/>
<path d="M44.0757 42.4412C43.9988 42.4412 43.9313 42.3924 43.8733 42.2949C43.8156 42.1974 43.7705 42.0609 43.7379 41.8856C43.7058 41.7102 43.6897 41.5053 43.6897 41.2708C43.6897 41.0343 43.7058 40.8279 43.7379 40.6516C43.7705 40.4752 43.8156 40.3383 43.8733 40.2407C43.9313 40.1432 43.9988 40.0944 44.0757 40.0944C44.1526 40.0944 44.2199 40.1432 44.2776 40.2407C44.3357 40.3383 44.3808 40.4752 44.413 40.6516C44.4455 40.8279 44.4618 41.0343 44.4618 41.2708C44.4618 41.5053 44.4455 41.7102 44.413 41.8856C44.3808 42.0609 44.3357 42.1974 44.2776 42.2949C44.2199 42.3924 44.1526 42.4412 44.0757 42.4412ZM44.0757 42.1279C44.1342 42.1279 44.1822 42.088 44.2199 42.0082C44.2577 41.9284 44.2856 41.8235 44.3037 41.6934C44.3218 41.5634 44.3309 41.4225 44.3309 41.2708C44.3309 41.1191 44.3218 40.9777 44.3037 40.8467C44.2856 40.7156 44.2577 40.6097 44.2199 40.5289C44.1822 40.4481 44.1342 40.4077 44.0757 40.4077C44.0173 40.4077 43.9692 40.4481 43.9315 40.5289C43.8938 40.6097 43.8659 40.7156 43.8478 40.8467C43.8296 40.9777 43.8206 41.1191 43.8206 41.2708C43.8206 41.4225 43.8296 41.5634 43.8478 41.6934C43.8659 41.8235 43.8938 41.9284 43.9315 42.0082C43.9692 42.088 44.0173 42.1279 44.0757 42.1279Z" fill="#7F7F7F"/>
<path d="M44.727 39.3674C44.7632 39.3674 44.7925 39.3967 44.7925 39.4328V42.3285C44.7925 42.3646 44.7632 42.3939 44.727 42.3939C44.6909 42.3939 44.6616 42.3646 44.6616 42.3285V39.4328C44.6616 39.3967 44.6909 39.3674 44.727 39.3674Z" fill="#7F7F7F"/>
<path d="M45.6484 40.124C45.691 40.124 45.7237 40.1616 45.7178 40.2037L45.423 42.328C45.4178 42.3658 45.3854 42.3939 45.3473 42.3939C45.3091 42.3939 45.2768 42.3658 45.2716 42.328L44.9767 40.2037C44.9709 40.1616 45.0036 40.124 45.0461 40.124C45.0813 40.124 45.1111 40.1501 45.1156 40.185L45.3423 41.9285C45.3426 41.931 45.3448 41.9328 45.3473 41.9328C45.3498 41.9328 45.352 41.931 45.3523 41.9285L45.579 40.185C45.5835 40.1501 45.6132 40.124 45.6484 40.124Z" fill="#7F7F7F"/>
<path d="M45.9671 42.3939C45.931 42.3939 45.9017 42.3646 45.9017 42.3285V40.1894C45.9017 40.1533 45.931 40.124 45.9671 40.124C46.0033 40.124 46.0326 40.1533 46.0326 40.1894V42.3285C46.0326 42.3646 46.0033 42.3939 45.9671 42.3939ZM45.9682 39.7457C45.9427 39.7457 45.9207 39.7225 45.9022 39.6762C45.8841 39.6299 45.8751 39.5743 45.8751 39.5092C45.8751 39.4442 45.8841 39.3885 45.9022 39.3422C45.9207 39.2959 45.9427 39.2728 45.9682 39.2728C45.9938 39.2728 46.0156 39.2959 46.0337 39.3422C46.0522 39.3885 46.0614 39.4442 46.0614 39.5092C46.0614 39.5743 46.0522 39.6299 46.0337 39.6762C46.0156 39.7225 45.9938 39.7457 45.9682 39.7457Z" fill="#7F7F7F"/>
<path d="M46.4032 41.0284V42.3285C46.4032 42.3646 46.3739 42.3939 46.3378 42.3939C46.3016 42.3939 46.2723 42.3646 46.2723 42.3285V40.1872C46.2723 40.1523 46.3006 40.124 46.3356 40.124C46.3705 40.124 46.3988 40.1523 46.3988 40.1872V40.4726C46.3988 40.476 46.4015 40.4787 46.4048 40.4787C46.4077 40.4787 46.4103 40.4766 46.4108 40.4737C46.4307 40.3607 46.4608 40.2698 46.5009 40.2008C46.5415 40.1299 46.594 40.0944 46.6584 40.0944C46.7161 40.0944 46.7665 40.126 46.8098 40.189C46.8531 40.2511 46.8867 40.3457 46.9108 40.4728C46.9348 40.5989 46.9468 40.7585 46.9468 40.9516V42.3285C46.9468 42.3646 46.9175 42.3939 46.8814 42.3939C46.8452 42.3939 46.8159 42.3646 46.8159 42.3285V40.9752C46.8159 40.7969 46.7985 40.658 46.7638 40.5585C46.729 40.458 46.6813 40.4077 46.6207 40.4077C46.5789 40.4077 46.5415 40.4319 46.5086 40.4802C46.4761 40.5284 46.4504 40.5989 46.4315 40.6915C46.4127 40.7841 46.4032 40.8964 46.4032 41.0284Z" fill="#7F7F7F"/>
<path d="M47.5299 43.2924C47.4667 43.2924 47.4123 43.2708 47.3668 43.2274C47.3213 43.1851 47.2834 43.1289 47.2531 43.0589C47.2268 42.9983 47.2051 42.9338 47.1882 42.8655C47.1837 42.8473 47.1864 42.8282 47.1952 42.8117L47.2157 42.7735C47.2412 42.7257 47.3133 42.7328 47.3308 42.7841C47.3489 42.8383 47.3737 42.8851 47.4051 42.9245C47.4369 42.9649 47.4785 42.9851 47.5299 42.9851C47.5987 42.9851 47.6554 42.9407 47.7002 42.8521C47.7449 42.7634 47.7673 42.6245 47.7673 42.4353V41.9804C47.7673 41.977 47.7645 41.9742 47.7611 41.9742C47.7582 41.9742 47.7557 41.9762 47.7551 41.979C47.7455 42.0195 47.7322 42.0692 47.7151 42.1279C47.6978 42.188 47.6726 42.2417 47.6397 42.289C47.6072 42.3353 47.5632 42.3585 47.5077 42.3585C47.4389 42.3585 47.3772 42.3151 47.3224 42.2284C47.2681 42.1417 47.225 42.0156 47.1932 41.8501C47.1618 41.6846 47.1461 41.4836 47.1461 41.2471C47.1461 41.0146 47.1614 40.8122 47.1921 40.6398C47.2228 40.4664 47.2655 40.3324 47.3202 40.2378C47.375 40.1422 47.4382 40.0944 47.5099 40.0944C47.5654 40.0944 47.6094 40.1191 47.6419 40.1683C47.6748 40.2166 47.7 40.2718 47.7174 40.3339C47.7343 40.392 47.7475 40.4404 47.757 40.4789C47.7578 40.4822 47.7608 40.4846 47.7643 40.4846C47.7684 40.4846 47.7717 40.4813 47.7717 40.4771V40.1872C47.7717 40.1523 47.8 40.124 47.835 40.124C47.8699 40.124 47.8982 40.1523 47.8982 40.1872V42.459C47.8982 42.654 47.8815 42.8126 47.8483 42.9348C47.8154 43.058 47.771 43.1481 47.7151 43.2052C47.6597 43.2634 47.5979 43.2924 47.5299 43.2924ZM47.5255 42.0452C47.578 42.0452 47.6223 42.0131 47.6586 41.9491C47.6948 41.8851 47.7224 41.793 47.7412 41.6728C47.7601 41.5526 47.7695 41.4087 47.7695 41.2412C47.7695 41.0777 47.7603 40.9334 47.7418 40.8082C47.7233 40.6831 47.6959 40.5851 47.6597 40.5141C47.6234 40.4432 47.5787 40.4077 47.5255 40.4077C47.47 40.4077 47.4238 40.4452 47.3868 40.5201C47.3502 40.5949 47.3226 40.6954 47.3041 40.8215C47.286 40.9476 47.277 41.0875 47.277 41.2412C47.277 41.3989 47.2862 41.5383 47.3047 41.6595C47.3236 41.7797 47.3513 41.8742 47.3879 41.9432C47.4249 42.0112 47.4707 42.0452 47.5255 42.0452Z" fill="#7F7F7F"/>
<path d="M48.6614 43.2452C48.6392 43.2452 48.6194 43.2402 48.6021 43.2304C48.5762 43.2172 48.5677 43.1877 48.5709 43.1589L48.5896 42.986C48.594 42.9454 48.6439 42.9296 48.6836 42.92C48.708 42.9141 48.7296 42.8851 48.7485 42.8328C48.7677 42.7816 48.7853 42.6984 48.8012 42.5831C48.8174 42.4654 48.8173 42.3461 48.8011 42.2284L48.5215 40.2037C48.5157 40.1616 48.5484 40.124 48.591 40.124C48.6262 40.124 48.6559 40.1501 48.6605 40.1851L48.8871 41.9284C48.8875 41.931 48.8896 41.9328 48.8921 41.9328C48.8947 41.9328 48.8968 41.931 48.8972 41.9284L49.1238 40.185C49.1284 40.1501 49.1581 40.124 49.1933 40.124C49.2358 40.124 49.2685 40.1616 49.2627 40.2037L48.9121 42.725C48.8958 42.8422 48.8757 42.9392 48.8517 43.0161C48.8276 43.0939 48.7997 43.1516 48.7679 43.189C48.7365 43.2264 48.701 43.2452 48.6614 43.2452Z" fill="#7F7F7F"/>
<path d="M49.7621 42.4412C49.6852 42.4412 49.6177 42.3924 49.5597 42.2949C49.502 42.1974 49.4569 42.0609 49.4243 41.8856C49.3922 41.7102 49.3761 41.5053 49.3761 41.2708C49.3761 41.0343 49.3922 40.8279 49.4243 40.6516C49.4569 40.4752 49.502 40.3383 49.5597 40.2407C49.6177 40.1432 49.6852 40.0944 49.7621 40.0944C49.839 40.0944 49.9063 40.1432 49.964 40.2407C50.0221 40.3383 50.0672 40.4752 50.0994 40.6516C50.1319 40.8279 50.1482 41.0343 50.1482 41.2708C50.1482 41.5053 50.1319 41.7102 50.0994 41.8856C50.0672 42.0609 50.0221 42.1974 49.964 42.2949C49.9063 42.3924 49.839 42.4412 49.7621 42.4412ZM49.7621 42.1279C49.8206 42.1279 49.8686 42.088 49.9063 42.0082C49.9441 41.9284 49.972 41.8235 49.9901 41.6934C50.0082 41.5634 50.0173 41.4225 50.0173 41.2708C50.0173 41.1191 50.0082 40.9777 49.9901 40.8467C49.972 40.7156 49.9441 40.6097 49.9063 40.5289C49.8686 40.4481 49.8206 40.4077 49.7621 40.4077C49.7037 40.4077 49.6556 40.4481 49.6179 40.5289C49.5802 40.6097 49.5523 40.7156 49.5342 40.8467C49.516 40.9777 49.507 41.1191 49.507 41.2708C49.507 41.4225 49.516 41.5634 49.5342 41.6934C49.5523 41.8235 49.5802 41.9284 49.6179 42.0082C49.6556 42.088 49.7037 42.1279 49.7621 42.1279Z" fill="#7F7F7F"/>
<path d="M50.8849 41.4659V40.1894C50.8849 40.1533 50.9142 40.124 50.9504 40.124C50.9865 40.124 51.0158 40.1533 51.0158 40.1895V42.3285C51.0158 42.3646 50.9865 42.3939 50.9504 42.3939C50.9142 42.3939 50.8849 42.3646 50.8849 42.3285V42.0145C50.8849 42.0119 50.8828 42.0097 50.8801 42.0097C50.8778 42.0097 50.8757 42.0114 50.8753 42.0137C50.8553 42.1272 50.8245 42.2239 50.7829 42.3038C50.7407 42.3836 50.6875 42.4235 50.6231 42.4235C50.5699 42.4235 50.5225 42.3924 50.4811 42.3304C50.4397 42.2673 50.4072 42.1727 50.3835 42.0466C50.3598 41.9196 50.348 41.7594 50.348 41.5663V40.1894C50.348 40.1533 50.3773 40.124 50.4134 40.124C50.4496 40.124 50.4789 40.1533 50.4789 40.1894V41.5427C50.4789 41.7082 50.4963 41.8402 50.531 41.9388C50.5662 42.0373 50.6109 42.0865 50.6653 42.0865C50.6978 42.0865 50.7309 42.0644 50.7646 42.02C50.7986 41.9757 50.827 41.9077 50.85 41.8161C50.8733 41.7245 50.8849 41.6077 50.8849 41.4659Z" fill="#7F7F7F"/>
<path d="M51.321 42.3939C51.2849 42.3939 51.2556 42.3646 51.2556 42.3285V40.1872C51.2556 40.1523 51.2839 40.124 51.3188 40.124C51.3537 40.124 51.382 40.1523 51.382 40.1872V40.4621C51.382 40.4647 51.3842 40.4669 51.3868 40.4669C51.3891 40.4669 51.3911 40.4651 51.3915 40.4627C51.4071 40.3523 51.435 40.2626 51.4752 40.1935C51.5159 40.1235 51.5617 40.0885 51.6128 40.0885C51.6224 40.0885 51.6344 40.089 51.6488 40.09C51.6683 40.0913 51.6815 40.108 51.6815 40.1275V40.4158C51.6815 40.43 51.6644 40.4408 51.651 40.4358C51.6355 40.4289 51.6191 40.4255 51.6017 40.4255C51.5603 40.4255 51.5233 40.4486 51.4907 40.4949C51.4586 40.5402 51.4331 40.6033 51.4142 40.6841C51.3957 40.7639 51.3865 40.855 51.3865 40.9575V42.3285C51.3865 42.3646 51.3572 42.3939 51.321 42.3939Z" fill="#7F7F7F"/>
<path d="M52.3625 39.3674C52.4005 39.3674 52.4313 39.3982 52.4313 39.4361V42.3251C52.4313 42.3631 52.4005 42.3939 52.3625 42.3939C52.3246 42.3939 52.2938 42.3631 52.2938 42.3252V39.4361C52.2938 39.3982 52.3246 39.3674 52.3625 39.3674Z" fill="#7F7F7F"/>
<path d="M52.8076 39.6925C52.7178 39.6925 52.645 39.6197 52.645 39.5299C52.645 39.4401 52.7178 39.3674 52.8076 39.3674H53.3344C53.4242 39.3674 53.497 39.4401 53.497 39.5299C53.497 39.6197 53.4242 39.6925 53.3344 39.6925H53.3184C53.2197 39.6925 53.1398 39.7724 53.1398 39.8711V42.3251C53.1398 42.3631 53.109 42.3939 53.071 42.3939C53.033 42.3939 53.0022 42.3631 53.0022 42.3251V39.8711C53.0022 39.7724 52.9222 39.6925 52.8236 39.6925H52.8076Z" fill="#7F7F7F"/>
<path d="M54.2617 41.0284V42.3285C54.2617 42.3646 54.2324 42.3939 54.1963 42.3939C54.1601 42.3939 54.1308 42.3646 54.1308 42.3285V40.1872C54.1308 40.1523 54.1591 40.124 54.194 40.124C54.229 40.124 54.2573 40.1523 54.2573 40.1872V40.4727C54.2573 40.476 54.26 40.4787 54.2633 40.4787C54.2662 40.4787 54.2687 40.4766 54.2692 40.4737C54.2892 40.3607 54.3192 40.2698 54.3593 40.2008C54.4 40.1299 54.4525 40.0944 54.5168 40.0944C54.5745 40.0944 54.625 40.126 54.6683 40.189C54.7115 40.2511 54.7452 40.3457 54.7692 40.4728C54.7933 40.5989 54.8053 40.7585 54.8053 40.9516V42.3285C54.8053 42.3646 54.776 42.3939 54.7398 42.3939C54.7037 42.3939 54.6744 42.3646 54.6744 42.3285V40.9752C54.6744 40.7969 54.657 40.658 54.6222 40.5585C54.5875 40.458 54.5398 40.4077 54.4791 40.4077C54.4373 40.4077 54.4 40.4319 54.3671 40.4802C54.3345 40.5284 54.3089 40.5989 54.29 40.6915C54.2711 40.7841 54.2617 40.8964 54.2617 41.0284Z" fill="#7F7F7F"/>
<path d="M55.4017 42.4412C55.3196 42.4412 55.2488 42.3929 55.1892 42.2964C55.1301 42.1989 55.0844 42.0629 55.0522 41.8885C55.0204 41.7131 55.0045 41.5092 55.0045 41.2767C55.0045 41.0442 55.0204 40.8393 55.0522 40.6619C55.0844 40.4836 55.1292 40.3447 55.1865 40.2452C55.2442 40.1447 55.3115 40.0944 55.3884 40.0944C55.4327 40.0944 55.4766 40.1141 55.5198 40.1536C55.5631 40.193 55.6025 40.257 55.638 40.3457C55.6735 40.4334 55.7017 40.5496 55.7228 40.6944C55.7439 40.8393 55.7544 41.0176 55.7544 41.2294C55.7544 41.311 55.6883 41.3772 55.6067 41.3772H55.2485C55.1652 41.3772 55.0977 41.3097 55.0977 41.2265C55.0977 41.1432 55.1652 41.0757 55.2485 41.0757H55.3595C55.5041 41.0757 55.6245 40.9579 55.6056 40.8146C55.6019 40.7864 55.5975 40.7592 55.5925 40.7329C55.5736 40.6324 55.5466 40.5531 55.5115 40.4949C55.4767 40.4368 55.4357 40.4077 55.3884 40.4077C55.3362 40.4077 55.2911 40.4422 55.253 40.5112C55.2153 40.5792 55.1863 40.6678 55.1659 40.7772C55.1456 40.8866 55.1354 41.0038 55.1354 41.1289V41.3299C55.1354 41.5013 55.1465 41.6466 55.1687 41.7659C55.1913 41.8841 55.2225 41.9742 55.2625 42.0363C55.3024 42.0974 55.3488 42.1279 55.4017 42.1279C55.4361 42.1279 55.4671 42.1151 55.4949 42.0895C55.523 42.0629 55.5472 42.0235 55.5675 41.9713C55.577 41.9466 55.5854 41.9192 55.5928 41.889C55.6055 41.8375 55.6666 41.8121 55.709 41.8438C55.7289 41.8587 55.7395 41.883 55.736 41.9076C55.7224 42.0056 55.7017 42.0928 55.674 42.1693C55.6426 42.255 55.6038 42.322 55.5575 42.3703C55.5113 42.4176 55.4594 42.4412 55.4017 42.4412Z" fill="#7F7F7F"/>
<path d="M56.3108 42.4412C56.2287 42.4412 56.1579 42.3929 56.0983 42.2964C56.0392 42.1989 55.9935 42.0629 55.9613 41.8885C55.9295 41.7131 55.9136 41.5092 55.9136 41.2767C55.9136 41.0442 55.9295 40.8393 55.9613 40.6619C55.9935 40.4836 56.0382 40.3447 56.0956 40.2452C56.1532 40.1447 56.2205 40.0944 56.2975 40.0944C56.3418 40.0944 56.3857 40.1141 56.4289 40.1536C56.4722 40.193 56.5116 40.257 56.5471 40.3457C56.5826 40.4334 56.6108 40.5496 56.6319 40.6944C56.653 40.8393 56.6635 41.0176 56.6635 41.2294C56.6635 41.311 56.5974 41.3772 56.5158 41.3772H56.1576C56.0743 41.3772 56.0068 41.3097 56.0068 41.2265C56.0068 41.1432 56.0743 41.0757 56.1576 41.0757H56.2686C56.4132 41.0757 56.5336 40.9579 56.5147 40.8146C56.511 40.7864 56.5066 40.7592 56.5016 40.7329C56.4827 40.6324 56.4557 40.5531 56.4206 40.4949C56.3858 40.4368 56.3448 40.4077 56.2975 40.4077C56.2453 40.4077 56.2002 40.4422 56.1621 40.5112C56.1244 40.5792 56.0954 40.6678 56.075 40.7772C56.0547 40.8866 56.0445 41.0038 56.0445 41.1289V41.3299C56.0445 41.5013 56.0556 41.6466 56.0778 41.7659C56.1004 41.8841 56.1316 41.9742 56.1715 42.0363C56.2115 42.0974 56.2579 42.1279 56.3108 42.1279C56.3452 42.1279 56.3762 42.1151 56.4039 42.0895C56.4321 42.0629 56.4563 42.0235 56.4766 41.9713C56.486 41.9466 56.4945 41.9192 56.5019 41.889C56.5146 41.8375 56.5757 41.8121 56.6181 41.8438C56.638 41.8587 56.6486 41.883 56.6451 41.9076C56.6315 42.0056 56.6108 42.0928 56.5831 42.1693C56.5517 42.255 56.5129 42.322 56.4666 42.3703C56.4204 42.4176 56.3685 42.4412 56.3108 42.4412Z" fill="#7F7F7F"/>
<path d="M57.1844 42.4412C57.1134 42.4412 57.0507 42.3934 56.9963 42.2979C56.942 42.2013 56.8995 42.0654 56.8688 41.89C56.8381 41.7136 56.8227 41.5053 56.8227 41.2649C56.8227 41.0265 56.8381 40.8196 56.8688 40.6442C56.8995 40.4688 56.9422 40.3334 56.9969 40.2378C57.0516 40.1422 57.1148 40.0944 57.1866 40.0944C57.2421 40.0944 57.2859 40.1191 57.318 40.1683C57.3506 40.2166 57.3754 40.2718 57.3924 40.3339C57.4091 40.3925 57.4222 40.4412 57.4317 40.4799C57.4324 40.4826 57.4349 40.4846 57.4377 40.4846C57.4412 40.4846 57.4439 40.4818 57.4439 40.4784V39.4328C57.4439 39.3967 57.4732 39.3674 57.5094 39.3674C57.5455 39.3674 57.5748 39.3967 57.5748 39.4328V42.3307C57.5748 42.3656 57.5465 42.3939 57.5116 42.3939C57.4767 42.3939 57.4484 42.3656 57.4484 42.3307V42.0538C57.4484 42.049 57.4445 42.0452 57.4397 42.0452C57.4357 42.0452 57.4322 42.0479 57.4313 42.0518C57.4218 42.0921 57.4086 42.1421 57.3918 42.2018C57.3741 42.2639 57.3487 42.3195 57.3158 42.3688C57.2829 42.4171 57.2391 42.4412 57.1844 42.4412ZM57.2021 42.1279C57.2546 42.1279 57.299 42.0915 57.3352 42.0186C57.3715 41.9447 57.399 41.8427 57.4179 41.7127C57.4367 41.5816 57.4462 41.4304 57.4462 41.259C57.4462 41.0895 57.4369 40.9412 57.4184 40.8141C57.3999 40.6861 57.3726 40.5866 57.3363 40.5156C57.3001 40.4437 57.2554 40.4077 57.2021 40.4077C57.1467 40.4077 57.1004 40.4457 57.0634 40.5215C57.0268 40.5964 56.9993 40.6984 56.9808 40.8274C56.9627 40.9555 56.9536 41.0994 56.9536 41.259C56.9536 41.4205 56.9629 41.5673 56.9814 41.6994C57.0002 41.8304 57.028 41.9348 57.0646 42.0126C57.1015 42.0895 57.1474 42.1279 57.2021 42.1279Z" fill="#7F7F7F"/>
<path d="M58.4312 40.5952C58.4345 40.6181 58.4248 40.641 58.4063 40.6549C58.3669 40.6846 58.3097 40.6612 58.2979 40.6133C58.2942 40.5983 58.2902 40.5835 58.2859 40.5688C58.2719 40.5186 58.2526 40.4772 58.2282 40.4447C58.2038 40.4122 58.1726 40.3959 58.1345 40.3959C58.0824 40.3959 58.0389 40.4279 58.0042 40.492C57.9698 40.555 57.9526 40.6353 57.9526 40.7329C57.9526 40.8196 57.9644 40.888 57.9881 40.9383C58.0117 40.9885 58.0487 41.0304 58.099 41.0639L58.2255 41.1467C58.3016 41.1959 58.3584 41.2713 58.3957 41.3728C58.4331 41.4732 58.4518 41.6028 58.4518 41.7614C58.4518 41.8915 58.4377 42.0077 58.4096 42.1102C58.3819 42.2127 58.3431 42.2934 58.2931 42.3526C58.2432 42.4117 58.1852 42.4412 58.119 42.4412C58.0321 42.4412 57.9602 42.391 57.9032 42.2905C57.8501 42.1968 57.8152 42.0629 57.7984 41.8888C57.7961 41.8649 57.8074 41.8419 57.8274 41.8286C57.869 41.8008 57.9252 41.8276 57.9342 41.8768C57.9468 41.9458 57.9642 42.001 57.9864 42.0422C58.0197 42.1033 58.0631 42.1338 58.1168 42.1338C58.1778 42.1338 58.2262 42.0993 58.2621 42.0304C58.2983 41.9604 58.3164 41.8767 58.3164 41.7792C58.3164 41.7003 58.3061 41.6343 58.2854 41.5811C58.2647 41.5269 58.2329 41.4865 58.19 41.4599L58.048 41.3713C57.9699 41.322 57.9126 41.2457 57.876 41.1422C57.8398 41.0378 57.8217 40.9072 57.8217 40.7506C57.8217 40.6225 57.8352 40.5092 57.8622 40.4107C57.8895 40.3122 57.9267 40.2348 57.9736 40.1787C58.021 40.1225 58.0746 40.0944 58.1345 40.0944C58.2188 40.0944 58.285 40.1437 58.3331 40.2422C58.3777 40.3331 58.4105 40.4507 58.4312 40.5952Z" fill="#7F7F7F"/>
<path d="M7.91762 29.7841C7.9632 30.3546 8.7939 30.3685 8.85861 29.7999L8.88307 29.585C8.89837 29.4506 9.01213 29.349 9.14744 29.349C9.28275 29.349 9.39651 29.4506 9.41181 29.585L9.43592 29.7968C9.49993 30.3593 10.3221 30.3445 10.3658 29.7801L10.3774 29.6302C10.3897 29.4715 10.5221 29.349 10.6813 29.349C10.8606 29.349 11.0012 29.5031 10.9848 29.6818L10.3097 37.0023C10.2949 37.1624 10.1606 37.2849 9.99984 37.2849C9.84019 37.2849 9.70644 37.1641 9.69025 37.0052L9.67014 36.808C9.60546 36.1735 8.68196 36.1714 8.61438 36.8055L8.59301 37.006C8.57611 37.1646 8.44233 37.2849 8.28286 37.2849C8.1217 37.2849 7.98707 37.1621 7.97228 37.0016L7.29732 29.6821C7.28083 29.5033 7.42157 29.349 7.60114 29.349C7.76023 29.349 7.89261 29.4712 7.90529 29.6298L7.91762 29.7841Z" fill="black"/>
<path d="M11.6574 30.8541C11.4943 30.8541 11.3621 30.7219 11.3621 30.5588V29.6443C11.3621 29.4812 11.4943 29.349 11.6574 29.349C11.8205 29.349 11.9527 29.4812 11.9527 29.6443V30.5588C11.9527 30.7219 11.8205 30.8541 11.6574 30.8541ZM11.6574 37.2849C11.4943 37.2849 11.3621 37.1527 11.3621 36.9896V31.9019C11.3621 31.7388 11.4943 31.6066 11.6574 31.6066C11.8205 31.6066 11.9527 31.7388 11.9527 31.9019V36.9896C11.9527 37.1527 11.8205 37.2849 11.6574 37.2849Z" fill="black"/>
<path d="M13.2494 37.3875C13.0054 37.3875 12.8257 37.1823 12.6973 36.7376C12.5689 36.2929 12.5047 35.7114 12.5047 34.9246V34.0353C12.5047 33.2485 12.5689 32.6328 12.6973 32.2223C12.8257 31.8119 13.0183 31.5724 13.2494 31.5724C13.3649 31.5724 13.4804 31.675 13.5831 31.8461C13.8547 32.2983 13.8163 32.8652 13.7949 33.3922L13.7757 33.8642C13.7757 33.659 13.7629 33.5222 13.7372 33.3854C13.7115 33.2485 13.673 33.1459 13.6217 33.0775C13.5703 33.0091 13.5061 32.9749 13.4419 32.9749C13.3264 32.9749 13.2493 33.0775 13.1852 33.2485C13.121 33.4538 13.0953 33.6932 13.0953 34.0695V34.9589C13.0953 35.3009 13.121 35.5746 13.1852 35.7456C13.2493 35.9166 13.3264 36.0192 13.4419 36.0192C13.519 36.0192 13.5703 35.985 13.6217 35.9166C13.673 35.8482 13.7115 35.7456 13.7372 35.6088C13.7629 35.4719 13.7757 35.3351 13.7757 35.1299L13.7944 36.074C13.7991 36.3108 13.7884 36.5934 13.7235 36.8212C13.6514 37.0742 13.5496 37.3402 13.2902 37.384C13.2768 37.3863 13.2631 37.3875 13.2494 37.3875ZM14.071 37.2849C13.9079 37.2849 13.7757 37.1527 13.7757 36.9896V29.6443C13.7757 29.4812 13.9079 29.349 14.071 29.349C14.2341 29.349 14.3663 29.4812 14.3663 29.6443V36.9896C14.3663 37.1527 14.2341 37.2849 14.071 37.2849Z" fill="black"/>
<path d="M15.9711 37.3875C15.6501 37.3875 15.3934 37.1823 15.2136 36.7376C15.0339 36.2929 14.944 35.6772 14.944 34.8562V34.2063C14.944 33.3512 15.0339 32.7012 15.2008 32.2565C15.3677 31.8119 15.6116 31.5724 15.9326 31.5724C16.2279 31.5724 16.459 31.8461 16.6259 32.3934C16.7928 32.9407 16.8698 33.7274 16.8698 34.7194C16.8698 34.9272 16.7013 35.0957 16.4935 35.0957H15.8423C15.5589 35.0957 15.3292 34.866 15.3292 34.5826V34.5467C15.3292 34.2832 15.5429 34.0695 15.8065 34.0695H16.1932C16.2669 34.0695 16.3246 34.0061 16.3178 33.9327C16.3049 33.6248 16.2664 33.3511 16.2022 33.1801C16.138 33.0091 16.0481 32.9065 15.9326 32.9065C15.7914 32.9065 15.6758 33.0091 15.5988 33.2143C15.5218 33.4196 15.4833 33.7274 15.4833 34.1379V34.8562C15.4833 35.2325 15.5218 35.5404 15.6116 35.7456C15.7015 35.9508 15.817 36.0534 15.9711 36.0534C16.0481 36.0534 16.1252 36.0192 16.2022 35.9508C16.3138 35.8517 16.5152 35.8533 16.5765 35.9893L16.7413 36.3553C16.7823 36.4464 16.7847 36.551 16.7411 36.6409C16.6727 36.7818 16.5995 36.9008 16.5191 36.9978C16.4508 37.0801 16.3812 37.1625 16.3061 37.2386C16.1981 37.3479 16.0883 37.3875 15.9711 37.3875Z" fill="black"/>
<path d="M18.5645 37.3875C18.3206 37.3875 18.1151 37.2849 17.9482 37.0454C17.7813 36.806 17.653 36.4639 17.5631 36.0192C17.4732 35.5746 17.4347 35.0273 17.4347 34.4115V32.2223C17.4347 31.6066 17.4732 31.0593 17.5631 30.6146C17.653 30.17 17.7813 29.8279 17.9482 29.5885C18.1151 29.349 18.3206 29.2464 18.5645 29.2464C18.7699 29.2464 18.9368 29.349 19.0909 29.5542C19.2449 29.7595 19.3733 30.0673 19.476 30.4778C19.5585 30.8075 19.6162 31.1813 19.6556 31.6169C19.6719 31.7963 19.5288 31.9487 19.3487 31.9487C19.188 31.9487 19.0547 31.8262 19.0317 31.6671C19.0108 31.5217 18.9866 31.3932 18.9625 31.2646C18.9111 31.0935 18.8598 30.9567 18.7827 30.8541C18.7057 30.7515 18.6415 30.7173 18.5517 30.7173C18.3848 30.7173 18.2564 30.8541 18.1665 31.0935C18.0766 31.333 18.0253 31.7092 18.0253 32.1881V34.3773C18.0253 34.8562 18.0766 35.1983 18.1665 35.4719C18.2564 35.7456 18.3848 35.8482 18.5517 35.8482C18.68 35.8482 18.7956 35.7456 18.8855 35.5403C18.953 35.3861 19.006 35.174 19.0391 34.9039C19.0588 34.743 19.1915 34.6168 19.3535 34.6168C19.531 34.6168 19.672 34.767 19.6548 34.9437C19.6121 35.3814 19.546 35.7568 19.4632 36.0877C19.4344 36.2027 19.4036 36.3097 19.3708 36.4087C19.2298 36.8336 19.0122 37.3875 18.5645 37.3875Z" fill="black"/>
<path d="M21.1579 37.3875C20.8497 37.3875 20.6058 37.1823 20.4389 36.7376C20.272 36.2929 20.1821 35.7114 20.1821 34.9246V34.0011C20.1821 33.2143 20.272 32.6328 20.4389 32.1881C20.6058 31.7435 20.8497 31.5382 21.1579 31.5382C21.466 31.5382 21.7099 31.7435 21.8768 32.1881C22.0437 32.6328 22.1336 33.2143 22.1336 34.0011V34.9246C22.1336 35.7114 22.0437 36.2929 21.8768 36.7376C21.6971 37.148 21.466 37.3875 21.1579 37.3875ZM21.145 35.9508C21.2606 35.9508 21.3633 35.8482 21.4275 35.6772C21.4917 35.5061 21.5302 35.2667 21.5302 34.9246V34.0011C21.5302 33.6932 21.4917 33.4538 21.4275 33.2485C21.3633 33.0775 21.2734 32.9749 21.145 32.9749C21.0295 32.9749 20.9396 33.0775 20.8626 33.2485C20.7856 33.4196 20.7599 33.659 20.7599 34.0011V34.9246C20.7599 35.2325 20.7984 35.5061 20.8626 35.6772C20.9396 35.8482 21.0295 35.9508 21.145 35.9508Z" fill="black"/>
<path d="M23.0195 37.2849C22.8564 37.2849 22.7242 37.1527 22.7242 36.9896V31.9019C22.7242 31.7388 22.8564 31.6066 23.0195 31.6066C23.1825 31.6066 23.3147 31.7388 23.3147 31.9019V36.9896C23.3147 37.1527 23.1825 37.2849 23.0195 37.2849ZM24.3226 37.2849C24.163 37.2849 24.0337 37.1555 24.0337 36.996V34.0011C24.0337 33.659 23.9952 33.4196 23.931 33.2485C23.8668 33.0775 23.7769 32.9749 23.6485 32.9749C23.533 32.9749 23.456 33.0433 23.3918 33.2143C23.3276 33.3854 23.3019 33.5906 23.3019 33.8642L23.2841 33.4254C23.2618 32.8759 23.2114 32.2833 23.4945 31.8119C23.5972 31.6408 23.7127 31.5382 23.854 31.5382C24.0979 31.5382 24.2776 31.7435 24.4189 32.1881C24.5472 32.6328 24.6114 33.2143 24.6114 34.0011V36.996C24.6114 37.1555 24.4821 37.2849 24.3226 37.2849ZM25.6449 37.2849C25.4783 37.2849 25.3432 37.1498 25.3432 36.9832V34.0011C25.3432 33.659 25.3176 33.4196 25.2534 33.2485C25.1892 33.0775 25.0993 32.9749 24.9838 32.9749C24.8682 32.9749 24.7783 33.0775 24.727 33.2485C24.6628 33.4196 24.6371 33.659 24.6371 33.9669L24.5989 33.5367C24.5476 32.96 24.4799 32.3258 24.804 31.8461C24.9196 31.6408 25.0479 31.5382 25.1763 31.5382C25.4203 31.5382 25.6128 31.7435 25.7412 32.1881C25.8696 32.6328 25.9466 33.2143 25.9466 34.0011V36.9832C25.9466 37.1498 25.8116 37.2849 25.6449 37.2849Z" fill="black"/>
<path d="M28.1292 29.349C28.2994 29.349 28.4373 29.487 28.4373 29.6571V36.9767C28.4373 37.1469 28.2994 37.2849 28.1292 37.2849C27.959 37.2849 27.8211 37.1469 27.8211 36.9767V29.6571C27.8211 29.487 27.959 29.349 28.1292 29.349Z" fill="black"/>
<path d="M30.2219 37.3875C29.9779 37.3875 29.7725 37.2849 29.6056 37.0454C29.4387 36.806 29.3103 36.4639 29.2205 36.0192C29.1306 35.5746 29.0921 35.0273 29.0921 34.4115V32.2223C29.0921 31.6066 29.1306 31.0593 29.2205 30.6146C29.3103 30.17 29.4387 29.8279 29.6056 29.5885C29.7725 29.349 29.9779 29.2464 30.2219 29.2464C30.4273 29.2464 30.5942 29.349 30.7482 29.5542C30.9023 29.7595 31.0307 30.0673 31.1334 30.4778C31.2159 30.8075 31.2735 31.1813 31.313 31.6169C31.3292 31.7963 31.1862 31.9487 31.0061 31.9487C30.8454 31.9487 30.712 31.8262 30.6891 31.6671C30.6681 31.5217 30.644 31.3932 30.6199 31.2646C30.5685 31.0935 30.5172 30.9567 30.4401 30.8541C30.3631 30.7515 30.2989 30.7173 30.209 30.7173C30.0421 30.7173 29.9137 30.8541 29.8239 31.0935C29.734 31.333 29.6826 31.7092 29.6826 32.1881V34.3773C29.6826 34.8562 29.734 35.1983 29.8239 35.4719C29.9137 35.7456 30.0421 35.8482 30.209 35.8482C30.3374 35.8482 30.453 35.7456 30.5428 35.5403C30.6104 35.3861 30.6634 35.174 30.6965 34.9039C30.7162 34.743 30.8488 34.6168 31.0109 34.6168C31.1884 34.6168 31.3294 34.767 31.3122 34.9437C31.2695 35.3814 31.2034 35.7568 31.1206 36.0877C31.0921 36.2013 31.0617 36.3071 31.0294 36.405C30.8881 36.8321 30.6718 37.3875 30.2219 37.3875Z" fill="black"/>
<path d="M32.2369 30.7857C31.8402 30.7857 31.5186 30.4641 31.5186 30.0673C31.5186 29.6706 31.8402 29.349 32.2369 29.349H33.1112C33.5079 29.349 33.8295 29.6706 33.8295 30.0673C33.8295 30.4641 33.5079 30.7857 33.1112 30.7857H32.2369ZM32.674 37.2849C32.5109 37.2849 32.3787 37.1527 32.3787 36.9896V30.2942C32.3787 30.1311 32.5109 29.9989 32.674 29.9989C32.8371 29.9989 32.9693 30.1311 32.9693 30.2942V36.9896C32.9693 37.1527 32.8371 37.2849 32.674 37.2849Z" fill="black"/>
<path d="M36.3844 37.3875C36.2303 37.3875 36.0891 37.3533 35.9478 37.2849C35.8066 37.2165 35.6654 37.0796 35.5499 36.9428C35.4524 36.8274 35.3459 36.6877 35.261 36.5032C35.2291 36.434 35.2247 36.3559 35.241 36.2815L35.3306 35.8723C35.3815 35.6399 35.7253 35.5948 35.9093 35.7456C36.0762 35.8824 36.2303 35.9508 36.3972 35.9508C36.5898 35.9508 36.7438 35.8824 36.8465 35.7114C36.9492 35.5403 37.0006 35.3009 37.0006 34.993C37.0006 34.7536 36.9749 34.5826 36.9236 34.4799C36.8722 34.3773 36.7952 34.2747 36.7182 34.2063C36.6283 34.1379 36.5384 34.1037 36.4357 34.0695C36.3073 34.0353 36.1918 33.9669 36.0634 33.8984C35.935 33.83 35.8195 33.7274 35.7168 33.5564C35.614 33.3854 35.5242 33.1801 35.46 32.9065C35.3958 32.6328 35.3573 32.2223 35.3573 31.7434C35.3573 30.9567 35.46 30.3752 35.6654 29.9305C35.8708 29.52 36.1533 29.2806 36.5256 29.2806C36.6925 29.2806 36.8722 29.349 37.0391 29.4858C37.1879 29.5991 37.319 29.7591 37.4471 29.966C37.5005 30.0523 37.5159 30.1563 37.4957 30.2557L37.3933 30.7605C37.3508 30.9698 37.0578 31.0138 36.8851 30.8883C36.7438 30.7857 36.6283 30.7173 36.4999 30.7173C36.3202 30.7173 36.1789 30.7857 36.0762 30.9567C35.9735 31.0935 35.9222 31.333 35.9222 31.6066C35.9222 31.8461 35.9478 32.0513 36.012 32.1881C36.0762 32.325 36.1533 32.4276 36.2431 32.496C36.2745 32.5199 36.3074 32.5437 36.3419 32.5662C36.4717 32.6506 36.6191 32.7068 36.7542 32.7826C36.859 32.8415 36.9582 32.9101 37.0436 32.9948C37.1134 33.0641 37.1814 33.1434 37.2445 33.2485C37.3472 33.4196 37.4243 33.6248 37.4885 33.8984C37.5527 34.1721 37.5783 34.5484 37.5783 34.993C37.5783 35.7456 37.4756 36.3613 37.2702 36.7718C37.0648 37.1823 36.7695 37.3875 36.3844 37.3875Z" fill="black"/>
<path d="M39.0419 37.3875C38.7338 37.3875 38.4899 37.1823 38.323 36.7376C38.1561 36.2929 38.0662 35.7114 38.0662 34.9246V34.0011C38.0662 33.2143 38.1561 32.6328 38.323 32.1881C38.4899 31.7435 38.7338 31.5382 39.0419 31.5382C39.3501 31.5382 39.594 31.7435 39.7609 32.1881C39.9278 32.6328 40.0177 33.2143 40.0177 34.0011V34.9246C40.0177 35.7114 39.9278 36.2929 39.7609 36.7376C39.594 37.148 39.3501 37.3875 39.0419 37.3875ZM39.0419 35.9508C39.1575 35.9508 39.2602 35.8482 39.3244 35.6772C39.3886 35.5061 39.4271 35.2667 39.4271 34.9246V34.0011C39.4271 33.6932 39.3886 33.4538 39.3244 33.2485C39.2602 33.0775 39.1703 32.9749 39.0419 32.9749C38.9264 32.9749 38.8365 33.0775 38.7595 33.2485C38.6824 33.4196 38.6568 33.659 38.6568 34.0011V34.9246C38.6568 35.2325 38.6953 35.5061 38.7595 35.6772C38.8365 35.8482 38.9264 35.9508 39.0419 35.9508Z" fill="black"/>
<path d="M40.9099 29.349C41.0766 29.349 41.2116 29.4841 41.2116 29.6507V35.4035C41.2116 35.455 41.2135 35.5016 41.2178 35.5434C41.2297 35.6594 41.2748 35.814 41.3914 35.814C41.4481 35.814 41.4941 35.86 41.4941 35.9167V36.9425C41.4941 37.1127 41.3561 37.2507 41.186 37.2507C41.0062 37.2507 40.865 37.1138 40.7623 36.8744C40.6596 36.6007 40.6082 36.2587 40.6082 35.7798V29.6507C40.6082 29.4841 40.7433 29.349 40.9099 29.349Z" fill="black"/>
<path d="M42.5468 31.6408V35.0957C42.5468 35.3693 42.5725 35.5746 42.6367 35.7456C42.7009 35.9166 42.7779 35.985 42.8935 35.985C43.009 35.985 43.0861 35.9166 43.1502 35.7456C43.2144 35.5746 43.2401 35.3693 43.2401 35.0957L43.2496 35.5483C43.2604 36.0667 43.2812 36.6047 43.0732 37.0796C42.9834 37.2849 42.855 37.4217 42.7009 37.4217C42.457 37.4217 42.2772 37.2165 42.136 36.8402C41.9948 36.4639 41.9434 35.8824 41.9434 35.1641V31.9767C41.9434 31.8101 42.0785 31.675 42.2451 31.675H42.5126C42.5315 31.675 42.5468 31.6597 42.5468 31.6408ZM43.5482 37.2849C43.3852 37.2849 43.253 37.1527 43.253 36.9896V31.9019C43.253 31.7388 43.3852 31.6066 43.5482 31.6066C43.7113 31.6066 43.8435 31.7388 43.8435 31.9019V36.9896C43.8435 37.1527 43.7113 37.2849 43.5482 37.2849Z" fill="black"/>
<path d="M44.8578 32.9065C44.5529 32.9065 44.3057 32.6593 44.3057 32.3544V32.1929C44.3057 31.888 44.5529 31.6408 44.8578 31.6408C45.1627 31.6408 45.4098 31.888 45.4098 32.1929V32.3544C45.4098 32.6593 45.1627 32.9065 44.8578 32.9065ZM45.1145 37.302C45.1145 37.3114 45.1069 37.3191 45.0974 37.3188C44.9013 37.3113 44.7654 37.1755 44.678 36.9428C44.5882 36.6692 44.5497 36.3271 44.5497 35.814V30.26C44.5497 30.0969 44.6819 29.9647 44.8449 29.9647C45.008 29.9647 45.1402 30.0969 45.1402 30.26V35.4377C45.1402 35.5746 45.1531 35.6772 45.1787 35.7456C45.2044 35.814 45.2301 35.8482 45.2686 35.8482C45.3466 35.8482 45.4098 35.9114 45.4098 35.9894V37.1372C45.4098 37.2188 45.3437 37.2849 45.2622 37.2849H45.1317C45.1222 37.2849 45.1145 37.2925 45.1145 37.302Z" fill="black"/>
<path d="M46.2572 30.8541C46.0941 30.8541 45.9619 30.7219 45.9619 30.5588V29.6443C45.9619 29.4812 46.0941 29.349 46.2572 29.349C46.4203 29.349 46.5525 29.4812 46.5525 29.6443V30.5588C46.5525 30.7219 46.4203 30.8541 46.2572 30.8541ZM46.2572 37.2849C46.0941 37.2849 45.9619 37.1527 45.9619 36.9896V31.9019C45.9619 31.7388 46.0941 31.6066 46.2572 31.6066C46.4203 31.6066 46.5525 31.7388 46.5525 31.9019V36.9896C46.5525 37.1527 46.4203 37.2849 46.2572 37.2849Z" fill="black"/>
<path d="M48.0674 37.3875C47.7593 37.3875 47.5153 37.1823 47.3484 36.7376C47.1815 36.2929 47.0917 35.7114 47.0917 34.9246V34.0011C47.0917 33.2143 47.1815 32.6328 47.3484 32.1881C47.5153 31.7435 47.7593 31.5382 48.0674 31.5382C48.3755 31.5382 48.6195 31.7435 48.7864 32.1881C48.9533 32.6328 49.0431 33.2143 49.0431 34.0011V34.9246C49.0431 35.7114 48.9533 36.2929 48.7864 36.7376C48.6195 37.148 48.3755 37.3875 48.0674 37.3875ZM48.0674 35.9508C48.183 35.9508 48.2857 35.8482 48.3498 35.6772C48.414 35.5061 48.4526 35.2667 48.4526 34.9246V34.0011C48.4526 33.6932 48.414 33.4538 48.3498 33.2485C48.2857 33.0775 48.1958 32.9749 48.0674 32.9749C47.9519 32.9749 47.862 33.0775 47.785 33.2485C47.7079 33.4196 47.6823 33.659 47.6823 34.0011V34.9246C47.6823 35.2325 47.7208 35.5061 47.785 35.6772C47.8492 35.8482 47.939 35.9508 48.0674 35.9508Z" fill="black"/>
<path d="M49.929 37.2849C49.7659 37.2849 49.6337 37.1527 49.6337 36.9896V31.9019C49.6337 31.7388 49.7659 31.6066 49.929 31.6066C50.0921 31.6066 50.2243 31.7388 50.2243 31.9019V36.9896C50.2243 37.1527 50.0921 37.2849 49.929 37.2849ZM51.2193 37.2849C51.0597 37.2849 50.9304 37.1555 50.9304 36.996V33.8642C50.9304 33.5906 50.9047 33.3854 50.8405 33.2143C50.7763 33.0433 50.6865 32.9749 50.5709 32.9749C50.4554 32.9749 50.3783 33.0433 50.3141 33.2143C50.25 33.3854 50.2243 33.5906 50.2243 33.8642L50.2063 33.4205C50.1841 32.8743 50.1497 32.2958 50.404 31.8119C50.4939 31.6408 50.6223 31.5382 50.7635 31.5382C50.9946 31.5382 51.1872 31.7435 51.3155 32.1539C51.4439 32.5644 51.5081 33.1117 51.5081 33.8642V36.996C51.5081 37.1555 51.3788 37.2849 51.2193 37.2849Z" fill="black"/>
<path d="M53.0359 37.3875C52.8305 37.3875 52.6379 37.3191 52.4582 37.1823C52.3226 37.0791 52.2016 36.9369 52.0953 36.7705C52.0275 36.6646 52.0176 36.5331 52.056 36.4134L52.2064 35.9435C52.2695 35.7465 52.5475 35.7109 52.7021 35.8482C52.8177 35.9508 52.9332 35.985 53.0359 35.985C53.1771 35.985 53.2798 35.9508 53.3569 35.8824C53.4339 35.814 53.4724 35.7114 53.4724 35.5746C53.4724 35.4035 53.4467 35.3009 53.3954 35.2325C53.344 35.1641 53.2798 35.1299 53.19 35.0957C53.1001 35.0615 53.0102 35.0615 52.9204 35.0273C52.8177 34.993 52.7278 34.9588 52.6379 34.9246C52.548 34.8904 52.4582 34.7878 52.3811 34.6852C52.3041 34.5826 52.2399 34.4115 52.1886 34.2063C52.1372 34.0011 52.1244 33.7274 52.1244 33.3511C52.1244 32.7696 52.2014 32.325 52.3683 32.0171C52.5352 31.7092 52.7535 31.5382 53.0487 31.5382C53.2156 31.5382 53.3954 31.6066 53.5623 31.7434C53.6841 31.8433 53.7991 31.9615 53.9023 32.1111C53.9786 32.2217 53.9879 32.363 53.946 32.4906L53.7887 32.9696C53.7311 33.1449 53.4976 33.1798 53.344 33.0775C53.2413 33.0091 53.1386 32.9749 53.0359 32.9749C52.9204 32.9749 52.8177 33.0091 52.7535 33.0775C52.6893 33.1459 52.6507 33.2485 52.6507 33.3854C52.6507 33.4516 52.6615 33.5179 52.6794 33.5658C52.6957 33.6091 52.7303 33.6501 52.7654 33.6802C52.8386 33.7431 52.9411 33.7462 53.0354 33.7667C53.0683 33.7738 53.1024 33.7821 53.1386 33.7958C53.2413 33.83 53.344 33.8642 53.4339 33.8984C53.5366 33.9327 53.6265 34.0011 53.7164 34.1379C53.8062 34.2405 53.8704 34.4115 53.9218 34.651C53.9731 34.8562 53.9988 35.1641 53.9988 35.5746C53.9988 36.1561 53.9089 36.635 53.742 36.9428C53.5751 37.2507 53.3312 37.3875 53.0359 37.3875Z" fill="black"/>
</svg>
