<svg width="147" height="56" viewBox="0 0 147 56" fill="none" xmlns="http://www.w3.org/2000/svg">
<path d="M48.7927 55.3027H9.88383C4.41988 55.3027 0 51.3986 0 46.5723V8.73039C0 3.90408 4.41988 0 9.88383 0H48.7927C54.2567 0 58.6766 3.90408 58.6766 8.73039V46.5723C58.6766 51.3986 54.2567 55.3027 48.7927 55.3027Z" fill="url(#paint0_linear_578_463)"/>
<path d="M46.635 25.4841V13.5874H42.2151V8.5152H46.635C48.7231 8.5152 50.4284 10.79 50.4284 13.5874V23.8856C50.4284 24.7771 50.9505 25.4841 51.6117 25.4841H52.9342V30.5564H51.6117C50.9505 30.5564 50.4284 31.2634 50.4284 32.1549V42.4838C50.4284 45.2812 48.7579 47.5253 46.6698 47.5253H42.2499C42.2499 47.4945 42.2499 47.4945 42.2151 47.4945V42.4838C42.2499 42.4838 42.2499 42.453 42.2499 42.453H46.635C46.8438 34.6756 46.7742 31.5093 46.635 30.5564C46.6002 30.4027 46.5306 29.9723 46.6698 29.5727C46.983 28.6504 48.0271 28.6197 48.0271 28.1893C48.0271 27.8512 47.331 27.8204 46.9482 27.0826C46.635 26.56 46.635 25.9452 46.635 25.4841Z" fill="#F2F2F2"/>
<path d="M12.5984 25.4841V13.5874H17.0183V8.5152H12.5984C10.5103 8.5152 8.80496 10.79 8.80496 13.5874V23.8856C8.80496 24.7771 8.28293 25.4841 7.62169 25.4841H6.29921V30.5564H7.62169C8.28293 30.5564 8.80496 31.2634 8.80496 32.1549V42.4838C8.80496 45.2812 10.4755 47.5253 12.5636 47.5253H16.9835C16.9835 47.4945 16.9835 47.4945 17.0183 47.4945V42.4838C16.9835 42.4838 16.9835 42.453 16.9835 42.453H12.5984C12.3896 34.6756 12.4592 31.5093 12.5984 30.5564C12.6332 30.4027 12.7028 29.9723 12.5636 29.5727C12.2504 28.6504 11.2063 28.6197 11.2063 28.1893C11.2063 27.8512 11.9024 27.8204 12.2852 27.0826C12.5984 26.56 12.6332 25.9452 12.5984 25.4841Z" fill="#F2F2F2"/>
<path d="M31.7744 30.6793L27.633 29.8493L26.4497 31.7245L28.155 39.379L32.2617 32.9234L31.7744 30.6793Z" fill="#F2F2F2"/>
<path d="M31.4612 30.3104L28.1898 29.6341C27.9462 29.5727 27.7722 29.4189 27.807 29.2345L27.8766 28.9271C27.9114 28.7426 28.155 28.6197 28.4334 28.6812L31.6004 29.3267C31.8788 29.3882 32.0528 29.5727 32.018 29.7571L31.9484 30.0645C31.9136 30.2797 31.7048 30.3719 31.4612 30.3104Z" fill="white"/>
<path d="M31.3568 29.0193L28.5726 28.466C28.1898 28.3738 28.0158 27.5745 28.155 26.683L31.8092 13.0956L33.5494 13.4337L32.3313 27.513C32.1921 28.4352 31.7396 29.1115 31.3568 29.0193Z" fill="#F2F2F2"/>
<path d="M29.0684 35.6949C29.0913 35.4921 28.9858 35.3168 28.8328 35.3034C28.6798 35.2899 28.5372 35.4433 28.5143 35.646C28.4914 35.8488 28.5969 36.024 28.7499 36.0375C28.9029 36.051 29.0455 35.8976 29.0684 35.6949Z" fill="white"/>
<path d="M28.8606 35.6765C28.8682 35.6089 28.8434 35.5514 28.8052 35.548C28.7669 35.5447 28.7297 35.5967 28.7221 35.6643C28.7145 35.7319 28.7393 35.7894 28.7775 35.7928C28.8158 35.7961 28.853 35.7441 28.8606 35.6765Z" fill="white"/>
<path d="M39.8486 44.5742H39.8138C37.656 41.6538 32.8185 37.7497 27.0065 39.9016C22.517 41.5308 18.132 34.8601 16.2526 31.4478H16.4266V30.9252H15.8002V31.4478H16.1482L16.0786 31.4786C17.9579 34.9523 22.4474 41.746 27.0761 40.0553C32.7489 37.9649 37.5168 41.8075 39.6397 44.6664C39.5701 44.7279 39.5353 44.7894 39.5353 44.8508C39.5353 45.0045 39.6745 45.1275 39.8486 45.1275C40.0226 45.1275 40.1618 45.0045 40.1618 44.8816C40.1618 44.7586 40.0226 44.5742 39.8486 44.5742Z" fill="#F2F2F2"/>
<path d="M72.8063 25.853C71.8666 25.853 71.0662 25.6993 70.4049 25.3919C69.7437 25.0845 69.2216 24.6234 68.8736 24.0086C68.5256 23.3937 68.3516 22.656 68.3516 21.7952V18.8134C68.3516 17.9526 68.5256 17.2148 68.8736 16.6C69.2216 15.9852 69.7437 15.5241 70.4049 15.2167C71.0662 14.9093 71.8666 14.7248 72.8063 14.7248C73.5719 14.7248 74.268 14.8785 74.8944 15.1552C75.5208 15.4319 76.0081 15.893 76.3909 16.4463C76.7737 16.9997 77.0521 17.676 77.2262 18.4752H74.8248C74.7204 18.1063 74.5812 17.7989 74.4072 17.553C74.2332 17.3071 73.9895 17.0919 73.7111 16.9689C73.4327 16.846 73.1543 16.7537 72.8063 16.7537C72.145 16.7537 71.6578 16.9382 71.275 17.2763C70.9269 17.6145 70.7529 18.1371 70.7529 18.7519V21.7337C70.7529 22.3793 70.9269 22.8712 71.275 23.2093C71.623 23.5475 72.145 23.7319 72.8063 23.7319C73.3283 23.7319 73.7459 23.5782 74.0939 23.2708C74.442 22.9634 74.6856 22.5637 74.8248 22.0104H77.2262C77.0521 22.8097 76.7737 23.486 76.3909 24.0393C76.0081 24.5926 75.486 25.023 74.8944 25.3304C74.268 25.6993 73.5719 25.853 72.8063 25.853Z" fill="#252EDD"/>
<path d="M83.2121 25.853C82.3073 25.853 81.5068 25.6993 80.8456 25.3612C80.1843 25.023 79.6275 24.5619 79.2795 23.9471C78.9315 23.3323 78.7226 22.6252 78.7226 21.826V18.7211C78.7226 17.9219 78.8967 17.2148 79.2795 16.6C79.6623 15.9852 80.1843 15.5241 80.8456 15.186C81.5068 14.8478 82.3073 14.6941 83.2121 14.6941C84.117 14.6941 84.9174 14.8478 85.5787 15.186C86.2399 15.5241 86.7968 15.9852 87.1448 16.6C87.5276 17.2148 87.7016 17.9219 87.7016 18.7211V21.826C87.7016 22.6252 87.5276 23.3323 87.1448 23.9471C86.762 24.5619 86.2399 25.023 85.5787 25.3612C84.9174 25.6993 84.117 25.853 83.2121 25.853ZM83.2121 23.7934C83.8386 23.7934 84.3606 23.6089 84.7434 23.2708C85.1263 22.9326 85.3003 22.4715 85.3003 21.8874V18.6904C85.3003 18.1063 85.1263 17.6452 84.7434 17.3071C84.3606 16.9689 83.8386 16.7845 83.2121 16.7845C82.5857 16.7845 82.0637 16.9689 81.6808 17.3071C81.298 17.6452 81.124 18.1063 81.124 18.6904V21.8874C81.124 22.4715 81.298 22.9326 81.6808 23.2708C82.0637 23.6089 82.5857 23.7934 83.2121 23.7934Z" fill="#252EDD"/>
<path d="M88.4673 25.73L93.2004 14.8171H94.6621L99.3952 25.73H96.8894L93.9312 18.2908L90.973 25.73H88.4673ZM90.7294 23.9778V22.0104H97.2374V23.9778H90.7294Z" fill="#252EDD"/>
<path d="M69.0476 41.9612V28.8656H71.1358V41.9612H69.0476ZM70.1265 36.889V35.1367H74.8596C75.5556 35.1367 76.0777 34.9216 76.4953 34.5219C76.9129 34.1223 77.1217 33.569 77.1217 32.8927C77.1217 32.2164 76.9129 31.663 76.4953 31.2327C76.0777 30.833 75.5556 30.6178 74.8596 30.6178H70.1265V28.8656H74.79C75.6949 28.8656 76.4605 29.0193 77.1217 29.3575C77.783 29.6956 78.305 30.1567 78.6879 30.7715C79.0707 31.3864 79.2447 32.0627 79.2447 32.8927C79.2447 33.6919 79.0707 34.399 78.6879 35.0138C78.305 35.6286 77.783 36.0897 77.1217 36.3971C76.4605 36.7353 75.6601 36.889 74.79 36.889H70.1265Z" fill="#F2F2F2"/>
<path d="M85.8919 42.0842C84.4998 42.0842 83.421 41.7153 82.6553 41.0082C81.8897 40.3012 81.5068 39.2867 81.5068 37.9956V36.4586C81.5068 35.1675 81.8897 34.1838 82.6553 33.4767C83.421 32.7697 84.4998 32.4315 85.8919 32.4315C87.284 32.4315 88.3629 32.7697 89.1285 33.4767C89.8942 34.1838 90.277 35.1675 90.277 36.4586V37.9956C90.277 39.2867 89.8942 40.2705 89.1285 40.9775C88.3629 41.746 87.284 42.0842 85.8919 42.0842ZM85.8919 40.3319C86.6228 40.3319 87.1796 40.1167 87.5624 39.7171C87.9452 39.3175 88.1541 38.7641 88.1541 38.0264V36.4893C88.1541 35.7516 87.9452 35.1982 87.5624 34.7986C87.1796 34.399 86.588 34.2145 85.8919 34.2145C85.1611 34.2145 84.6042 34.399 84.2214 34.7986C83.8386 35.1982 83.6298 35.7516 83.6298 36.4893V38.0264C83.6298 38.7641 83.8386 39.3175 84.2214 39.7171C84.6042 40.1475 85.1959 40.3319 85.8919 40.3319Z" fill="#F2F2F2"/>
<path d="M93.2352 41.9612V32.616H95.3233V41.9612H93.2352ZM99.0472 34.8293C98.8731 34.6449 98.6295 34.4912 98.3511 34.3682C98.0727 34.276 97.7595 34.2145 97.3767 34.2145C96.7154 34.2145 96.1934 34.3682 95.8453 34.7064C95.4973 35.0138 95.2885 35.4749 95.2885 36.0282L95.0797 34.2145C95.3929 33.6612 95.8106 33.2308 96.3326 32.9234C96.8546 32.616 97.4114 32.4623 98.0379 32.4623C98.5251 32.4623 98.9427 32.5238 99.3604 32.6467C99.7432 32.7697 100.091 32.9541 100.37 33.2001L99.0472 34.8293Z" fill="#F2F2F2"/>
<path d="M101.309 34.276V32.616H106.077V34.276H101.309ZM104.894 41.9919C104.024 41.9919 103.397 41.7767 103.015 41.3464C102.632 40.916 102.423 40.3012 102.423 39.5019V29.8801H104.511V39.5327C104.511 39.7479 104.546 39.9323 104.65 40.0553C104.755 40.1782 104.894 40.2397 105.103 40.2397H106.112V41.9919H104.894Z" fill="#F2F2F2"/>
<path d="M108.131 34.1838V32.616H113.42V34.1838H108.131ZM109.244 31.3556C109.244 30.5256 109.453 29.9108 109.871 29.5112C110.288 29.1115 110.95 28.8963 111.854 28.8963H113.386V30.6486H111.889C111.68 30.6486 111.541 30.7101 111.437 30.8638C111.332 31.0175 111.298 31.1712 111.298 31.3556V41.9919H109.244V31.3556Z" fill="#F2F2F2"/>
<path d="M119.615 42.0842C118.223 42.0842 117.144 41.7153 116.379 41.0082C115.613 40.3012 115.23 39.2867 115.23 37.9956V36.4586C115.23 35.1675 115.613 34.1838 116.379 33.4767C117.144 32.7697 118.223 32.4315 119.615 32.4315C121.007 32.4315 122.086 32.7697 122.852 33.4767C123.618 34.1838 124 35.1675 124 36.4586V37.9956C124 39.2867 123.618 40.2705 122.852 40.9775C122.086 41.746 121.007 42.0842 119.615 42.0842ZM119.615 40.3319C120.346 40.3319 120.903 40.1167 121.286 39.7171C121.669 39.3175 121.877 38.7641 121.877 38.0264V36.4893C121.877 35.7516 121.669 35.1982 121.286 34.7986C120.903 34.399 120.311 34.2145 119.615 34.2145C118.884 34.2145 118.328 34.399 117.945 34.7986C117.562 35.1982 117.353 35.7516 117.353 36.4893V38.0264C117.353 38.7641 117.562 39.3175 117.945 39.7171C118.328 40.1475 118.884 40.3319 119.615 40.3319Z" fill="#F2F2F2"/>
<path d="M129.012 28.8656V39.5327C129.012 39.7479 129.081 39.9323 129.186 40.0553C129.29 40.1782 129.464 40.2397 129.673 40.2397H130.648V41.9919H129.43C128.664 41.9919 128.037 41.7767 127.62 41.3464C127.167 40.916 126.959 40.3012 126.959 39.5327V28.8656H129.012Z" fill="#F2F2F2"/>
<path d="M132.979 30.7101V28.8656H135.067V30.7101H132.979ZM132.979 41.9612V32.616H135.067V41.9612H132.979Z" fill="#F2F2F2"/>
<path d="M142.272 42.0842C140.879 42.0842 139.801 41.7153 139.035 41.0082C138.269 40.3012 137.886 39.2867 137.886 37.9956V36.4586C137.886 35.1675 138.269 34.1838 139.035 33.4767C139.801 32.7697 140.879 32.4315 142.272 32.4315C143.664 32.4315 144.742 32.7697 145.508 33.4767C146.274 34.1838 146.657 35.1675 146.657 36.4586V37.9956C146.657 39.2867 146.274 40.2705 145.508 40.9775C144.742 41.746 143.664 42.0842 142.272 42.0842ZM142.272 40.3319C143.002 40.3319 143.559 40.1167 143.942 39.7171C144.325 39.3175 144.534 38.7641 144.534 38.0264V36.4893C144.534 35.7516 144.325 35.1982 143.942 34.7986C143.559 34.399 142.968 34.2145 142.272 34.2145C141.541 34.2145 140.984 34.399 140.601 34.7986C140.218 35.1982 140.009 35.7516 140.009 36.4893V38.0264C140.009 38.7641 140.218 39.3175 140.601 39.7171C140.984 40.1475 141.541 40.3319 142.272 40.3319Z" fill="#F2F2F2"/>
<defs>
<linearGradient id="paint0_linear_578_463" x1="-60.1351" y1="55.0941" x2="41.844" y2="-112.815" gradientUnits="userSpaceOnUse">
<stop stop-color="#25DD47"/>
<stop offset="1" stop-color="#252EDD"/>
</linearGradient>
</defs>
</svg>
