<svg width="59" height="56" viewBox="0 0 59 56" fill="none" xmlns="http://www.w3.org/2000/svg">
<path d="M48.7927 55.3334H9.88383C4.41988 55.3334 0 51.4294 0 46.6031V8.73039C0 3.90408 4.41988 0 9.88383 0H48.7927C54.2567 0 58.6766 3.90408 58.6766 8.73039V46.5723C58.6766 51.4294 54.2567 55.3334 48.7927 55.3334Z" fill="url(#paint0_linear_578_462)"/>
<path d="M46.635 25.4841V13.5874H42.2151V8.5152H46.635C48.7231 8.5152 50.4284 10.79 50.4284 13.5874V23.8856C50.4284 24.7771 50.9505 25.4841 51.6117 25.4841H52.9342V30.5564H51.6117C50.9505 30.5564 50.4284 31.2634 50.4284 32.1549V42.4838C50.4284 45.2812 48.7579 47.5253 46.6698 47.5253H42.2499C42.2499 47.4945 42.2499 47.4945 42.2151 47.4945V42.4838C42.2499 42.4838 42.2499 42.4531 42.2499 42.4531H46.635C46.8438 34.6756 46.7742 31.5093 46.635 30.5564C46.6002 30.4027 46.5306 29.9723 46.6698 29.5727C46.983 28.6504 48.0271 28.6197 48.0271 28.1893C48.0271 27.8512 47.331 27.8204 46.9482 27.0826C46.635 26.5908 46.6002 25.976 46.635 25.4841Z" fill="#F2F2F2"/>
<path d="M12.5984 25.4841V13.5874H17.0183V8.5152H12.5984C10.5103 8.5152 8.80497 10.79 8.80497 13.5874V23.8856C8.80497 24.7771 8.28293 25.4841 7.62168 25.4841H6.2992V30.5564H7.62168C8.28293 30.5564 8.80497 31.2634 8.80497 32.1549V42.4838C8.80497 45.2812 10.4755 47.5253 12.5636 47.5253H16.9835C16.9835 47.4945 16.9835 47.4945 17.0183 47.4945V42.4838C16.9835 42.4838 16.9835 42.4531 16.9835 42.4531H12.5984C12.3896 34.6756 12.4592 31.5093 12.5984 30.5564C12.6332 30.4027 12.7028 29.9723 12.5636 29.5727C12.2504 28.6504 11.2063 28.6197 11.2063 28.1893C11.2063 27.8512 11.9024 27.8204 12.2852 27.0826C12.5984 26.5908 12.6332 25.976 12.5984 25.4841Z" fill="#F2F2F2"/>
<path d="M31.7396 30.7101L27.633 29.8493L26.4149 31.7552L28.1202 39.379L32.2617 32.9234L31.7396 30.7101Z" fill="white"/>
<path d="M31.4264 30.3412L28.155 29.6649C27.9114 29.6034 27.7374 29.4497 27.7722 29.2652L27.8418 28.9578C27.8766 28.7734 28.1202 28.6504 28.3986 28.7119L31.5656 29.3575C31.844 29.4189 32.018 29.6034 31.9832 29.7878L31.9136 30.0952C31.9136 30.3104 31.67 30.4027 31.4264 30.3412Z" fill="white"/>
<path d="M31.3568 29.0501L28.5726 28.4967C28.1898 28.4045 28.0158 27.6052 28.155 26.7138L31.8092 13.1263L33.5494 13.4645L32.3313 27.5438C32.1573 28.466 31.7396 29.1423 31.3568 29.0501Z" fill="white"/>
<path d="M29.0279 35.7306C29.0508 35.5278 28.9454 35.3526 28.7924 35.3391C28.6393 35.3256 28.4967 35.479 28.4738 35.6817C28.4509 35.8845 28.5564 36.0598 28.7094 36.0732C28.8624 36.0867 29.005 35.9333 29.0279 35.7306Z" fill="white"/>
<path d="M28.8202 35.7123C28.8278 35.6447 28.803 35.5872 28.7647 35.5838C28.7265 35.5804 28.6893 35.6325 28.6816 35.7C28.674 35.7676 28.6988 35.8251 28.7371 35.8285C28.7753 35.8319 28.8125 35.7798 28.8202 35.7123Z" fill="white"/>
<path d="M39.8137 44.6049H39.779C37.6212 41.6845 32.7837 37.7804 26.9717 39.9323C22.4822 41.5616 18.0972 34.8908 16.2178 31.4786H16.3919V30.956H15.7654V31.4786H16.1134L16.0438 31.5093C17.9231 34.983 22.4126 41.7767 27.0413 40.086C32.7141 37.9956 37.482 41.8382 39.6049 44.6971C39.5353 44.7586 39.5005 44.8201 39.5005 44.8816C39.5005 45.0353 39.6397 45.1582 39.8137 45.1582C39.9878 45.1582 40.127 45.0353 40.127 44.9123C40.127 44.6971 39.9878 44.6049 39.8137 44.6049Z" fill="white"/>
<defs>
<linearGradient id="paint0_linear_578_462" x1="-24.0746" y1="55.1147" x2="81.516" y2="-14.444" gradientUnits="userSpaceOnUse">
<stop stop-color="#25DD47"/>
<stop offset="1" stop-color="#252EDD"/>
</linearGradient>
</defs>
</svg>
