<svg width="215" height="38" viewBox="0 0 215 38" fill="none" xmlns="http://www.w3.org/2000/svg">
<path d="M74.5702 15.7679V11.5994H45.2426V15.7679H63.8601L44.7422 25.4945V29.663H74.0697V25.4945H55.4522L74.5702 15.7679Z" fill="#EEEFFC"/>
<path d="M99.5938 11.5994H77.1727V29.3005H106.5V25.132H84.0791V22.0509H106.5V11.539H99.5938V11.5994ZM99.5938 17.822H84.0791V15.7075H99.5938V17.822Z" fill="#EEEFFC"/>
<path d="M138.33 11.5994H109.003V28.0318H131.424V33.8315H108.902V38H138.33V11.5994ZM115.909 23.8633V15.7075H131.424V23.8633H115.909Z" fill="#EEEFFC"/>
<path d="M203.191 5.1956H173.663V9.36412H203.191V5.1956Z" fill="#EEEFFC"/>
<path d="M173.764 11.2369V27.6693H180.77V15.4054H196.385V27.7297H203.291V11.2369H173.764Z" fill="#EEEFFC"/>
<path d="M140.833 11.4182V27.911H170.36V11.4182H140.833ZM163.454 23.7425H147.739V15.5867H163.454V23.7425Z" fill="#EEEFFC"/>
<path d="M44.7421 0L22.4211 14.4388L0 0L18.3172 18.9698L0 37.9999L22.4211 23.5612L44.7421 37.9999L26.5249 18.9698L44.7421 0Z" fill="#EEEFFC"/>
<path d="M22.4211 18.8489L18.4173 23.0174L22.4211 20.4196L26.3248 23.0174L22.4211 18.8489Z" fill="#EEEFFC"/>
<path d="M22.4211 20.3592L18.4173 16.2511L22.4211 18.7885L26.3248 16.2511L22.4211 20.3592Z" fill="#EEEFFC"/>
<path d="M141.748 31.5225V31.03H147.445V31.5225H145.056V35.6152H144.136V31.5225H141.748Z" fill="#EEEFFC"/>
<path d="M150.309 35.6869C149.76 35.6869 149.286 35.6137 148.888 35.4674C148.493 35.3197 148.187 35.1137 147.972 34.8495C147.759 34.5838 147.653 34.2749 147.653 33.9226C147.653 33.5704 147.759 33.2599 147.972 32.9912C148.187 32.7211 148.486 32.5106 148.87 32.3599C149.255 32.2076 149.706 32.1315 150.22 32.1315C150.517 32.1315 150.81 32.1613 151.099 32.2211C151.388 32.2808 151.652 32.3778 151.889 32.5121C152.127 32.6449 152.316 32.8211 152.457 33.0405C152.598 33.2599 152.668 33.5301 152.668 33.851V34.0749H148.276V33.6181H151.778C151.778 33.4241 151.714 33.2509 151.585 33.0987C151.459 32.9464 151.278 32.8263 151.043 32.7382C150.811 32.6502 150.536 32.6061 150.22 32.6061C149.871 32.6061 149.57 32.6584 149.315 32.7629C149.063 32.8659 148.868 33.0002 148.732 33.1659C148.596 33.3315 148.528 33.5092 148.528 33.6987V34.0032C148.528 34.2629 148.603 34.4831 148.751 34.6637C148.902 34.8428 149.111 34.9794 149.378 35.0734C149.645 35.1659 149.955 35.2122 150.309 35.2122C150.539 35.2122 150.747 35.1928 150.932 35.154C151.12 35.1137 151.282 35.054 151.418 34.9749C151.554 34.8943 151.659 34.7943 151.733 34.6749L152.579 34.8182C152.49 34.9913 152.341 35.1436 152.13 35.2749C151.92 35.4048 151.66 35.5063 151.351 35.5794C151.042 35.651 150.695 35.6869 150.309 35.6869Z" fill="#EEEFFC"/>
<path d="M156.315 35.6869C155.78 35.6869 155.32 35.6107 154.935 35.4585C154.549 35.3062 154.252 35.0965 154.044 34.8294C153.837 34.5622 153.733 34.257 153.733 33.9137C153.733 33.5644 153.839 33.2562 154.052 32.989C154.267 32.7203 154.566 32.5106 154.95 32.3599C155.335 32.2076 155.785 32.1315 156.3 32.1315C156.7 32.1315 157.061 32.1763 157.383 32.2658C157.704 32.3554 157.968 32.4808 158.173 32.642C158.378 32.8032 158.506 32.9912 158.555 33.2062H157.68C157.613 33.0494 157.465 32.9106 157.235 32.7897C157.007 32.6673 156.7 32.6061 156.315 32.6061C155.973 32.6061 155.674 32.6599 155.417 32.7673C155.162 32.8733 154.963 33.0233 154.82 33.2174C154.679 33.4099 154.608 33.636 154.608 33.8957C154.608 34.1614 154.677 34.3928 154.816 34.5898C154.957 34.7868 155.155 34.9398 155.409 35.0488C155.667 35.1577 155.968 35.2122 156.315 35.2122C156.542 35.2122 156.749 35.1883 156.934 35.1406C157.12 35.0928 157.277 35.0241 157.405 34.9346C157.534 34.845 157.625 34.7376 157.68 34.6122H158.555C158.506 34.8152 158.383 34.998 158.188 35.1607C157.995 35.3219 157.739 35.4503 157.42 35.5458C157.103 35.6398 156.735 35.6869 156.315 35.6869Z" fill="#EEEFFC"/>
<path d="M160.71 33.5465V35.6152H159.835V31.03H160.71V32.7136H160.784C160.918 32.536 161.118 32.3949 161.385 32.2905C161.655 32.1845 162.014 32.1315 162.461 32.1315C162.849 32.1315 163.189 32.1785 163.481 32.2725C163.773 32.3651 163.999 32.5076 164.16 32.7002C164.323 32.8912 164.405 33.1345 164.405 33.4301V35.6152H163.529V33.4659C163.529 33.1927 163.412 32.9815 163.177 32.8323C162.945 32.6815 162.622 32.6061 162.209 32.6061C161.922 32.6061 161.665 32.6427 161.437 32.7158C161.212 32.789 161.034 32.8957 160.903 33.036C160.775 33.1763 160.71 33.3465 160.71 33.5465Z" fill="#EEEFFC"/>
<path d="M175.176 32.4628H174.256C174.202 32.3031 174.107 32.1628 173.971 32.0419C173.837 31.921 173.674 31.8195 173.481 31.7374C173.291 31.6539 173.079 31.5912 172.847 31.5494C172.614 31.5076 172.372 31.4867 172.12 31.4867C171.66 31.4867 171.243 31.5568 170.87 31.6971C170.499 31.8375 170.203 32.0442 169.983 32.3173C169.765 32.5905 169.657 32.9256 169.657 33.3226C169.657 33.7196 169.765 34.0547 169.983 34.3279C170.203 34.601 170.499 34.8077 170.87 34.948C171.243 35.0883 171.66 35.1585 172.12 35.1585C172.372 35.1585 172.614 35.1376 172.847 35.0958C173.079 35.054 173.291 34.9921 173.481 34.91C173.674 34.8264 173.837 34.7241 173.971 34.6032C174.107 34.4808 174.202 34.3405 174.256 34.1823H175.176C175.107 34.4167 174.981 34.6264 174.798 34.8115C174.615 34.9965 174.387 35.154 174.115 35.2839C173.843 35.4122 173.538 35.51 173.199 35.5772C172.863 35.6443 172.503 35.6779 172.12 35.6779C171.472 35.6779 170.896 35.5824 170.391 35.3913C169.887 35.2003 169.49 34.9286 169.2 34.5764C168.911 34.2241 168.766 33.8062 168.766 33.3226C168.766 32.839 168.911 32.4211 169.2 32.0688C169.49 31.7166 169.887 31.4449 170.391 31.2538C170.896 31.0628 171.472 30.9673 172.12 30.9673C172.503 30.9673 172.863 31.0009 173.199 31.068C173.538 31.1352 173.843 31.2337 174.115 31.3636C174.387 31.4919 174.615 31.6486 174.798 31.8337C174.981 32.0173 175.107 32.227 175.176 32.4628Z" fill="#EEEFFC"/>
<path d="M178.859 35.6869C178.344 35.6869 177.893 35.613 177.505 35.4652C177.119 35.3174 176.817 35.1107 176.6 34.845C176.385 34.5793 176.277 34.2689 176.277 33.9137C176.277 33.5554 176.385 33.2427 176.6 32.9756C176.817 32.7084 177.119 32.5009 177.505 32.3531C177.893 32.2054 178.344 32.1315 178.859 32.1315C179.373 32.1315 179.823 32.2054 180.209 32.3531C180.597 32.5009 180.899 32.7084 181.114 32.9756C181.332 33.2427 181.441 33.5554 181.441 33.9137C181.441 34.2689 181.332 34.5793 181.114 34.845C180.899 35.1107 180.597 35.3174 180.209 35.4652C179.823 35.613 179.373 35.6869 178.859 35.6869ZM178.859 35.2122C179.25 35.2122 179.571 35.1518 179.823 35.0309C180.075 34.91 180.262 34.751 180.383 34.554C180.505 34.357 180.565 34.1435 180.565 33.9137C180.565 33.6838 180.505 33.4696 180.383 33.2711C180.262 33.0726 180.075 32.9121 179.823 32.7897C179.571 32.6673 179.25 32.6061 178.859 32.6061C178.468 32.6061 178.147 32.6673 177.894 32.7897C177.642 32.9121 177.455 33.0726 177.334 33.2711C177.213 33.4696 177.152 33.6838 177.152 33.9137C177.152 34.1435 177.213 34.357 177.334 34.554C177.455 34.751 177.642 34.91 177.894 35.0309C178.147 35.1518 178.468 35.2122 178.859 35.2122Z" fill="#EEEFFC"/>
<path d="M183.652 33.5465V35.6152H182.777V32.1763H183.623V32.7136H183.697C183.83 32.539 184.033 32.3987 184.305 32.2927C184.577 32.1852 184.928 32.1315 185.359 32.1315C185.744 32.1315 186.082 32.1793 186.371 32.2748C186.661 32.3688 186.886 32.5121 187.046 32.7047C187.207 32.8957 187.288 33.1375 187.288 33.4301V35.6152H186.412V33.4659C186.412 33.1957 186.296 32.9853 186.063 32.8345C185.831 32.6823 185.512 32.6061 185.106 32.6061C184.827 32.6061 184.577 32.6427 184.357 32.7158C184.14 32.789 183.968 32.8957 183.842 33.036C183.715 33.1763 183.652 33.3465 183.652 33.5465Z" fill="#EEEFFC"/>
<path d="M191.202 35.6869C190.668 35.6869 190.208 35.6107 189.822 35.4585C189.436 35.3062 189.14 35.0965 188.932 34.8294C188.724 34.5622 188.62 34.257 188.62 33.9137C188.62 33.5644 188.727 33.2562 188.939 32.989C189.154 32.7203 189.454 32.5106 189.837 32.3599C190.223 32.2076 190.673 32.1315 191.187 32.1315C191.588 32.1315 191.949 32.1763 192.27 32.2658C192.592 32.3554 192.855 32.4808 193.06 32.642C193.266 32.8032 193.393 32.9912 193.443 33.2062H192.567C192.5 33.0494 192.352 32.9106 192.122 32.7897C191.894 32.6673 191.588 32.6061 191.202 32.6061C190.861 32.6061 190.561 32.6599 190.304 32.7673C190.05 32.8733 189.851 33.0233 189.707 33.2174C189.566 33.4099 189.496 33.636 189.496 33.8957C189.496 34.1614 189.565 34.3928 189.703 34.5898C189.844 34.7868 190.042 34.9398 190.297 35.0488C190.554 35.1577 190.856 35.2122 191.202 35.2122C191.43 35.2122 191.636 35.1883 191.821 35.1406C192.007 35.0928 192.164 35.0241 192.293 34.9346C192.421 34.845 192.513 34.7376 192.567 34.6122H193.443C193.393 34.8152 193.271 34.998 193.075 35.1607C192.882 35.3219 192.626 35.4503 192.307 35.5458C191.991 35.6398 191.622 35.6869 191.202 35.6869Z" fill="#EEEFFC"/>
<path d="M197.111 35.6869C196.562 35.6869 196.089 35.6137 195.69 35.4674C195.295 35.3197 194.989 35.1137 194.774 34.8495C194.562 34.5838 194.455 34.2749 194.455 33.9226C194.455 33.5704 194.562 33.2599 194.774 32.9912C194.989 32.7211 195.289 32.5106 195.672 32.3599C196.058 32.2076 196.508 32.1315 197.022 32.1315C197.319 32.1315 197.612 32.1613 197.901 32.2211C198.191 32.2808 198.454 32.3778 198.691 32.5121C198.929 32.6449 199.118 32.8211 199.259 33.0405C199.4 33.2599 199.47 33.5301 199.47 33.851V34.0749H195.078V33.6181H198.58C198.58 33.4241 198.516 33.2509 198.387 33.0987C198.261 32.9464 198.081 32.8263 197.846 32.7382C197.613 32.6502 197.339 32.6061 197.022 32.6061C196.673 32.6061 196.372 32.6584 196.117 32.7629C195.865 32.8659 195.671 33.0002 195.535 33.1659C195.399 33.3315 195.331 33.5092 195.331 33.6987V34.0032C195.331 34.2629 195.405 34.4831 195.553 34.6637C195.704 34.8428 195.913 34.9794 196.18 35.0734C196.447 35.1659 196.758 35.2122 197.111 35.2122C197.341 35.2122 197.549 35.1928 197.734 35.154C197.922 35.1137 198.084 35.054 198.22 34.9749C198.356 34.8943 198.461 34.7943 198.536 34.6749L199.381 34.8182C199.292 34.9913 199.143 35.1436 198.932 35.2749C198.722 35.4048 198.463 35.5063 198.154 35.5794C197.844 35.651 197.497 35.6869 197.111 35.6869Z" fill="#EEEFFC"/>
<path d="M200.802 36.9048V32.1763H201.648V32.7226H201.752C201.816 32.6629 201.905 32.5867 202.019 32.4942C202.135 32.4002 202.301 32.3166 202.516 32.2434C202.733 32.1688 203.028 32.1315 203.399 32.1315C203.878 32.1315 204.301 32.2039 204.667 32.3487C205.033 32.4935 205.319 32.6987 205.524 32.9644C205.729 33.23 205.832 33.5435 205.832 33.9047C205.832 34.2689 205.729 34.5846 205.524 34.8517C205.319 35.1174 205.035 35.3234 204.671 35.4697C204.307 35.6145 203.888 35.6869 203.413 35.6869C203.048 35.6869 202.754 35.6503 202.534 35.5772C202.314 35.5025 202.145 35.4182 202.026 35.3242C201.907 35.2286 201.816 35.1495 201.752 35.0868H201.677V36.9048H200.802ZM201.663 33.8957C201.663 34.1555 201.726 34.3846 201.852 34.5831C201.978 34.7801 202.162 34.9346 202.405 35.0465C202.647 35.157 202.944 35.2122 203.295 35.2122C203.661 35.2122 203.966 35.154 204.211 35.0376C204.458 34.9197 204.644 34.7615 204.767 34.5629C204.894 34.3629 204.957 34.1405 204.957 33.8957C204.957 33.6539 204.895 33.436 204.771 33.242C204.65 33.0465 204.466 32.892 204.218 32.7785C203.974 32.6636 203.666 32.6061 203.295 32.6061C202.939 32.6061 202.639 32.6606 202.397 32.7696C202.155 32.877 201.972 33.0278 201.848 33.2218C201.724 33.4144 201.663 33.639 201.663 33.8957Z" fill="#EEEFFC"/>
<path d="M209.645 32.1763V32.6241H206.693V32.1763H209.645ZM207.553 31.3524H208.429V34.6301C208.429 34.7794 208.465 34.8913 208.536 34.9659C208.61 35.0391 208.704 35.0883 208.818 35.1137C208.934 35.1376 209.057 35.1495 209.185 35.1495C209.282 35.1495 209.361 35.1465 209.423 35.1406C209.485 35.1331 209.534 35.1271 209.571 35.1227L209.749 35.5973C209.69 35.6107 209.607 35.6242 209.501 35.6376C209.394 35.6525 209.26 35.66 209.096 35.66C208.849 35.66 208.607 35.6279 208.369 35.5637C208.134 35.4995 207.939 35.4018 207.783 35.2704C207.63 35.1391 207.553 34.9734 207.553 34.7734V31.3524Z" fill="#EEEFFC"/>
<path d="M214.896 32.9464L214.11 33.0808C214.06 33.0017 213.987 32.9248 213.891 32.8502C213.797 32.7741 213.668 32.7114 213.505 32.6621C213.342 32.6129 213.133 32.5882 212.878 32.5882C212.53 32.5882 212.239 32.6367 212.006 32.7338C211.776 32.8293 211.661 32.9509 211.661 33.0987C211.661 33.23 211.741 33.3338 211.899 33.4099C212.057 33.486 212.304 33.5495 212.641 33.6002L213.487 33.7256C213.996 33.8002 214.376 33.9144 214.625 34.0681C214.875 34.2204 215 34.4167 215 34.657C215 34.854 214.906 35.0301 214.718 35.1853C214.533 35.3406 214.273 35.463 213.939 35.5525C213.605 35.6421 213.217 35.6869 212.774 35.6869C212.193 35.6869 211.712 35.6107 211.331 35.4585C210.951 35.3062 210.709 35.0838 210.608 34.7913L211.439 34.6659C211.518 34.851 211.668 34.9898 211.888 35.0824C212.11 35.1749 212.401 35.2212 212.759 35.2212C213.168 35.2212 213.491 35.1689 213.731 35.0644C213.974 34.9585 214.095 34.8316 214.095 34.6838C214.095 34.5644 214.026 34.4644 213.887 34.3838C213.749 34.3017 213.536 34.2405 213.249 34.2002L212.299 34.0659C211.778 33.9913 211.394 33.8756 211.15 33.7189C210.907 33.5607 210.786 33.3629 210.786 33.1256C210.786 32.9315 210.876 32.7599 211.057 32.6106C211.24 32.4614 211.488 32.3442 211.802 32.2591C212.119 32.174 212.478 32.1315 212.878 32.1315C213.442 32.1315 213.885 32.2061 214.206 32.3554C214.53 32.5046 214.76 32.7017 214.896 32.9464Z" fill="#EEEFFC"/>
</svg>
